{
.appVersion = "3522";
DisplayStrings = (
"nñ/tildecomb/tilde NÑ/brevecomb/breve/obreve/Obreve/caroncomb/caron/Ocaron/circumflexcomb/circumflex Ô/brevebelowcomb/Hbrevebelow/ringcomb/ringcomb/ringcomb/ring/Uring/ubreve/ucaron ûü/udotbelow u/uogonek",
ABCDEFGHIJKLMNOPQRSTUVWXYZ,
"/be-cy/ve-cy/ge-cy/gje-cy/geupturn-cy/gedescender-cy/gestroke-cy/gemiddlehook-cy/de-cy/iegrave-cy/io-cy/zhe-cy/ze-cy/ii-cy/iishort-cy/iigrave-cy/ka-cy/kje-cy/el-cy/em-cy/en-cy/pe-cy/te-cy/ushort-cy/ef-cy/che-cy/tse-cy/sha-cy/shcha-cy/dzhe-cy/softsign-cy/yeru-cy/hardsign-cy/lje-cy/nje-cy/e-cy/ereversed-cy/tshe-cy/yu-cy/ya-cy/dje-cy/yat-cy/fita-cy/izhitsa-cy/zhedescender-cy",
"/De-cy/De-cy.loclBGR",
"/Hahook-cy",
"/Elhook-cy"
);
classes = (
{
automatic = 1;

glyphs = (
{
glyphname = A;
lastChange = "2026-04-25 18:55:43 +0000";
layers = (
{
anchors = (
{
name = Bottom;
position = "{343, 0}";
},
{
name = Greek;
position = "{154, 558}";
},
{
name = Ogonek;
position = "{588, 0}";
},
{
name = Top;
position = "{373, 714}";
}
);
layerId = "FD4D3FDD-DE85-408F-A52A-FF600B1C6101";
paths = (
{
closed = 1;
nodes = (
"22 0 LINE",
"75 0 LINE",
"188 250 LINE",
"493 250 LINE",
"571 0 LINE",
"622 0 LINE",
"399 714 LINE",
"346 714 LINE"
);
},
{
closed = 1;
nodes = (
"368 646 LINE",
"478 298 LINE",
"210 298 LINE"
);
}
);
width = 680;
},
{
anchors = (
{
name = Bottom;
position = "{408, 0}";
},
{
name = Greek;
position = "{123, 558}";
},
{
name = Ogonek;
position = "{682, 0}";
},
{
name = Top;
position = "{458, 714}";
}
);
layerId = m002;
paths = (
{
closed = 1;
nodes = (
"22 0 LINE",
"235 0 LINE",
"278 98 LINE",
"514 98 LINE",
"543 0 LINE",
"754 0 LINE",
"545 714 LINE",
"332 714 LINE"
);
},
{
closed = 1;
nodes = (
"419 423 LINE",
"470 248 LINE",
"343 248 LINE"
);
}
);
width = 812;
},
{
anchors = (
{
name = Bottom;
position = "{383, 0}";
},
{
name = Greek;
position = "{194, 558}";
},
{
name = Ogonek;
position = "{703, 0}";
},
{
name = Top;
position = "{433, 714}";
}
);
layerId = "2AA43DF3-F741-4269-8311-3A3BEA5B2F2C";
paths = (
{
closed = 1;
nodes = (
"22 0 LINE",
"75 0 LINE",
"209 250 LINE",
"592 250 LINE",
"691 0 LINE",
"742 0 LINE",
"459 714 LINE",
"406 714 LINE"
);
},
{
closed = 1;
nodes = (
"429 658 LINE",
"572 298 LINE",
"235 298 LINE"
);
}
);
width = 800;
},
{
anchors = (
{
name = Bottom;
position = "{479, 0}";
},
{
name = Greek;
position = "{154, 558}";
},
{
name = Ogonek;
position = "{823, 0}";
},
{
name = Top;
position = "{529, 714}";
}
);
layerId = "2B8C56A3-DCBD-4946-B3F7-595679620A89";
paths = (
{
closed = 1;
nodes = (
"22 0 LINE",
"235 0 LINE",
"292 108 LINE",
"641 108 LINE",
"683 0 LINE",
"894 0 LINE",
"615 714 LINE",
"402 714 LINE"
);
},
{
closed = 1;
nodes = (
"493 485 LINE",
"582 258 LINE",
"372 258 LINE"
);
}
);
width = 952;
}
);
leftKerningGroup = A;
rightKerningGroup = A;
unicode = 0041;
},
{
glyphname = Astroke;
lastChange = "2026-04-25 18:55:43 +0000";
layers = (
{
layerId = "FD4D3FDD-DE85-408F-A52A-FF600B1C6101";
paths = (
{
closed = 1;
nodes = (
"22 0 LINE",
"75 0 LINE",
"188 250 LINE",
"263 250 LINE",
"126 -53 LINE",
"176 -53 LINE",
"313 250 LINE",
"492 250 LINE",
"571 0 LINE",
"622 0 LINE",
"449 550 LINE",
"550 772 LINE",
"499 772 LINE",
"429 616 LINE",
"398 714 LINE",
"346 714 LINE"
);
},
{
closed = 1;
nodes = (
"367 646 LINE",
"398 549 LINE",
"285 298 LINE",
"210 298 LINE"
);
},
{
closed = 1;
nodes = (
"419 483 LINE",
"477 298 LINE",
"335 298 LINE"
);
}
);
width = 680;
},
{
layerId = m002;
paths = (
{
closed = 1;
nodes = (
"22 0 LINE",
"235 0 LINE",
"277 98 LINE",
"302 98 LINE",
"234 -53 LINE",
"286 -53 LINE",
"354 98 LINE",
"514 98 LINE",
"543 0 LINE",
"754 0 LINE",
"579 595 LINE",
"659 772 LINE",
"608 772 LINE",
"559 664 LINE",
"544 714 LINE",
"332 714 LINE"
);
},
{
closed = 1;
nodes = (
"418 423 LINE",
"431 381 LINE",
"370 248 LINE",
"342 248 LINE"
);
},
{
closed = 1;
nodes = (
"451 312 LINE",
"470 248 LINE",
"422 248 LINE"
);
}
);
width = 812;
},
{
layerId = "2AA43DF3-F741-4269-8311-3A3BEA5B2F2C";
paths = (
{
closed = 1;
nodes = (
"22 0 LINE",
"75 0 LINE",
"209 250 LINE",
"327 250 LINE",
"166 -53 LINE",
"216 -53 LINE",
"377 250 LINE",
"593 250 LINE",
"692 0 LINE",
"743 0 LINE",
"530 536 LINE",
"655 772 LINE",
"604 772 LINE",
"508 591 LINE",
"459 714 LINE",
"406 714 LINE"
);
},
{
closed = 1;
nodes = (
"430 659 LINE",
"479 536 LINE",
"352 298 LINE",
"235 298 LINE"
);
},
{
closed = 1;
nodes = (
"500 482 LINE",
"573 298 LINE",
"403 298 LINE"
);
}
);
width = 801;
},
{
layerId = "2B8C56A3-DCBD-4946-B3F7-595679620A89";
paths = (
{
closed = 1;
nodes = (
"22 0 LINE",
"235 0 LINE",
"292 108 LINE",
"357 108 LINE",
"272 -53 LINE",
"324 -53 LINE",
"409 108 LINE",
"642 108 LINE",
"684 0 LINE",
"895 0 LINE",
"663 592 LINE",
"757 772 LINE",
"706 772 LINE",
"641 648 LINE",
"615 714 LINE",
"402 714 LINE"
);
},
{
closed = 1;
nodes = (
"494 486 LINE",
"520 418 LINE",
"436 258 LINE",
"372 258 LINE"
);
},
{
closed = 1;
nodes = (
"542 362 LINE",
"583 258 LINE",
"487 258 LINE"
);
}
);
width = 953;
}
);
leftKerningGroup = A;
leftMetricsKey = A;
rightKerningGroup = A;
rightMetricsKey = A;
unicode = 023A;
},
{
glyphname = AE;
lastChange = "2026-04-25 18:55:43 +0000";
layers = (
{
anchors = (
{
name = Top;
position = "{638, 714}";
}
);
layerId = "FD4D3FDD-DE85-408F-A52A-FF600B1C6101";
paths = (
{
closed = 1;
nodes = (
"22 0 LINE",
"75 0 LINE",
"223 250 LINE",
"478 250 LINE",
"461 0 LINE",
"852 0 LINE",
"855 48 LINE",
"514 48 LINE",
"535 344 LINE",
"855 344 LINE",
"858 392 LINE",
"538 392 LINE",
"557 666 LINE",
"898 666 LINE",
"902 714 LINE",
"446 714 LINE"
);
},
{
closed = 1;
nodes = (
"470 666 LINE",
"507 666 LINE",
"481 298 LINE",
"252 298 LINE"
);
}
);
width = 920;
},
{
anchors = (
{
name = Top;
position = "{748, 714}";
}
);
layerId = m002;
paths = (
{
closed = 1;
nodes = (
"22 0 LINE",
"235 0 LINE",
"317 138 LINE",
"540 138 LINE",
"531 0 LINE",
"1047 0 LINE",
"1058 168 LINE",
"752 168 LINE",
"760 284 LINE",
"1045 284 LINE",
"1057 452 LINE",
"772 452 LINE",
"779 546 LINE",
"1085 546 LINE",
"1097 714 LINE",
"447 714 LINE"
);
},
{
closed = 1;
nodes = (
"561 546 LINE",
"569 546 LINE",
"551 288 LINE",
"407 288 LINE"
);
}
);
width = 1105;
},
{
anchors = (
{
name = Top;
position = "{689, 714}";
}
);
layerId = "2AA43DF3-F741-4269-8311-3A3BEA5B2F2C";
paths = (
{
closed = 1;
nodes = (
"22 0 LINE",
"77 0 LINE",
"236 250 LINE",
"496 250 LINE",
"478 0 LINE",
"1019 0 LINE",
"1022 48 LINE",
"531 48 LINE",
"552 344 LINE",
"1022 344 LINE",
"1025 392 LINE",
"555 392 LINE",
"575 666 LINE",
"1065 666 LINE",
"1069 714 LINE",
"474 714 LINE"
);
},
{
closed = 1;
nodes = (
"499 666 LINE",
"524 666 LINE",
"499 298 LINE",
"266 298 LINE"
);
}
);
width = 1087;
},
{
anchors = (
{
name = Top;
position = "{753, 714}";
}
);
layerId = "2B8C56A3-DCBD-4946-B3F7-595679620A89";
paths = (
{
closed = 1;
nodes = (
"22 0 LINE",
"228 0 LINE",
"330 138 LINE",
"613 138 LINE",
"603 0 LINE",
"1259 0 LINE",
"1270 168 LINE",
"825 168 LINE",
"833 284 LINE",
"1257 284 LINE",
"1269 452 LINE",
"845 452 LINE",
"851 546 LINE",
"1297 546 LINE",
"1309 714 LINE",
"554 714 LINE"
);
},
{
closed = 1;
nodes = (
"634 546 LINE",
"642 546 LINE",
"623 288 LINE",
"443 288 LINE"
);
}
);
width = 1317;
}
);
leftKerningGroup = A;
leftMetricsKey = A;
rightKerningGroup = E;
rightMetricsKey = E;
unicode = 00C6;
},
{
glyphname = B;
lastChange = "2026-04-25 18:55:43 +0000";
layers = (
{
anchors = (
{
name = Bottom;
position = "{296, 0}";
}
);
layerId = "FD4D3FDD-DE85-408F-A52A-FF600B1C6101";
paths = (
{
closed = 1;
nodes = (
"312 0 LINE SMOOTH",
"451 0 OFFCURVE",
"538 80 OFFCURVE",
"538 215 CURVE SMOOTH",
"538 305 OFFCURVE",
"486 364 OFFCURVE",
"398 374 CURVE",
"398 376 LINE",
"486 389 OFFCURVE",
"541 450 OFFCURVE",
"541 543 CURVE SMOOTH",
"541 650 OFFCURVE",
"466 714 OFFCURVE",
"338 714 CURVE SMOOTH",
"92 714 LINE",
"42 0 LINE"
);
},
{
closed = 1;
nodes = (
"116 351 LINE",
"325 351 LINE SMOOTH",
"428 351 OFFCURVE",
"488 300 OFFCURVE",
"488 212 CURVE SMOOTH",
"488 110 OFFCURVE",
"420 48 OFFCURVE",
"312 48 CURVE SMOOTH",
"95 48 LINE"
);
},
{
closed = 1;
nodes = (
"138 666 LINE",
"336 666 LINE SMOOTH",
"435 666 OFFCURVE",
"491 620 OFFCURVE",
"491 540 CURVE SMOOTH",
"491 452 OFFCURVE",
"429 398 OFFCURVE",
"327 398 CURVE SMOOTH",
"119 398 LINE"
);
}
);
width = 582;
},
{
anchors = (
{
name = Bottom;
position = "{356, 0}";
}
);
layerId = m002;
paths = (
{
closed = 1;
nodes = (
"394 0 LINE SMOOTH",
"561 0 OFFCURVE",
"679 92 OFFCURVE",
"679 223 CURVE SMOOTH",
"679 294 OFFCURVE",
"633 356 OFFCURVE",
"567 373 CURVE",
"567 375 LINE",
"633 395 OFFCURVE",
"680 460 OFFCURVE",
"680 533 CURVE SMOOTH",
"680 639 OFFCURVE",
"581 714 OFFCURVE",
"441 714 CURVE SMOOTH",
"92 714 LINE",
"42 0 LINE"
);
},
{
closed = 1;
nodes = (
"272 294 LINE",
"392 294 LINE SMOOTH",
"432 294 OFFCURVE",
"460 271 OFFCURVE",
"460 239 CURVE SMOOTH",
"460 193 OFFCURVE",
"431 160 OFFCURVE",
"389 160 CURVE SMOOTH",
"263 160 LINE"
);
},
{
closed = 1;
nodes = (
"290 554 LINE",
"405 554 LINE SMOOTH",
"437 554 OFFCURVE",
"459 537 OFFCURVE",
"459 513 CURVE SMOOTH",
"459 478 OFFCURVE",
"434 454 OFFCURVE",
"399 454 CURVE SMOOTH",
"283 454 LINE"
);
}
);
width = 712;
},
{
anchors = (
{
name = Bottom;
position = "{346, 0}";
}
);
layerId = "2AA43DF3-F741-4269-8311-3A3BEA5B2F2C";
paths = (
{
closed = 1;
nodes = (
"452 0 LINE SMOOTH",
"579 0 OFFCURVE",
"669 78 OFFCURVE",
"677 197 CURVE SMOOTH",
"684 292 OFFCURVE",
"629 364 OFFCURVE",
"538 374 CURVE",
"538 376 LINE",
"617 388 OFFCURVE",
"675 446 OFFCURVE",
"680 524 CURVE SMOOTH",
"688 637 OFFCURVE",
"607 714 OFFCURVE",
"478 714 CURVE SMOOTH",
"92 714 LINE",
"42 0 LINE"
);
},
{
closed = 1;
nodes = (
"117 351 LINE",
"465 351 LINE SMOOTH",
"569 351 OFFCURVE",
"634 290 OFFCURVE",
"627 197 CURVE SMOOTH",
"621 108 OFFCURVE",
"550 48 OFFCURVE",
"452 48 CURVE SMOOTH",
"95 48 LINE"
);
},
{
closed = 1;
nodes = (
"139 666 LINE",
"476 666 LINE SMOOTH",
"575 666 OFFCURVE",
"636 611 OFFCURVE",
"631 528 CURVE SMOOTH",
"625 451 OFFCURVE",
"559 398 OFFCURVE",
"467 398 CURVE SMOOTH",
"120 398 LINE"
);
}
);
width = 721;
},
{
anchors = (
{
name = Bottom;
position = "{416, 0}";
}
);
layerId = "2B8C56A3-DCBD-4946-B3F7-595679620A89";
paths = (
{
closed = 1;
nodes = (
"524 0 LINE SMOOTH",
"695 0 OFFCURVE",
"799 77 OFFCURVE",
"808 207 CURVE SMOOTH",
"814 293 OFFCURVE",
"771 354 OFFCURVE",
"697 373 CURVE",
"697 375 LINE",
"760 394 OFFCURVE",
"805 448 OFFCURVE",
"810 519 CURVE SMOOTH",
"818 641 OFFCURVE",
"721 714 OFFCURVE",
"551 714 CURVE SMOOTH",
"92 714 LINE",
"42 0 LINE"
);
},
{
closed = 1;
nodes = (
"273 294 LINE",
"522 294 LINE SMOOTH",
"569 294 OFFCURVE",
"593 271 OFFCURVE",
"590 233 CURVE SMOOTH",
"587 187 OFFCURVE",
"559 160 OFFCURVE",
"519 160 CURVE SMOOTH",
"263 160 LINE"
);
},
{
closed = 1;
nodes = (
"291 554 LINE",
"535 554 LINE SMOOTH",
"573 554 OFFCURVE",
"591 537 OFFCURVE",
"589 509 CURVE SMOOTH",
"587 475 OFFCURVE",
"563 454 OFFCURVE",
"529 454 CURVE SMOOTH",
"284 454 LINE"
);
}
);
width = 842;
}
);
leftKerningGroup = H;
leftMetricsKey = N;
rightKerningGroup = B;
unicode = 0042;
},
{
glyphname = Bhook;
lastChange = "2026-04-25 18:55:43 +0000";
layers = (
{
layerId = "FD4D3FDD-DE85-408F-A52A-FF600B1C6101";
paths = (
{
closed = 1;
nodes = (
"407 0 LINE SMOOTH",
"546 0 OFFCURVE",
"633 80 OFFCURVE",
"633 215 CURVE SMOOTH",
"633 305 OFFCURVE",
"581 364 OFFCURVE",
"493 374 CURVE",
"495 376 LINE",
"583 389 OFFCURVE",
"636 450 OFFCURVE",
"636 543 CURVE SMOOTH",
"636 650 OFFCURVE",
"561 714 OFFCURVE",
"433 714 CURVE SMOOTH",
"187 714 LINE",
"137 0 LINE"
);
},
{
closed = 1;
nodes = (
"211 351 LINE",
"420 351 LINE SMOOTH",
"523 351 OFFCURVE",
"583 300 OFFCURVE",
"583 212 CURVE SMOOTH",
"583 110 OFFCURVE",
"515 48 OFFCURVE",
"407 48 CURVE SMOOTH",
"190 48 LINE"
);
},
{
closed = 1;
nodes = (
"233 666 LINE",
"431 666 LINE SMOOTH",
"530 666 OFFCURVE",
"586 620 OFFCURVE",
"586 540 CURVE SMOOTH",
"586 452 OFFCURVE",
"524 398 OFFCURVE",
"422 398 CURVE SMOOTH",
"214 398 LINE"
);
},
{
closed = 1;
nodes = (
"181 714 LINE SMOOTH",
"106 714 OFFCURVE",
"59 675 OFFCURVE",
"54 608 CURVE SMOOTH",
"53 595 OFFCURVE",
"53 581 OFFCURVE",
"53 568 CURVE",
"99 568 LINE",
"98 576 OFFCURVE",
"98 589 OFFCURVE",
"99 603 CURVE SMOOTH",
"102 643 OFFCURVE",
"130 666 OFFCURVE",
"177 666 CURVE SMOOTH",
"187 666 LINE",
"187 714 LINE"
);
}
);
width = 677;
},
{
layerId = "2AA43DF3-F741-4269-8311-3A3BEA5B2F2C";
paths = (
{
closed = 1;
nodes = (
"547 0 LINE SMOOTH",
"674 0 OFFCURVE",
"764 78 OFFCURVE",
"772 197 CURVE SMOOTH",
"779 292 OFFCURVE",
"724 364 OFFCURVE",
"633 374 CURVE",
"635 376 LINE",
"714 388 OFFCURVE",
"770 446 OFFCURVE",
"775 524 CURVE SMOOTH",
"783 637 OFFCURVE",
"702 714 OFFCURVE",
"573 714 CURVE SMOOTH",
"187 714 LINE",
"137 0 LINE"
);
},
{
closed = 1;
nodes = (
"212 351 LINE",
"560 351 LINE SMOOTH",
"664 351 OFFCURVE",
"729 290 OFFCURVE",
"722 197 CURVE SMOOTH",
"716 108 OFFCURVE",
"645 48 OFFCURVE",
"547 48 CURVE SMOOTH",
"190 48 LINE"
);
},
{
closed = 1;
nodes = (
"234 666 LINE",
"571 666 LINE SMOOTH",
"670 666 OFFCURVE",
"731 611 OFFCURVE",
"726 528 CURVE SMOOTH",
"720 451 OFFCURVE",
"654 398 OFFCURVE",
"562 398 CURVE SMOOTH",
"215 398 LINE"
);
},
{
closed = 1;
nodes = (
"181 714 LINE SMOOTH",
"106 714 OFFCURVE",
"59 675 OFFCURVE",
"54 608 CURVE SMOOTH",
"53 595 OFFCURVE",
"53 581 OFFCURVE",
"53 568 CURVE",
"99 568 LINE",
"98 576 OFFCURVE",
"98 589 OFFCURVE",
"99 603 CURVE SMOOTH",
"102 643 OFFCURVE",
"130 666 OFFCURVE",
"177 666 CURVE SMOOTH",
"184 666 LINE",
"187 714 LINE"
);
}
);
width = 816;
},
{
layerId = m002;
paths = (
{
closed = 1;
nodes = (
"582 0 LINE SMOOTH",
"759 0 OFFCURVE",
"867 83 OFFCURVE",
"867 223 CURVE SMOOTH",
"867 300 OFFCURVE",
"824 355 OFFCURVE",
"755 373 CURVE",
"760 375 LINE SMOOTH",
"827 395 OFFCURVE",
"868 455 OFFCURVE",
"868 533 CURVE SMOOTH",
"868 646 OFFCURVE",
"772 714 OFFCURVE",
"609 714 CURVE SMOOTH",
"280 714 LINE",
"230 0 LINE"
);
},
{
closed = 1;
nodes = (
"460 294 LINE",
"580 294 LINE SMOOTH",
"624 294 OFFCURVE",
"648 273 OFFCURVE",
"648 239 CURVE SMOOTH",
"648 189 OFFCURVE",
"619 160 OFFCURVE",
"577 160 CURVE SMOOTH",
"451 160 LINE"
);
},
{
closed = 1;
nodes = (
"478 554 LINE",
"593 554 LINE SMOOTH",
"629 554 OFFCURVE",
"647 539 OFFCURVE",
"647 513 CURVE SMOOTH",
"647 477 OFFCURVE",
"622 454 OFFCURVE",
"587 454 CURVE SMOOTH",
"471 454 LINE"
);
},
{
closed = 1;
nodes = (
"277 714 LINE SMOOTH",
"136 714 OFFCURVE",
"55 623 OFFCURVE",
"45 471 CURVE SMOOTH",
"43 450 OFFCURVE",
"43 432 OFFCURVE",
"44 423 CURVE",
"194 423 LINE",
"192 438 OFFCURVE",
"192 451 OFFCURVE",
"193 459 CURVE SMOOTH",
"195 495 OFFCURVE",
"222 516 OFFCURVE",
"264 516 CURVE SMOOTH",
"267 516 LINE",
"280 714 LINE"
);
}
);
width = 900;
},
{
layerId = "2B8C56A3-DCBD-4946-B3F7-595679620A89";
paths = (
{
closed = 1;
nodes = (
"695 0 LINE SMOOTH",
"866 0 OFFCURVE",
"970 77 OFFCURVE",
"979 207 CURVE SMOOTH",
"985 293 OFFCURVE",
"942 354 OFFCURVE",
"868 373 CURVE",
"873 375 LINE SMOOTH",
"936 394 OFFCURVE",
"976 448 OFFCURVE",
"981 519 CURVE SMOOTH",
"989 641 OFFCURVE",
"892 714 OFFCURVE",
"722 714 CURVE SMOOTH",
"263 714 LINE",
"213 0 LINE"
);
},
{
closed = 1;
nodes = (
"444 294 LINE",
"693 294 LINE SMOOTH",
"740 294 OFFCURVE",
"764 271 OFFCURVE",
"761 233 CURVE SMOOTH",
"758 187 OFFCURVE",
"730 160 OFFCURVE",
"690 160 CURVE SMOOTH",
"434 160 LINE"
);
},
{
closed = 1;
nodes = (
"462 554 LINE",
"706 554 LINE SMOOTH",
"744 554 OFFCURVE",
"762 537 OFFCURVE",
"760 509 CURVE SMOOTH",
"758 475 OFFCURVE",
"734 454 OFFCURVE",
"700 454 CURVE SMOOTH",
"455 454 LINE"
);
},
{
closed = 1;
nodes = (
"260 714 LINE SMOOTH",
"136 714 OFFCURVE",
"57 644 OFFCURVE",
"49 528 CURVE SMOOTH",
"46 498 OFFCURVE",
"45 468 OFFCURVE",
"45 448 CURVE",
"195 448 LINE",
"195 462 OFFCURVE",
"195 476 OFFCURVE",
"196 486 CURVE SMOOTH",
"197 505 OFFCURVE",
"216 516 OFFCURVE",
"247 516 CURVE SMOOTH",
"249 516 LINE",
"263 714 LINE"
);
}
);
width = 1013;
}
);
leftKerningGroup = T;
leftMetricsKey = T;
rightKerningGroup = B;
rightMetricsKey = B;
unicode = 0181;
},
{
glyphname = C;
lastChange = "2026-04-25 18:55:43 +0000";
layers = (
{
anchors = (
{
name = Bottom;
position = "{343, 0}";
},
{
name = Top;
position = "{383, 726}";
}
);
layerId = "FD4D3FDD-DE85-408F-A52A-FF600B1C6101";
paths = (
{
closed = 1;
nodes = (
"560 217 LINE",
"540 110 OFFCURVE",
"450 35 OFFCURVE",
"340 35 CURVE SMOOTH",
"203 35 OFFCURVE",
"107 152 OFFCURVE",
"107 318 CURVE SMOOTH",
"107 529 OFFCURVE",
"220 678 OFFCURVE",
"381 678 CURVE SMOOTH",
"496 678 OFFCURVE",
"581 603 OFFCURVE",
"587 497 CURVE",
"637 495 LINE",
"633 631 OFFCURVE",
"528 726 OFFCURVE",
"382 726 CURVE SMOOTH",
"191 726 OFFCURVE",
"56 557 OFFCURVE",
"56 317 CURVE SMOOTH",
"56 123 OFFCURVE",
"173 -13 OFFCURVE",
"339 -13 CURVE SMOOTH",
"477 -13 OFFCURVE",
"589 81 OFFCURVE",
"610 215 CURVE"
);
}
);
width = 671;
},
{
anchors = (
{
name = Bottom;
position = "{407, 0}";
},
{
name = Top;
position = "{437, 726}";
}
);
layerId = m002;
paths = (
{
closed = 1;
nodes = (
"544 288 LINE",
"530 210 OFFCURVE",
"472 155 OFFCURVE",
"403 155 CURVE SMOOTH",
"322 155 OFFCURVE",
"265 226 OFFCURVE",
"265 327 CURVE SMOOTH",
"265 463 OFFCURVE",
"337 558 OFFCURVE",
"440 558 CURVE SMOOTH",
"506 558 OFFCURVE",
"556 504 OFFCURVE",
"562 428 CURVE",
"781 424 LINE",
"774 601 OFFCURVE",
"631 726 OFFCURVE",
"433 726 CURVE SMOOTH",
"206 726 OFFCURVE",
"46 559 OFFCURVE",
"46 322 CURVE SMOOTH",
"46 125 OFFCURVE",
"192 -13 OFFCURVE",
"400 -13 CURVE SMOOTH",
"585 -13 OFFCURVE",
"735 110 OFFCURVE",
"764 284 CURVE"
);
}
);
width = 810;
},
{
anchors = (
{
name = Bottom;
position = "{417, 0}";
},
{
name = Top;
position = "{457, 726}";
}
);
layerId = "2AA43DF3-F741-4269-8311-3A3BEA5B2F2C";
paths = (
{
closed = 1;
nodes = (
"709 217 LINE",
"689 110 OFFCURVE",
"568 35 OFFCURVE",
"414 35 CURVE SMOOTH",
"220 35 OFFCURVE",
"93 168 OFFCURVE",
"107 356 CURVE SMOOTH",
"120 545 OFFCURVE",
"263 678 OFFCURVE",
"455 678 CURVE SMOOTH",
"614 678 OFFCURVE",
"730 603 OFFCURVE",
"736 497 CURVE",
"786 495 LINE",
"782 631 OFFCURVE",
"646 726 OFFCURVE",
"456 726 CURVE SMOOTH",
"236 726 OFFCURVE",
"72 574 OFFCURVE",
"57 358 CURVE SMOOTH",
"41 140 OFFCURVE",
"188 -13 OFFCURVE",
"413 -13 CURVE SMOOTH",
"595 -13 OFFCURVE",
"738 81 OFFCURVE",
"759 215 CURVE"
);
}
);
width = 820;
},
{
anchors = (
{
name = Bottom;
position = "{452, 0}";
},
{
name = Top;
position = "{482, 726}";
}
);
layerId = "2B8C56A3-DCBD-4946-B3F7-595679620A89";
paths = (
{
closed = 1;
nodes = (
"634 288 LINE",
"619 210 OFFCURVE",
"543 155 OFFCURVE",
"448 155 CURVE SMOOTH",
"333 155 OFFCURVE",
"258 236 OFFCURVE",
"266 352 CURVE SMOOTH",
"275 473 OFFCURVE",
"365 558 OFFCURVE",
"485 558 CURVE SMOOTH",
"577 558 OFFCURVE",
"646 504 OFFCURVE",
"652 428 CURVE",
"871 424 LINE",
"865 601 OFFCURVE",
"703 726 OFFCURVE",
"478 726 CURVE SMOOTH",
"240 726 OFFCURVE",
"62 576 OFFCURVE",
"47 362 CURVE SMOOTH",
"31 142 OFFCURVE",
"196 -13 OFFCURVE",
"445 -13 CURVE SMOOTH",
"656 -13 OFFCURVE",
"825 110 OFFCURVE",
"854 284 CURVE"
);
}
);
width = 900;
}
);
leftKerningGroup = O;
leftMetricsKey = O;
rightKerningGroup = O;
rightMetricsKey = O;
unicode = 0043;
},
{
glyphname = "Chi-latin";
lastChange = "2026-04-25 18:55:43 +0000";
layers = (
{
layerId = "FD4D3FDD-DE85-408F-A52A-FF600B1C6101";
paths = (
{
closed = 1;
nodes = (
"357 356 LINE",
"633 714 LINE",
"573 714 LINE",
"330 399 LINE",
"131 714 LINE",
"73 714 LINE",
"298 358 LINE",
"22 0 LINE",
"82 0 LINE",
"325 315 LINE",
"524 0 LINE",
"582 0 LINE"
);
}
);
width = 641;
},
{
layerId = "2AA43DF3-F741-4269-8311-3A3BEA5B2F2C";
paths = (
{
closed = 1;
nodes = (
"400 357 LINE",
"713 714 LINE",
"648 714 LINE",
"371 397 LINE",
"136 714 LINE",
"73 714 LINE",
"336 358 LINE",
"22 0 LINE",
"87 0 LINE",
"365 317 LINE",
"599 0 LINE",
"665 0 LINE"
);
}
);
width = 723;
},
{
layerId = m002;
paths = (
{
closed = 1;
nodes = (
"550 356 LINE",
"828 714 LINE",
"578 714 LINE",
"437 533 LINE",
"321 714 LINE",
"73 714 LINE",
"301 358 LINE",
"22 0 LINE",
"273 0 LINE",
"414 181 LINE",
"530 0 LINE",
"777 0 LINE"
);
}
);
width = 836;
},
{
layerId = "2B8C56A3-DCBD-4946-B3F7-595679620A89";
paths = (
{
closed = 1;
nodes = (
"584 356 LINE",
"872 714 LINE",
"598 714 LINE",
"459 542 LINE",
"345 714 LINE",
"73 714 LINE",
"311 358 LINE",
"22 0 LINE",
"297 0 LINE",
"436 172 LINE",
"550 0 LINE",
"821 0 LINE"
);
}
);
width = 880;
}
);
leftKerningGroup = X;
leftMetricsKey = X;
rightKerningGroup = X;
rightMetricsKey = X;
unicode = A7B3;
},
{
glyphname = Cstroke;
lastChange = "2026-04-25 22:24:55 +0000";
layers = (
{
layerId = "FD4D3FDD-DE85-408F-A52A-FF600B1C6101";
paths = (
{
closed = 1;
nodes = (
"560 217 LINE",
"540 108 OFFCURVE",
"452 35 OFFCURVE",
"340 35 CURVE SMOOTH",
"297 35 OFFCURVE",
"258 46 OFFCURVE",
"225 66 CURVE",
"491 653 LINE",
"547 622 OFFCURVE",
"583 567 OFFCURVE",
"587 497 CURVE",
"637 495 LINE",
"634 588 OFFCURVE",
"587 661 OFFCURVE",
"511 698 CURVE",
"545 772 LINE",
"494 772 LINE",
"468 714 LINE",
"442 722 OFFCURVE",
"413 726 OFFCURVE",
"382 726 CURVE SMOOTH",
"186 726 OFFCURVE",
"56 562 OFFCURVE",
"56 317 CURVE SMOOTH",
"56 198 OFFCURVE",
"97 103 OFFCURVE",
"166 46 CURVE",
"121 -53 LINE",
"171 -53 LINE",
"204 20 LINE",
"243 -1 OFFCURVE",
"289 -13 OFFCURVE",
"339 -13 CURVE SMOOTH",
"480 -13 OFFCURVE",
"588 78 OFFCURVE",
"610 215 CURVE"
);
},
{
closed = 1;
nodes = (
"107 534 OFFCURVE",
"217 678 OFFCURVE",
"381 678 CURVE SMOOTH",
"405 678 OFFCURVE",
"427 675 OFFCURVE",
"448 670 CURVE",
"188 95 LINE",
"137 144 OFFCURVE",
"107 222 OFFCURVE",
"107 318 CURVE SMOOTH"
);
}
);
width = 671;
},
{
layerId = m002;
paths = (
{
closed = 1;
nodes = (
"544 288 LINE",
"529 204 OFFCURVE",
"476 155 OFFCURVE",
"403 155 CURVE SMOOTH",
"382 155 OFFCURVE",
"363 159 OFFCURVE",
"346 166 CURVE",
"513 535 LINE",
"541 513 OFFCURVE",
"558 477 OFFCURVE",
"562 428 CURVE",
"781 424 LINE",
"776 562 OFFCURVE",
"707 659 OFFCURVE",
"588 701 CURVE",
"620 772 LINE",
"569 772 LINE",
"543 714 LINE",
"509 722 OFFCURVE",
"473 726 OFFCURVE",
"433 726 CURVE SMOOTH",
"190 726 OFFCURVE",
"46 576 OFFCURVE",
"46 322 CURVE SMOOTH",
"46 173 OFFCURVE",
"111 68 OFFCURVE",
"227 19 CURVE",
"195 -53 LINE",
"247 -53 LINE",
"272 3 LINE",
"311 -8 OFFCURVE",
"353 -13 OFFCURVE",
"400 -13 CURVE SMOOTH",
"598 -13 OFFCURVE",
"733 97 OFFCURVE",
"764 284 CURVE"
);
},
{
closed = 1;
nodes = (
"265 472 OFFCURVE",
"330 558 OFFCURVE",
"440 558 CURVE SMOOTH",
"451 558 OFFCURVE",
"461 557 OFFCURVE",
"471 555 CURVE",
"307 194 LINE",
"280 224 OFFCURVE",
"265 269 OFFCURVE",
"265 327 CURVE SMOOTH"
);
}
);
width = 810;
},
{
layerId = "2AA43DF3-F741-4269-8311-3A3BEA5B2F2C";
paths = (
{
closed = 1;
nodes = (
"709 218 LINE",
"689 108 OFFCURVE",
"570 35 OFFCURVE",
"411 35 CURVE SMOOTH",
"364 35 OFFCURVE",
"320 43 OFFCURVE",
"282 57 CURVE",
"600 656 LINE",
"681 626 OFFCURVE",
"732 570 OFFCURVE",
"737 498 CURVE",
"786 494 LINE",
"783 588 OFFCURVE",
"722 660 OFFCURVE",
"623 698 CURVE",
"662 772 LINE",
"611 772 LINE",
"579 711 LINE",
"541 721 OFFCURVE",
"499 726 OFFCURVE",
"453 726 CURVE SMOOTH",
"215 726 OFFCURVE",
"56 567 OFFCURVE",
"56 328 CURVE SMOOTH",
"56 195 OFFCURVE",
"117 91 OFFCURVE",
"218 34 CURVE",
"172 -53 LINE",
"224 -53 LINE",
"260 15 LINE",
"306 -3 OFFCURVE",
"358 -13 OFFCURVE",
"416 -13 CURVE SMOOTH",
"600 -13 OFFCURVE",
"737 78 OFFCURVE",
"759 214 CURVE"
);
},
{
closed = 1;
nodes = (
"105 537 OFFCURVE",
"247 678 OFFCURVE",
"459 678 CURVE SMOOTH",
"494 678 OFFCURVE",
"526 675 OFFCURVE",
"556 668 CURVE",
"241 76 LINE",
"156 125 OFFCURVE",
"105 213 OFFCURVE",
"105 325 CURVE SMOOTH"
);
}
);
width = 820;
},
{
layerId = "2B8C56A3-DCBD-4946-B3F7-595679620A89";
paths = (
{
closed = 1;
nodes = (
"634 288 LINE",
"619 208 OFFCURVE",
"544 155 OFFCURVE",
"448 155 CURVE SMOOTH",
"424 155 OFFCURVE",
"401 159 OFFCURVE",
"381 165 CURVE",
"576 538 LINE",
"620 516 OFFCURVE",
"648 477 OFFCURVE",
"652 428 CURVE",
"871 424 LINE",
"867 552 OFFCURVE",
"787 650 OFFCURVE",
"659 696 CURVE",
"699 772 LINE",
"648 772 LINE",
"615 710 LINE",
"573 720 OFFCURVE",
"527 726 OFFCURVE",
"478 726 CURVE SMOOTH",
"219 726 OFFCURVE",
"46 568 OFFCURVE",
"46 331 CURVE SMOOTH",
"46 187 OFFCURVE",
"124 76 OFFCURVE",
"254 22 CURVE",
"214 -53 LINE",
"266 -53 LINE",
"297 7 LINE",
"342 -6 OFFCURVE",
"392 -13 OFFCURVE",
"445 -13 CURVE SMOOTH",
"661 -13 OFFCURVE",
"824 106 OFFCURVE",
"854 284 CURVE"
);
},
{
closed = 1;
nodes = (
"265 468 OFFCURVE",
"353 558 OFFCURVE",
"485 558 CURVE SMOOTH",
"502 558 OFFCURVE",
"518 556 OFFCURVE",
"533 553 CURVE",
"339 185 LINE",
"293 216 OFFCURVE",
"265 268 OFFCURVE",
"265 334 CURVE SMOOTH"
);
}
);
width = 900;
}
);
leftKerningGroup = O;
leftMetricsKey = C;
rightKerningGroup = O;
rightMetricsKey = C;
unicode = 023B;
},
{
glyphname = D;
lastChange = "2026-04-25 18:55:43 +0000";
layers = (
{
anchors = (
{
name = Bottom;
position = "{270, 0}";
},
{
name = Top;
position = "{316, 714}";
}
);
layerId = "FD4D3FDD-DE85-408F-A52A-FF600B1C6101";
paths = (
{
closed = 1;
nodes = (
"266 0 LINE SMOOTH",
"474 0 OFFCURVE",
"612 157 OFFCURVE",
"612 392 CURVE SMOOTH",
"612 585 OFFCURVE",
"493 714 OFFCURVE",
"315 714 CURVE SMOOTH",
"92 714 LINE",
"42 0 LINE"
);
},
{
closed = 1;
nodes = (
"138 666 LINE",
"313 666 LINE SMOOTH",
"462 666 OFFCURVE",
"562 555 OFFCURVE",
"562 389 CURVE SMOOTH",
"562 184 OFFCURVE",
"444 48 OFFCURVE",
"268 48 CURVE SMOOTH",
"95 48 LINE"
);
}
);
width = 654;
},
{
anchors = (
{
name = Bottom;
position = "{370, 0}";
},
{
name = Top;
position = "{416, 714}";
}
);
layerId = m002;
paths = (
{
closed = 1;
nodes = (
"358 0 LINE SMOOTH",
"611 0 OFFCURVE",
"761 144 OFFCURVE",
"761 388 CURVE SMOOTH",
"761 593 OFFCURVE",
"628 714 OFFCURVE",
"403 714 CURVE SMOOTH",
"92 714 LINE",
"42 0 LINE"
);
},
{
closed = 1;
nodes = (
"290 546 LINE",
"396 546 LINE SMOOTH",
"488 546 OFFCURVE",
"542 486 OFFCURVE",
"542 384 CURVE SMOOTH",
"542 248 OFFCURVE",
"476 168 OFFCURVE",
"365 168 CURVE SMOOTH",
"263 168 LINE"
);
}
);
width = 793;
},
{
anchors = (
{
name = Bottom;
position = "{320, 0}";
},
{
name = Top;
position = "{366, 714}";
}
);
layerId = "2AA43DF3-F741-4269-8311-3A3BEA5B2F2C";
paths = (
{
closed = 1;
nodes = (
"366 0 LINE SMOOTH",
"570 0 OFFCURVE",
"716 142 OFFCURVE",
"731 356 CURVE SMOOTH",
"746 570 OFFCURVE",
"619 714 OFFCURVE",
"415 714 CURVE SMOOTH",
"92 714 LINE",
"42 0 LINE"
);
},
{
closed = 1;
nodes = (
"139 666 LINE",
"413 666 LINE SMOOTH",
"587 666 OFFCURVE",
"694 543 OFFCURVE",
"681 357 CURVE SMOOTH",
"668 172 OFFCURVE",
"542 48 OFFCURVE",
"368 48 CURVE SMOOTH",
"95 48 LINE"
);
}
);
width = 774;
},
{
anchors = (
{
name = Bottom;
position = "{380, 0}";
},
{
name = Top;
position = "{426, 714}";
}
);
layerId = "2B8C56A3-DCBD-4946-B3F7-595679620A89";
paths = (
{
closed = 1;
nodes = (
"458 0 LINE SMOOTH",
"692 0 OFFCURVE",
"855 141 OFFCURVE",
"870 352 CURVE SMOOTH",
"885 569 OFFCURVE",
"737 714 OFFCURVE",
"503 714 CURVE SMOOTH",
"92 714 LINE",
"42 0 LINE"
);
},
{
closed = 1;
nodes = (
"290 546 LINE",
"496 546 LINE SMOOTH",
"598 546 OFFCURVE",
"659 472 OFFCURVE",
"651 361 CURVE SMOOTH",
"643 245 OFFCURVE",
"567 168 OFFCURVE",
"465 168 CURVE SMOOTH",
"264 168 LINE"
);
}
);
width = 904;
}
);
leftKerningGroup = H;
leftMetricsKey = N;
rightKerningGroup = O;
rightMetricsKey = O;
unicode = 0044;
},
{
glyphname = Dhook;
lastChange = "2026-04-25 18:55:43 +0000";
layers = (
{
layerId = "FD4D3FDD-DE85-408F-A52A-FF600B1C6101";
paths = (
{
closed = 1;
nodes = (
"361 0 LINE SMOOTH",
"569 0 OFFCURVE",
"707 157 OFFCURVE",
"707 392 CURVE SMOOTH",
"707 585 OFFCURVE",
"588 714 OFFCURVE",
"410 714 CURVE SMOOTH",
"187 714 LINE",
"137 0 LINE"
);
},
{
closed = 1;
nodes = (
"233 666 LINE",
"408 666 LINE SMOOTH",
"557 666 OFFCURVE",
"657 555 OFFCURVE",
"657 389 CURVE SMOOTH",
"657 184 OFFCURVE",
"539 48 OFFCURVE",
"363 48 CURVE SMOOTH",
"190 48 LINE"
);
},
{
closed = 1;
nodes = (
"181 714 LINE SMOOTH",
"106 714 OFFCURVE",
"59 675 OFFCURVE",
"54 608 CURVE SMOOTH",
"53 595 OFFCURVE",
"53 581 OFFCURVE",
"53 568 CURVE",
"99 568 LINE",
"98 576 OFFCURVE",
"98 589 OFFCURVE",
"99 603 CURVE SMOOTH",
"102 643 OFFCURVE",
"130 666 OFFCURVE",
"177 666 CURVE SMOOTH",
"189 666 LINE",
"187 714 LINE"
);
}
);
width = 749;
},
{
layerId = "2AA43DF3-F741-4269-8311-3A3BEA5B2F2C";
paths = (
{
closed = 1;
nodes = (
"461 0 LINE SMOOTH",
"665 0 OFFCURVE",
"811 142 OFFCURVE",
"826 356 CURVE SMOOTH",
"841 570 OFFCURVE",
"714 714 OFFCURVE",
"510 714 CURVE SMOOTH",
"187 714 LINE",
"137 0 LINE"
);
},
{
closed = 1;
nodes = (
"234 666 LINE",
"508 666 LINE SMOOTH",
"682 666 OFFCURVE",
"789 543 OFFCURVE",
"776 357 CURVE SMOOTH",
"763 172 OFFCURVE",
"637 48 OFFCURVE",
"463 48 CURVE SMOOTH",
"190 48 LINE"
);
},
{
closed = 1;
nodes = (
"181 714 LINE SMOOTH",
"106 714 OFFCURVE",
"59 675 OFFCURVE",
"54 608 CURVE SMOOTH",
"53 595 OFFCURVE",
"53 581 OFFCURVE",
"53 568 CURVE",
"99 568 LINE",
"98 576 OFFCURVE",
"98 589 OFFCURVE",
"99 603 CURVE SMOOTH",
"102 643 OFFCURVE",
"130 666 OFFCURVE",
"177 666 CURVE SMOOTH",
"189 666 LINE",
"187 714 LINE"
);
}
);
width = 869;
},
{
layerId = m002;
paths = (
{
closed = 1;
nodes = (
"546 0 LINE SMOOTH",
"799 0 OFFCURVE",
"949 144 OFFCURVE",
"949 388 CURVE SMOOTH",
"949 593 OFFCURVE",
"816 714 OFFCURVE",
"591 714 CURVE SMOOTH",
"280 714 LINE",
"230 0 LINE"
);
},
{
closed = 1;
nodes = (
"478 546 LINE",
"584 546 LINE SMOOTH",
"676 546 OFFCURVE",
"730 486 OFFCURVE",
"730 384 CURVE SMOOTH",
"730 248 OFFCURVE",
"664 168 OFFCURVE",
"553 168 CURVE SMOOTH",
"451 168 LINE"
);
},
{
closed = 1;
nodes = (
"277 714 LINE SMOOTH",
"136 714 OFFCURVE",
"55 623 OFFCURVE",
"45 471 CURVE SMOOTH",
"43 450 OFFCURVE",
"43 432 OFFCURVE",
"44 423 CURVE",
"194 423 LINE",
"192 438 OFFCURVE",
"192 451 OFFCURVE",
"193 459 CURVE SMOOTH",
"195 495 OFFCURVE",
"222 516 OFFCURVE",
"264 516 CURVE SMOOTH",
"266 516 LINE",
"280 714 LINE"
);
}
);
width = 981;
},
{
layerId = "2B8C56A3-DCBD-4946-B3F7-595679620A89";
paths = (
{
closed = 1;
nodes = (
"629 0 LINE SMOOTH",
"863 0 OFFCURVE",
"1026 141 OFFCURVE",
"1041 352 CURVE SMOOTH",
"1056 569 OFFCURVE",
"908 714 OFFCURVE",
"674 714 CURVE SMOOTH",
"263 714 LINE",
"213 0 LINE"
);
},
{
closed = 1;
nodes = (
"461 546 LINE",
"667 546 LINE SMOOTH",
"769 546 OFFCURVE",
"830 472 OFFCURVE",
"822 361 CURVE SMOOTH",
"814 245 OFFCURVE",
"738 168 OFFCURVE",
"636 168 CURVE SMOOTH",
"435 168 LINE"
);
},
{
closed = 1;
nodes = (
"260 714 LINE SMOOTH",
"136 714 OFFCURVE",
"57 644 OFFCURVE",
"49 528 CURVE SMOOTH",
"46 498 OFFCURVE",
"45 468 OFFCURVE",
"45 448 CURVE",
"195 448 LINE",
"195 462 OFFCURVE",
"195 476 OFFCURVE",
"196 486 CURVE SMOOTH",
"197 505 OFFCURVE",
"216 516 OFFCURVE",
"247 516 CURVE SMOOTH",
"253 516 LINE",
"263 714 LINE"
);
}
);
width = 1075;
}
);
leftKerningGroup = T;
leftMetricsKey = T;
rightKerningGroup = O;
rightMetricsKey = O;
unicode = 018A;
},
{
glyphname = Eth;
lastChange = "2026-04-25 18:55:43 +0000";
layers = (
{
layerId = "FD4D3FDD-DE85-408F-A52A-FF600B1C6101";
paths = (
{
closed = 1;
nodes = (
"318 0 LINE SMOOTH",
"526 0 OFFCURVE",
"664 157 OFFCURVE",
"664 392 CURVE SMOOTH",
"664 585 OFFCURVE",
"545 714 OFFCURVE",
"367 714 CURVE SMOOTH",
"144 714 LINE",
"121 381 LINE",
"70 386 LINE",
"66 341 LINE",
"118 341 LINE",
"94 0 LINE"
);
},
{
closed = 1;
nodes = (
"168 341 LINE",
"267 341 LINE",
"270 383 LINE",
"171 383 LINE",
"191 666 LINE",
"365 666 LINE SMOOTH",
"514 666 OFFCURVE",
"614 555 OFFCURVE",
"614 389 CURVE SMOOTH",
"614 184 OFFCURVE",
"496 48 OFFCURVE",
"320 48 CURVE SMOOTH",
"147 48 LINE"
);
}
);
width = 706;
},
{
layerId = m002;
paths = (
{
closed = 1;
nodes = (
"405 0 LINE SMOOTH",
"658 0 OFFCURVE",
"808 144 OFFCURVE",
"808 388 CURVE SMOOTH",
"808 593 OFFCURVE",
"675 714 OFFCURVE",
"450 714 CURVE SMOOTH",
"139 714 LINE",
"118 417 LINE",
"71 422 LINE",
"63 299 LINE",
"110 299 LINE",
"89 0 LINE"
);
},
{
closed = 1;
nodes = (
"320 299 LINE",
"427 299 LINE",
"435 419 LINE",
"328 419 LINE",
"337 546 LINE",
"443 546 LINE SMOOTH",
"535 546 OFFCURVE",
"589 486 OFFCURVE",
"589 384 CURVE SMOOTH",
"589 248 OFFCURVE",
"523 168 OFFCURVE",
"412 168 CURVE SMOOTH",
"311 168 LINE"
);
}
);
width = 840;
},
{
layerId = "2AA43DF3-F741-4269-8311-3A3BEA5B2F2C";
paths = (
{
closed = 1;
nodes = (
"417 0 LINE SMOOTH",
"637 0 OFFCURVE",
"783 156 OFFCURVE",
"783 390 CURVE SMOOTH",
"783 584 OFFCURVE",
"656 714 OFFCURVE",
"466 714 CURVE SMOOTH",
"143 714 LINE",
"120 381 LINE",
"70 386 LINE",
"66 341 LINE",
"117 341 LINE",
"93 0 LINE"
);
},
{
closed = 1;
nodes = (
"167 341 LINE",
"267 341 LINE",
"270 383 LINE",
"170 383 LINE",
"190 666 LINE",
"464 666 LINE SMOOTH",
"625 666 OFFCURVE",
"733 554 OFFCURVE",
"733 387 CURVE SMOOTH",
"733 184 OFFCURVE",
"607 48 OFFCURVE",
"419 48 CURVE SMOOTH",
"146 48 LINE"
);
}
);
width = 825;
},
{
layerId = "2B8C56A3-DCBD-4946-B3F7-595679620A89";
paths = (
{
closed = 1;
nodes = (
"505 0 LINE SMOOTH",
"753 0 OFFCURVE",
"918 153 OFFCURVE",
"918 382 CURVE SMOOTH",
"918 581 OFFCURVE",
"771 714 OFFCURVE",
"550 714 CURVE SMOOTH",
"139 714 LINE",
"118 417 LINE",
"71 422 LINE",
"63 299 LINE",
"110 299 LINE",
"89 0 LINE"
);
},
{
closed = 1;
nodes = (
"320 299 LINE",
"427 299 LINE",
"435 419 LINE",
"328 419 LINE",
"337 546 LINE",
"543 546 LINE SMOOTH",
"637 546 OFFCURVE",
"699 480 OFFCURVE",
"699 380 CURVE SMOOTH",
"699 253 OFFCURVE",
"624 168 OFFCURVE",
"512 168 CURVE SMOOTH",
"311 168 LINE"
);
}
);
width = 951;
}
);
leftKerningGroup = H;
leftMetricsKey = D;
rightKerningGroup = O;
rightMetricsKey = D;
unicode = 00D0;
},
{
glyphname = E;
lastChange = "2026-04-25 18:55:43 +0000";
layers = (
{
anchors = (
{
name = Bottom;
position = "{397, 0}";
},
{
name = Dot;
position = "{261, 0}";
},
{
name = Greek;
position = "{-67, 558}";
},
{
name = Top;
position = "{285, 714}";
}
);
layerId = "FD4D3FDD-DE85-408F-A52A-FF600B1C6101";
paths = (
{
closed = 1;
nodes = (
"119 392 LINE",
"138 666 LINE",
"479 666 LINE",
"483 714 LINE",
"92 714 LINE",
"42 0 LINE",
"433 0 LINE",
"436 48 LINE",
"95 48 LINE",
"116 344 LINE",
"436 344 LINE",
"439 392 LINE"
);
}
);
width = 501;
},
{
anchors = (
{
name = Bottom;
position = "{486, 0}";
},
{
name = Dot;
position = "{316, 0}";
},
{
name = Greek;
position = "{-102, 558}";
},
{
name = Top;
position = "{345, 714}";
}
);
layerId = m002;
paths = (
{
closed = 1;
nodes = (
"283 452 LINE",
"290 546 LINE",
"596 546 LINE",
"608 714 LINE",
"92 714 LINE",
"42 0 LINE",
"558 0 LINE",
"569 168 LINE",
"263 168 LINE",
"271 284 LINE",
"556 284 LINE",
"568 452 LINE"
);
}
);
width = 616;
},
{
anchors = (
{
name = Bottom;
position = "{547, 0}";
},
{
name = Dot;
position = "{311, 0}";
},
{
name = Greek;
position = "{-67, 558}";
},
{
name = Top;
position = "{365, 714}";
}
);
layerId = "2AA43DF3-F741-4269-8311-3A3BEA5B2F2C";
paths = (
{
closed = 1;
nodes = (
"119 392 LINE",
"139 666 LINE",
"629 666 LINE",
"633 714 LINE",
"92 714 LINE",
"42 0 LINE",
"583 0 LINE",
"586 48 LINE",
"95 48 LINE",
"116 344 LINE",
"586 344 LINE",
"589 392 LINE"
);
}
);
width = 651;
},
{
anchors = (
{
name = Bottom;
position = "{626, 0}";
},
{
name = Dot;
position = "{416, 0}";
},
{
name = Greek;
position = "{-112, 558}";
},
{
name = Top;
position = "{445, 714}";
}
);
layerId = "2B8C56A3-DCBD-4946-B3F7-595679620A89";
paths = (
{
closed = 1;
nodes = (
"284 452 LINE",
"290 546 LINE",
"736 546 LINE",
"748 714 LINE",
"92 714 LINE",
"42 0 LINE",
"698 0 LINE",
"709 168 LINE",
"264 168 LINE",
"272 284 LINE",
"696 284 LINE",
"708 452 LINE"
);
}
);
width = 756;
}
);
leftKerningGroup = H;
leftMetricsKey = N;
rightKerningGroup = E;
unicode = 0045;
},
{
glyphname = Eopen;
lastChange = "2026-04-25 18:55:43 +0000";
layers = (
{
layerId = "FD4D3FDD-DE85-408F-A52A-FF600B1C6101";
paths = (
{
closed = 1;
nodes = (
"106 280 OFFCURVE",
"191 348 OFFCURVE",
"319 348 CURVE SMOOTH",
"385 348 LINE",
"388 396 LINE",
"321 396 LINE SMOOTH",
"220 396 OFFCURVE",
"153 449 OFFCURVE",
"153 528 CURVE SMOOTH",
"153 619 OFFCURVE",
"234 680 OFFCURVE",
"356 680 CURVE SMOOTH",
"398 680 OFFCURVE",
"444 672 OFFCURVE",
"470 659 CURVE",
"472 704 LINE",
"445 717 OFFCURVE",
"396 726 OFFCURVE",
"350 726 CURVE SMOOTH",
"210 726 OFFCURVE",
"111 652 OFFCURVE",
"103 541 CURVE SMOOTH",
"98 468 OFFCURVE",
"146 401 OFFCURVE",
"224 373 CURVE",
"224 371 LINE",
"123 353 OFFCURVE",
"55 275 OFFCURVE",
"55 176 CURVE SMOOTH",
"55 63 OFFCURVE",
"152 -13 OFFCURVE",
"298 -13 CURVE SMOOTH",
"350 -13 OFFCURVE",
"400 -4 OFFCURVE",
"422 9 CURVE",
"424 54 LINE",
"400 41 OFFCURVE",
"353 33 OFFCURVE",
"306 33 CURVE SMOOTH",
"186 33 OFFCURVE",
"106 91 OFFCURVE",
"106 178 CURVE SMOOTH"
);
}
);
width = 492;
},
{
layerId = m002;
paths = (
{
closed = 1;
nodes = (
"258 277 OFFCURVE",
"301 307 OFFCURVE",
"374 307 CURVE SMOOTH",
"452 307 LINE",
"461 437 LINE",
"376 437 LINE SMOOTH",
"328 437 OFFCURVE",
"299 453 OFFCURVE",
"299 481 CURVE SMOOTH",
"299 531 OFFCURVE",
"351 561 OFFCURVE",
"439 561 CURVE SMOOTH",
"480 561 OFFCURVE",
"519 550 OFFCURVE",
"543 532 CURVE",
"550 693 LINE",
"510 714 OFFCURVE",
"453 726 OFFCURVE",
"395 726 CURVE SMOOTH",
"219 726 OFFCURVE",
"110 650 OFFCURVE",
"101 522 CURVE SMOOTH",
"96 456 OFFCURVE",
"125 401 OFFCURVE",
"179 374 CURVE",
"179 372 LINE",
"102 345 OFFCURVE",
"56 281 OFFCURVE",
"56 201 CURVE SMOOTH",
"56 66 OFFCURVE",
"176 -13 OFFCURVE",
"379 -13 CURVE SMOOTH",
"424 -13 OFFCURVE",
"475 -5 OFFCURVE",
"516 8 CURVE",
"524 178 LINE",
"489 164 OFFCURVE",
"442 155 OFFCURVE",
"397 155 CURVE SMOOTH",
"310 155 OFFCURVE",
"258 181 OFFCURVE",
"258 225 CURVE SMOOTH"
);
}
);
width = 574;
},
{
layerId = "2AA43DF3-F741-4269-8311-3A3BEA5B2F2C";
paths = (
{
closed = 1;
nodes = (
"105 281 OFFCURVE",
"206 348 OFFCURVE",
"358 348 CURVE SMOOTH",
"444 348 LINE",
"447 396 LINE",
"360 396 LINE SMOOTH",
"235 396 OFFCURVE",
"152 450 OFFCURVE",
"152 530 CURVE SMOOTH",
"152 620 OFFCURVE",
"253 680 OFFCURVE",
"405 680 CURVE SMOOTH",
"481 680 OFFCURVE",
"547 672 OFFCURVE",
"569 659 CURVE",
"571 704 LINE",
"544 717 OFFCURVE",
"475 726 OFFCURVE",
"399 726 CURVE SMOOTH",
"221 726 OFFCURVE",
"102 648 OFFCURVE",
"102 531 CURVE SMOOTH",
"102 463 OFFCURVE",
"150 400 OFFCURVE",
"223 373 CURVE",
"223 371 LINE",
"122 353 OFFCURVE",
"55 276 OFFCURVE",
"55 178 CURVE SMOOTH",
"55 63 OFFCURVE",
"172 -13 OFFCURVE",
"347 -13 CURVE SMOOTH",
"429 -13 OFFCURVE",
"499 -4 OFFCURVE",
"521 9 CURVE",
"523 54 LINE",
"501 41 OFFCURVE",
"434 33 OFFCURVE",
"355 33 CURVE SMOOTH",
"205 33 OFFCURVE",
"105 92 OFFCURVE",
"105 180 CURVE SMOOTH"
);
}
);
width = 591;
},
{
layerId = "2B8C56A3-DCBD-4946-B3F7-595679620A89";
paths = (
{
closed = 1;
nodes = (
"258 275 OFFCURVE",
"320 307 OFFCURVE",
"414 307 CURVE SMOOTH",
"492 307 LINE",
"501 437 LINE",
"416 437 LINE SMOOTH",
"346 437 OFFCURVE",
"299 455 OFFCURVE",
"299 482 CURVE SMOOTH",
"299 529 OFFCURVE",
"367 561 OFFCURVE",
"469 561 CURVE SMOOTH",
"513 561 OFFCURVE",
"563 549 OFFCURVE",
"593 532 CURVE",
"600 693 LINE",
"562 713 OFFCURVE",
"496 726 OFFCURVE",
"434 726 CURVE SMOOTH",
"234 726 OFFCURVE",
"100 639 OFFCURVE",
"100 508 CURVE SMOOTH",
"100 450 OFFCURVE",
"132 397 OFFCURVE",
"179 374 CURVE",
"179 372 LINE",
"105 345 OFFCURVE",
"56 278 OFFCURVE",
"56 203 CURVE SMOOTH",
"56 73 OFFCURVE",
"201 -13 OFFCURVE",
"419 -13 CURVE SMOOTH",
"467 -13 OFFCURVE",
"526 -5 OFFCURVE",
"566 8 CURVE",
"574 178 LINE",
"540 164 OFFCURVE",
"482 155 OFFCURVE",
"427 155 CURVE SMOOTH",
"326 155 OFFCURVE",
"258 183 OFFCURVE",
"258 226 CURVE SMOOTH"
);
}
);
width = 624;
}
);
leftKerningGroup = O;
leftMetricsKey = E;
rightKerningGroup = E;
rightMetricsKey = E;
unicode = 0190;
},
{
glyphname = Schwa;
lastChange = "2026-04-25 18:55:43 +0000";
layers = (
{
layerId = "FD4D3FDD-DE85-408F-A52A-FF600B1C6101";
paths = (
{
closed = 1;
nodes = (
"124 491 LINE",
"155 603 OFFCURVE",
"254 678 OFFCURVE",
"371 678 CURVE SMOOTH",
"539 678 OFFCURVE",
"599 517 OFFCURVE",
"588 356 CURVE",
"58 356 LINE",
"56 339 LINE SMOOTH",
"31 129 OFFCURVE",
"141 -13 OFFCURVE",
"311 -13 CURVE SMOOTH",
"508 -13 OFFCURVE",
"640 153 OFFCURVE",
"640 403 CURVE SMOOTH",
"640 597 OFFCURVE",
"534 726 OFFCURVE",
"375 726 CURVE SMOOTH",
"230 726 OFFCURVE",
"110 633 OFFCURVE",
"74 493 CURVE"
);
},
{
closed = 1;
nodes = (
"583 308 LINE",
"556 141 OFFCURVE",
"458 35 OFFCURVE",
"320 35 CURVE SMOOTH",
"178 35 OFFCURVE",
"91 144 OFFCURVE",
"104 308 CURVE"
);
}
);
width = 682;
},
{
layerId = m002;
paths = (
{
closed = 1;
nodes = (
"265 450 LINE",
"283 518 OFFCURVE",
"339 558 OFFCURVE",
"417 558 CURVE SMOOTH",
"499 558 OFFCURVE",
"549 503 OFFCURVE",
"553 408 CURVE",
"54 408 LINE",
"49 330 LINE SMOOTH",
"42 114 OFFCURVE",
"169 -13 OFFCURVE",
"392 -13 CURVE SMOOTH",
"625 -13 OFFCURVE",
"763 139 OFFCURVE",
"763 397 CURVE SMOOTH",
"763 604 OFFCURVE",
"638 726 OFFCURVE",
"426 726 CURVE SMOOTH",
"235 726 OFFCURVE",
"97 625 OFFCURVE",
"54 454 CURVE"
);
},
{
closed = 1;
nodes = (
"530 258 LINE",
"504 192 OFFCURVE",
"455 155 OFFCURVE",
"388 155 CURVE SMOOTH",
"306 155 OFFCURVE",
"258 193 OFFCURVE",
"255 258 CURVE"
);
}
);
width = 795;
},
{
layerId = "2AA43DF3-F741-4269-8311-3A3BEA5B2F2C";
paths = (
{
closed = 1;
nodes = (
"124 491 LINE",
"155 603 OFFCURVE",
"290 678 OFFCURVE",
"461 678 CURVE SMOOTH",
"659 678 OFFCURVE",
"785 547 OFFCURVE",
"769 356 CURVE",
"58 356 LINE",
"56 339 LINE SMOOTH",
"31 129 OFFCURVE",
"180 -13 OFFCURVE",
"401 -13 CURVE SMOOTH",
"652 -13 OFFCURVE",
"820 150 OFFCURVE",
"820 394 CURVE SMOOTH",
"820 593 OFFCURVE",
"678 726 OFFCURVE",
"465 726 CURVE SMOOTH",
"266 726 OFFCURVE",
"110 633 OFFCURVE",
"74 493 CURVE"
);
},
{
closed = 1;
nodes = (
"762 308 LINE",
"729 141 OFFCURVE",
"596 35 OFFCURVE",
"410 35 CURVE SMOOTH",
"213 35 OFFCURVE",
"90 145 OFFCURVE",
"104 308 CURVE"
);
}
);
width = 862;
},
{
layerId = "2B8C56A3-DCBD-4946-B3F7-595679620A89";
paths = (
{
closed = 1;
nodes = (
"275 450 LINE",
"292 514 OFFCURVE",
"387 558 OFFCURVE",
"490 558 CURVE SMOOTH",
"600 558 OFFCURVE",
"671 505 OFFCURVE",
"671 409 CURVE",
"54 408 LINE",
"49 330 LINE SMOOTH",
"36 125 OFFCURVE",
"196 -13 OFFCURVE",
"452 -13 CURVE SMOOTH",
"695 -13 OFFCURVE",
"866 136 OFFCURVE",
"882 359 CURVE SMOOTH",
"897 579 OFFCURVE",
"737 726 OFFCURVE",
"486 726 CURVE SMOOTH",
"267 726 OFFCURVE",
"95 618 OFFCURVE",
"54 454 CURVE"
);
},
{
closed = 1;
nodes = (
"639 258 LINE",
"601 194 OFFCURVE",
"532 155 OFFCURVE",
"448 155 CURVE SMOOTH",
"342 155 OFFCURVE",
"272 194 OFFCURVE",
"265 258 CURVE"
);
}
);
width = 915;
}
);
leftKerningGroup = O;
leftMetricsKey = O;
rightKerningGroup = O;
rightMetricsKey = O;
unicode = 018F;
},
{
glyphname = Ezh;
lastChange = "2026-04-25 18:55:43 +0000";
layers = (
{
anchors = (
{
name = Top;
position = "{310, 714}";
}
);
layerId = "FD4D3FDD-DE85-408F-A52A-FF600B1C6101";
paths = (
{
closed = 1;
nodes = (
"100 666 LINE",
"449 666 LINE",
"269 469 LINE",
"266 421 LINE",
"302 421 LINE SMOOTH",
"394 421 OFFCURVE",
"455 353 OFFCURVE",
"455 252 CURVE SMOOTH",
"455 122 OFFCURVE",
"379 35 OFFCURVE",
"265 35 CURVE SMOOTH",
"157 35 OFFCURVE",
"89 103 OFFCURVE",
"96 205 CURVE",
"46 207 LINE",
"36 75 OFFCURVE",
"124 -13 OFFCURVE",
"264 -13 CURVE SMOOTH",
"409 -13 OFFCURVE",
"505 94 OFFCURVE",
"505 255 CURVE SMOOTH",
"505 375 OFFCURVE",
"433 460 OFFCURVE",
"325 468 CURVE",
"507 666 LINE",
"511 714 LINE",
"104 714 LINE"
);
}
);
width = 556;
},
{
anchors = (
{
name = Top;
position = "{360, 714}";
}
);
layerId = m002;
paths = (
{
closed = 1;
nodes = (
"83 564 LINE",
"372 564 LINE",
"289 479 LINE",
"280 329 LINE",
"329 329 LINE SMOOTH",
"364 329 OFFCURVE",
"387 299 OFFCURVE",
"387 253 CURVE SMOOTH",
"387 191 OFFCURVE",
"358 149 OFFCURVE",
"312 149 CURVE SMOOTH",
"270 149 OFFCURVE",
"242 179 OFFCURVE",
"245 224 CURVE",
"38 228 LINE",
"27 83 OFFCURVE",
"135 -13 OFFCURVE",
"307 -13 CURVE SMOOTH",
"480 -13 OFFCURVE",
"595 92 OFFCURVE",
"595 249 CURVE SMOOTH",
"595 340 OFFCURVE",
"545 422 OFFCURVE",
"470 453 CURVE",
"591 564 LINE",
"601 714 LINE",
"94 714 LINE"
);
}
);
width = 637;
},
{
anchors = (
{
name = Top;
position = "{365, 714}";
}
);
layerId = "2AA43DF3-F741-4269-8311-3A3BEA5B2F2C";
paths = (
{
closed = 1;
nodes = (
"100 666 LINE",
"579 666 LINE",
"339 469 LINE",
"336 421 LINE",
"372 421 LINE SMOOTH",
"513 421 OFFCURVE",
"602 345 OFFCURVE",
"594 230 CURVE SMOOTH",
"586 113 OFFCURVE",
"482 35 OFFCURVE",
"335 35 CURVE SMOOTH",
"185 35 OFFCURVE",
"89 103 OFFCURVE",
"96 205 CURVE",
"46 207 LINE",
"37 75 OFFCURVE",
"152 -13 OFFCURVE",
"333 -13 CURVE SMOOTH",
"509 -13 OFFCURVE",
"633 83 OFFCURVE",
"644 228 CURVE SMOOTH",
"653 362 OFFCURVE",
"556 458 OFFCURVE",
"402 468 CURVE",
"647 666 LINE",
"651 714 LINE",
"104 714 LINE"
);
}
);
width = 696;
},
{
anchors = (
{
name = Top;
position = "{415, 714}";
}
);
layerId = "2B8C56A3-DCBD-4946-B3F7-595679620A89";
paths = (
{
closed = 1;
nodes = (
"83 564 LINE",
"532 564 LINE",
"370 479 LINE",
"360 329 LINE",
"409 329 LINE SMOOTH",
"495 329 OFFCURVE",
"550 293 OFFCURVE",
"546 240 CURVE SMOOTH",
"543 185 OFFCURVE",
"481 149 OFFCURVE",
"392 149 CURVE SMOOTH",
"301 149 OFFCURVE",
"242 179 OFFCURVE",
"245 224 CURVE",
"38 228 LINE",
"28 83 OFFCURVE",
"171 -13 OFFCURVE",
"396 -13 CURVE SMOOTH",
"600 -13 OFFCURVE",
"743 86 OFFCURVE",
"754 235 CURVE SMOOTH",
"762 340 OFFCURVE",
"694 428 OFFCURVE",
"583 454 CURVE",
"750 564 LINE",
"761 714 LINE",
"94 714 LINE"
);
}
);
width = 796;
}
);
leftKerningGroup = three;
leftMetricsKey = O;
rightKerningGroup = O;
rightMetricsKey = O;
unicode = 01B7;
},
{
glyphname = F;
lastChange = "2026-04-25 18:55:43 +0000";
layers = (
{
anchors = (
{
name = Bottom;
position = "{265, 0}";
},
{
name = Top;
position = "{297, 714}";
}
);
layerId = "FD4D3FDD-DE85-408F-A52A-FF600B1C6101";
paths = (
{
closed = 1;
nodes = (
"138 666 LINE",
"482 666 LINE",
"486 714 LINE",
"92 714 LINE",
"42 0 LINE",
"92 0 LINE",
"116 344 LINE",
"437 344 LINE",
"440 392 LINE",
"119 392 LINE"
);
}
);
width = 504;
},
{
anchors = (
{
name = Bottom;
position = "{385, 0}";
},
{
name = Top;
position = "{377, 714}";
}
);
layerId = m002;
paths = (
{
closed = 1;
nodes = (
"290 546 LINE",
"595 546 LINE",
"607 714 LINE",
"92 714 LINE",
"42 0 LINE",
"252 0 LINE",
"271 275 LINE",
"553 275 LINE",
"565 443 LINE",
"283 443 LINE"
);
}
);
width = 615;
},
{
anchors = (
{
name = Bottom;
position = "{265, 0}";
},
{
name = Top;
position = "{357, 714}";
}
);
layerId = "2AA43DF3-F741-4269-8311-3A3BEA5B2F2C";
paths = (
{
closed = 1;
nodes = (
"139 666 LINE",
"629 666 LINE",
"633 714 LINE",
"92 714 LINE",
"42 0 LINE",
"92 0 LINE",
"116 344 LINE",
"586 344 LINE",
"589 392 LINE",
"119 392 LINE"
);
}
);
width = 651;
},
{
anchors = (
{
name = Bottom;
position = "{385, 0}";
},
{
name = Top;
position = "{377, 714}";
}
);
layerId = "2B8C56A3-DCBD-4946-B3F7-595679620A89";
paths = (
{
closed = 1;
nodes = (
"290 546 LINE",
"736 546 LINE",
"748 714 LINE",
"92 714 LINE",
"42 0 LINE",
"252 0 LINE",
"272 284 LINE",
"696 284 LINE",
"708 452 LINE",
"284 452 LINE"
);
}
);
width = 756;
}
);
leftKerningGroup = H;
leftMetricsKey = N;
rightKerningGroup = F;
unicode = 0046;
},
{
glyphname = G;
lastChange = "2026-04-25 18:55:43 +0000";
layers = (
{
anchors = (
{
name = Bottom;
position = "{352, 0}";
},
{
name = Top;
position = "{409, 726}";
}
);
layerId = "FD4D3FDD-DE85-408F-A52A-FF600B1C6101";
paths = (
{
closed = 1;
nodes = (
"377 327 LINE",
"373 279 LINE",
"578 279 LINE",
"567 135 LINE",
"527 74 OFFCURVE",
"444 35 OFFCURVE",
"353 35 CURVE SMOOTH",
"205 35 OFFCURVE",
"106 149 OFFCURVE",
"106 320 CURVE SMOOTH",
"106 535 OFFCURVE",
"226 678 OFFCURVE",
"407 678 CURVE SMOOTH",
"526 678 OFFCURVE",
"610 606 OFFCURVE",
"616 497 CURVE",
"666 495 LINE",
"662 634 OFFCURVE",
"559 726 OFFCURVE",
"408 726 CURVE SMOOTH",
"197 726 OFFCURVE",
"56 563 OFFCURVE",
"56 319 CURVE SMOOTH",
"56 120 OFFCURVE",
"174 -13 OFFCURVE",
"352 -13 CURVE SMOOTH",
"427 -13 OFFCURVE",
"510 13 OFFCURVE",
"560 52 CURVE",
"561 52 LINE",
"542 0 LINE",
"608 0 LINE",
"631 327 LINE"
);
}
);
width = 710;
},
{
anchors = (
{
name = Bottom;
position = "{408, 0}";
},
{
name = Top;
position = "{434, 726}";
}
);
layerId = m002;
paths = (
{
closed = 1;
nodes = (
"403 389 LINE",
"395 279 LINE",
"572 279 LINE",
"567 202 LINE",
"541 167 OFFCURVE",
"486 145 OFFCURVE",
"419 145 CURVE SMOOTH",
"323 145 OFFCURVE",
"266 212 OFFCURVE",
"266 326 CURVE SMOOTH",
"266 472 OFFCURVE",
"333 558 OFFCURVE",
"447 558 CURVE SMOOTH",
"516 558 OFFCURVE",
"559 525 OFFCURVE",
"562 468 CURVE",
"781 464 LINE",
"775 629 OFFCURVE",
"646 726 OFFCURVE",
"434 726 CURVE SMOOTH",
"190 726 OFFCURVE",
"46 575 OFFCURVE",
"46 320 CURVE SMOOTH",
"46 111 OFFCURVE",
"168 -13 OFFCURVE",
"375 -13 CURVE SMOOTH",
"449 -13 OFFCURVE",
"515 10 OFFCURVE",
"555 50 CURVE",
"558 50 LINE",
"526 0 LINE",
"735 0 LINE",
"762 389 LINE"
);
}
);
width = 827;
},
{
anchors = (
{
name = Bottom;
position = "{422, 0}";
},
{
name = Top;
position = "{479, 726}";
}
);
layerId = "2AA43DF3-F741-4269-8311-3A3BEA5B2F2C";
paths = (
{
closed = 1;
nodes = (
"447 327 LINE",
"443 279 LINE",
"718 279 LINE",
"707 136 LINE",
"663 75 OFFCURVE",
"553 35 OFFCURVE",
"423 35 CURVE SMOOTH",
"219 35 OFFCURVE",
"93 163 OFFCURVE",
"107 356 CURVE SMOOTH",
"120 549 OFFCURVE",
"268 678 OFFCURVE",
"477 678 CURVE SMOOTH",
"638 678 OFFCURVE",
"750 606 OFFCURVE",
"756 497 CURVE",
"806 495 LINE",
"802 634 OFFCURVE",
"671 726 OFFCURVE",
"478 726 CURVE SMOOTH",
"240 726 OFFCURVE",
"72 579 OFFCURVE",
"57 358 CURVE SMOOTH",
"41 135 OFFCURVE",
"187 -13 OFFCURVE",
"422 -13 CURVE SMOOTH",
"539 -13 OFFCURVE",
"650 13 OFFCURVE",
"700 52 CURVE",
"701 52 LINE",
"682 0 LINE",
"748 0 LINE",
"771 327 LINE"
);
}
);
width = 850;
},
{
anchors = (
{
name = Bottom;
position = "{451, 0}";
},
{
name = Top;
position = "{501, 726}";
}
);
layerId = "2B8C56A3-DCBD-4946-B3F7-595679620A89";
paths = (
{
closed = 1;
nodes = (
"492 389 LINE",
"483 259 LINE",
"660 259 LINE",
"656 215 LINE",
"620 167 OFFCURVE",
"547 135 OFFCURVE",
"473 135 CURVE SMOOTH",
"348 135 OFFCURVE",
"265 213 OFFCURVE",
"265 331 CURVE SMOOTH",
"265 467 OFFCURVE",
"355 558 OFFCURVE",
"491 558 CURVE SMOOTH",
"584 558 OFFCURVE",
"648 522 OFFCURVE",
"651 468 CURVE",
"870 464 LINE",
"864 621 OFFCURVE",
"707 726 OFFCURVE",
"478 726 CURVE SMOOTH",
"219 726 OFFCURVE",
"46 566 OFFCURVE",
"46 327 CURVE SMOOTH",
"46 123 OFFCURVE",
"209 -13 OFFCURVE",
"453 -13 CURVE SMOOTH",
"530 -13 OFFCURVE",
"606 12 OFFCURVE",
"644 50 CURVE",
"647 50 LINE",
"615 0 LINE",
"824 0 LINE",
"851 389 LINE"
);
}
);
width = 916;
}
);
leftKerningGroup = O;
leftMetricsKey = O;
rightKerningGroup = G;
rightMetricsKey = N;
unicode = 0047;
},
{
glyphname = Glottalstop;
lastChange = "2026-04-25 22:12:04 +0000";
layers = (
{
layerId = "FD4D3FDD-DE85-408F-A52A-FF600B1C6101";
paths = (
{
closed = 1;
nodes = (
"247 315 OFFCURVE",
"498 284 OFFCURVE",
"514 520 CURVE SMOOTH",
"523 644 OFFCURVE",
"441 726 OFFCURVE",
"310 726 CURVE SMOOTH",
"173 726 OFFCURVE",
"77 643 OFFCURVE",
"68 519 CURVE",
"118 521 LINE",
"125 615 OFFCURVE",
"200 678 OFFCURVE",
"307 678 CURVE SMOOTH",
"408 678 OFFCURVE",
"471 616 OFFCURVE",
"464 522 CURVE SMOOTH",
"450 316 OFFCURVE",
"198 340 OFFCURVE",
"175 0 CURVE",
"225 0 LINE"
);
}
);
width = 536;
},
{
layerId = m002;
paths = (
{
closed = 1;
nodes = (
"362 258 OFFCURVE",
"634 214 OFFCURVE",
"652 473 CURVE SMOOTH",
"663 632 OFFCURVE",
"558 726 OFFCURVE",
"370 726 CURVE SMOOTH",
"182 726 OFFCURVE",
"65 628 OFFCURVE",
"54 463 CURVE",
"274 467 LINE",
"278 524 OFFCURVE",
"310 558 OFFCURVE",
"359 558 CURVE SMOOTH",
"408 558 OFFCURVE",
"435 528 OFFCURVE",
"431 477 CURVE SMOOTH",
"419 305 OFFCURVE",
"156 321 OFFCURVE",
"134 0 CURVE",
"343 0 LINE"
);
}
);
width = 677;
},
{
layerId = "2AA43DF3-F741-4269-8311-3A3BEA5B2F2C";
paths = (
{
closed = 1;
nodes = (
"327 315 OFFCURVE",
"597 283 OFFCURVE",
"614 519 CURVE SMOOTH",
"623 643 OFFCURVE",
"522 726 OFFCURVE",
"361 726 CURVE SMOOTH",
"194 726 OFFCURVE",
"77 643 OFFCURVE",
"68 518 CURVE",
"118 522 LINE",
"125 616 OFFCURVE",
"220 678 OFFCURVE",
"357 678 CURVE SMOOTH",
"488 678 OFFCURVE",
"571 616 OFFCURVE",
"564 523 CURVE SMOOTH",
"550 317 OFFCURVE",
"279 340 OFFCURVE",
"255 0 CURVE",
"304 0 LINE"
);
}
);
width = 636;
},
{
layerId = "2B8C56A3-DCBD-4946-B3F7-595679620A89";
paths = (
{
closed = 1;
nodes = (
"422 258 OFFCURVE",
"714 214 OFFCURVE",
"732 473 CURVE SMOOTH",
"743 632 OFFCURVE",
"624 726 OFFCURVE",
"411 726 CURVE SMOOTH",
"198 726 OFFCURVE",
"65 628 OFFCURVE",
"54 463 CURVE",
"274 467 LINE",
"278 524 OFFCURVE",
"324 558 OFFCURVE",
"399 558 CURVE SMOOTH",
"473 558 OFFCURVE",
"515 528 OFFCURVE",
"511 477 CURVE SMOOTH",
"499 305 OFFCURVE",
"216 321 OFFCURVE",
"194 0 CURVE",
"403 0 LINE"
);
}
);
width = 757;
}
);
leftKerningGroup = O;
leftMetricsKey = O;
rightKerningGroup = P;
rightMetricsKey = P;
unicode = 0241;
},
{
glyphname = Gstroke;
lastChange = "2026-04-25 18:55:43 +0000";
layers = (
{
layerId = "FD4D3FDD-DE85-408F-A52A-FF600B1C6101";
paths = (
{
closed = 1;
nodes = (
"377 327 LINE",
"373 279 LINE",
"578 279 LINE",
"573 222 LINE",
"474 227 LINE",
"470 182 LINE",
"570 182 LINE",
"566 127 LINE",
"527 72 OFFCURVE",
"441 35 OFFCURVE",
"353 35 CURVE SMOOTH",
"205 35 OFFCURVE",
"106 149 OFFCURVE",
"106 320 CURVE SMOOTH",
"106 535 OFFCURVE",
"226 678 OFFCURVE",
"407 678 CURVE SMOOTH",
"526 678 OFFCURVE",
"610 606 OFFCURVE",
"616 497 CURVE",
"666 495 LINE",
"662 634 OFFCURVE",
"559 726 OFFCURVE",
"408 726 CURVE SMOOTH",
"197 726 OFFCURVE",
"56 563 OFFCURVE",
"56 319 CURVE SMOOTH",
"56 120 OFFCURVE",
"174 -13 OFFCURVE",
"352 -13 CURVE SMOOTH",
"427 -13 OFFCURVE",
"510 13 OFFCURVE",
"560 52 CURVE",
"561 52 LINE",
"542 0 LINE",
"608 0 LINE",
"621 182 LINE",
"670 182 LINE",
"673 224 LINE",
"624 224 LINE",
"631 327 LINE"
);
}
);
width = 736;
},
{
layerId = m002;
paths = (
{
closed = 1;
nodes = (
"403 389 LINE",
"392 239 LINE",
"570 239 LINE",
"570 229 LINE",
"468 234 LINE",
"463 161 LINE",
"513 161 LINE",
"513 159 LINE",
"490 151 OFFCURVE",
"453 145 OFFCURVE",
"422 145 CURVE SMOOTH",
"328 145 OFFCURVE",
"266 217 OFFCURVE",
"266 326 CURVE SMOOTH",
"266 465 OFFCURVE",
"338 558 OFFCURVE",
"447 558 CURVE SMOOTH",
"513 558 OFFCURVE",
"559 522 OFFCURVE",
"562 468 CURVE",
"781 464 LINE",
"775 621 OFFCURVE",
"636 726 OFFCURVE",
"434 726 CURVE SMOOTH",
"201 726 OFFCURVE",
"46 564 OFFCURVE",
"46 320 CURVE SMOOTH",
"46 120 OFFCURVE",
"178 -13 OFFCURVE",
"375 -13 CURVE SMOOTH",
"445 -13 OFFCURVE",
"517 12 OFFCURVE",
"555 50 CURVE",
"560 52 LINE",
"526 0 LINE",
"735 0 LINE",
"746 161 LINE",
"794 161 LINE",
"799 231 LINE",
"751 231 LINE",
"762 389 LINE"
);
}
);
width = 861;
},
{
layerId = "2AA43DF3-F741-4269-8311-3A3BEA5B2F2C";
paths = (
{
closed = 1;
nodes = (
"447 327 LINE",
"443 279 LINE",
"717 279 LINE",
"713 222 LINE",
"614 227 LINE",
"610 182 LINE",
"710 182 LINE",
"706 128 LINE",
"656 72 OFFCURVE",
"542 35 OFFCURVE",
"420 35 CURVE SMOOTH",
"231 35 OFFCURVE",
"105 151 OFFCURVE",
"105 325 CURVE SMOOTH",
"105 537 OFFCURVE",
"255 678 OFFCURVE",
"481 678 CURVE SMOOTH",
"640 678 OFFCURVE",
"750 606 OFFCURVE",
"757 498 CURVE",
"806 494 LINE",
"802 633 OFFCURVE",
"670 726 OFFCURVE",
"475 726 CURVE SMOOTH",
"224 726 OFFCURVE",
"56 567 OFFCURVE",
"56 329 CURVE SMOOTH",
"56 124 OFFCURVE",
"204 -13 OFFCURVE",
"425 -13 CURVE SMOOTH",
"534 -13 OFFCURVE",
"644 14 OFFCURVE",
"698 55 CURVE",
"700 54 LINE",
"682 0 LINE",
"748 0 LINE",
"761 182 LINE",
"810 182 LINE",
"813 224 LINE",
"764 224 LINE",
"771 327 LINE"
);
}
);
width = 876;
},
{
layerId = "2B8C56A3-DCBD-4946-B3F7-595679620A89";
paths = (
{
closed = 1;
nodes = (
"492 389 LINE",
"483 259 LINE",
"660 259 LINE",
"659 244 LINE",
"560 249 LINE",
"555 176 LINE",
"623 176 LINE",
"623 174 LINE",
"574 151 OFFCURVE",
"518 135 OFFCURVE",
"483 135 CURVE SMOOTH",
"352 135 OFFCURVE",
"265 217 OFFCURVE",
"265 340 CURVE SMOOTH",
"265 471 OFFCURVE",
"355 558 OFFCURVE",
"491 558 CURVE SMOOTH",
"584 558 OFFCURVE",
"648 522 OFFCURVE",
"651 468 CURVE",
"870 464 LINE",
"864 621 OFFCURVE",
"707 726 OFFCURVE",
"478 726 CURVE SMOOTH",
"219 726 OFFCURVE",
"46 566 OFFCURVE",
"46 327 CURVE SMOOTH",
"46 123 OFFCURVE",
"208 -13 OFFCURVE",
"451 -13 CURVE SMOOTH",
"529 -13 OFFCURVE",
"607 13 OFFCURVE",
"645 51 CURVE",
"647 50 LINE",
"615 0 LINE",
"824 0 LINE",
"836 176 LINE",
"886 176 LINE",
"891 246 LINE",
"841 246 LINE",
"851 389 LINE"
);
}
);
width = 952;
}
);
leftKerningGroup = O;
leftMetricsKey = G;
rightKerningGroup = G;
rightMetricsKey = G;
unicode = 01E4;
},
{
glyphname = H;
lastChange = "2026-04-25 18:55:43 +0000";
layers = (
{
anchors = (
{
name = Bottom;
position = "{304, 0}";
},
{
name = Greek;
position = "{-67, 558}";
},
{
name = Top;
position = "{354, 714}";
}
);
layerId = "FD4D3FDD-DE85-408F-A52A-FF600B1C6101";
paths = (
{
closed = 1;
nodes = (
"544 397 LINE",
"120 397 LINE",
"142 714 LINE",
"92 714 LINE",
"42 0 LINE",
"92 0 LINE",
"116 349 LINE",
"540 349 LINE",
"516 0 LINE",
"566 0 LINE",
"616 714 LINE",
"566 714 LINE"
);
}
);
width = 644;
},
{
anchors = (
{
name = Bottom;
position = "{372, 0}";
},
{
name = Greek;
position = "{-102, 558}";
},
{
name = Top;
position = "{422, 714}";
}
);
layerId = m002;
paths = (
{
closed = 1;
nodes = (
"517 448 LINE",
"284 448 LINE",
"303 714 LINE",
"92 714 LINE",
"42 0 LINE",
"252 0 LINE",
"272 280 LINE",
"505 280 LINE",
"485 0 LINE",
"696 0 LINE",
"746 714 LINE",
"536 714 LINE"
);
}
);
width = 774;
},
{
anchors = (
{
name = Bottom;
position = "{354, 0}";
},
{
name = Greek;
position = "{-67, 558}";
},
{
name = Top;
position = "{404, 714}";
}
);
layerId = "2AA43DF3-F741-4269-8311-3A3BEA5B2F2C";
paths = (
{
closed = 1;
nodes = (
"644 397 LINE",
"120 397 LINE",
"142 714 LINE",
"92 714 LINE",
"42 0 LINE",
"92 0 LINE",
"116 349 LINE",
"640 349 LINE",
"616 0 LINE",
"666 0 LINE",
"716 714 LINE",
"666 714 LINE"
);
}
);
width = 744;
},
{
anchors = (
{
name = Bottom;
position = "{428, 0}";
},
{
name = Greek;
position = "{-111, 558}";
},
{
name = Top;
position = "{478, 714}";
}
);
layerId = "2B8C56A3-DCBD-4946-B3F7-595679620A89";
paths = (
{
closed = 1;
nodes = (
"628 448 LINE",
"284 448 LINE",
"303 714 LINE",
"92 714 LINE",
"42 0 LINE",
"252 0 LINE",
"272 280 LINE",
"617 280 LINE",
"597 0 LINE",
"807 0 LINE",
"857 714 LINE",
"647 714 LINE"
);
}
);
width = 885;
}
);
leftKerningGroup = H;
leftMetricsKey = N;
rightKerningGroup = H;
rightMetricsKey = N;
unicode = 0048;
},
{
glyphname = Hbar;
lastChange = "2026-04-25 18:55:43 +0000";
layers = (
{
layerId = "FD4D3FDD-DE85-408F-A52A-FF600B1C6101";
paths = (
{
closed = 1;
nodes = (
"658 602 LINE",
"234 600 LINE",
"242 714 LINE",
"192 714 LINE",
"184 601 LINE",
"84 605 LINE",
"81 560 LINE",
"181 560 LINE",
"142 0 LINE",
"192 0 LINE",
"216 349 LINE",
"640 349 LINE",
"616 0 LINE",
"666 0 LINE",
"705 560 LINE",
"805 560 LINE",
"808 602 LINE",
"708 602 LINE",
"716 714 LINE",
"666 714 LINE"
);
},
{
closed = 1;
nodes = (
"231 560 LINE",
"655 560 LINE",
"643 397 LINE",
"219 397 LINE"
);
}
);
width = 844;
},
{
layerId = m002;
paths = (
{
closed = 1;
nodes = (
"621 638 LINE",
"387 636 LINE",
"393 714 LINE",
"183 714 LINE",
"177 638 LINE",
"87 641 LINE",
"79 518 LINE",
"169 518 LINE",
"133 0 LINE",
"343 0 LINE",
"363 298 LINE",
"597 298 LINE",
"577 0 LINE",
"786 0 LINE",
"822 518 LINE",
"911 518 LINE",
"919 638 LINE",
"830 638 LINE",
"836 714 LINE",
"627 714 LINE"
);
},
{
closed = 1;
nodes = (
"379 518 LINE",
"613 518 LINE",
"608 448 LINE",
"374 448 LINE"
);
}
);
width = 953;
},
{
layerId = "2AA43DF3-F741-4269-8311-3A3BEA5B2F2C";
paths = (
{
closed = 1;
nodes = (
"758 602 LINE",
"234 600 LINE",
"242 714 LINE",
"192 714 LINE",
"184 601 LINE",
"84 605 LINE",
"81 560 LINE",
"181 560 LINE",
"142 0 LINE",
"192 0 LINE",
"216 349 LINE",
"740 349 LINE",
"716 0 LINE",
"766 0 LINE",
"805 560 LINE",
"905 560 LINE",
"908 602 LINE",
"808 602 LINE",
"816 714 LINE",
"766 714 LINE"
);
},
{
closed = 1;
nodes = (
"231 560 LINE",
"755 560 LINE",
"743 397 LINE",
"219 397 LINE"
);
}
);
width = 944;
},
{
layerId = "2B8C56A3-DCBD-4946-B3F7-595679620A89";
paths = (
{
closed = 1;
nodes = (
"731 638 LINE",
"387 637 LINE",
"393 714 LINE",
"183 714 LINE",
"177 638 LINE",
"87 641 LINE",
"79 518 LINE",
"169 518 LINE",
"133 0 LINE",
"343 0 LINE",
"362 280 LINE",
"706 280 LINE",
"687 0 LINE",
"897 0 LINE",
"933 518 LINE",
"1033 518 LINE",
"1041 638 LINE",
"941 638 LINE",
"947 714 LINE",
"737 714 LINE"
);
},
{
closed = 1;
nodes = (
"379 518 LINE",
"723 518 LINE",
"718 448 LINE",
"374 448 LINE"
);
}
);
width = 1075;
}
);
leftKerningGroup = T;
leftMetricsKey = N;
rightKerningGroup = T;
rightMetricsKey = N;
unicode = 0126;
},
{
glyphname = I;
lastChange = "2026-04-25 18:55:43 +0000";
layers = (
{
anchors = (
{
name = Bottom;
position = "{67, 0}";
},
{
name = Greek;
position = "{-77, 558}";
},
{
name = Top;
position = "{117, 714}";
}
);
layerId = "FD4D3FDD-DE85-408F-A52A-FF600B1C6101";
paths = (
{
closed = 1;
nodes = (
"42 0 LINE",
"92 0 LINE",
"142 714 LINE",
"92 714 LINE"
);
}
);
width = 170;
},
{
anchors = (
{
name = Bottom;
position = "{147, 0}";
},
{
name = Greek;
position = "{-122, 558}";
},
{
name = Top;
position = "{197, 714}";
}
);
layerId = m002;
paths = (
{
closed = 1;
nodes = (
"42 0 LINE",
"252 0 LINE",
"302 714 LINE",
"92 714 LINE"
);
}
);
width = 330;
},
{
anchors = (
{
name = Bottom;
position = "{67, 0}";
},
{
name = Greek;
position = "{-87, 558}";
},
{
name = Top;
position = "{117, 714}";
}
);
layerId = "2AA43DF3-F741-4269-8311-3A3BEA5B2F2C";
paths = (
{
closed = 1;
nodes = (
"42 0 LINE",
"92 0 LINE",
"142 714 LINE",
"92 714 LINE"
);
}
);
width = 170;
},
{
anchors = (
{
name = Bottom;
position = "{147, 0}";
},
{
name = Greek;
position = "{-122, 558}";
},
{
name = Top;
position = "{197, 714}";
}
);
layerId = "2B8C56A3-DCBD-4946-B3F7-595679620A89";
paths = (
{
closed = 1;
nodes = (
"42 0 LINE",
"252 0 LINE",
"302 714 LINE",
"92 714 LINE"
);
}
);
width = 330;
}
);
leftKerningGroup = I;
leftMetricsKey = N;
rightKerningGroup = I;
rightMetricsKey = N;
unicode = 0049;
},
{
glyphname = IJ;
lastChange = "2026-04-25 18:55:43 +0000";
layers = (
{
layerId = "FD4D3FDD-DE85-408F-A52A-FF600B1C6101";
paths = (
{
closed = 1;
nodes = (
"53 160 LINE",
"103 160 LINE",
"142 714 LINE",
"92 714 LINE"
);
},
{
closed = 1;
nodes = (
"79 -8 OFFCURVE",
"104 -13 OFFCURVE",
"127 -13 CURVE SMOOTH",
"244 -13 OFFCURVE",
"317 48 OFFCURVE",
"324 152 CURVE SMOOTH",
"364 714 LINE",
"314 714 LINE",
"274 152 LINE SMOOTH",
"269 78 OFFCURVE",
"216 34 OFFCURVE",
"131 34 CURVE SMOOTH",
"104 34 OFFCURVE",
"79 39 OFFCURVE",
"65 48 CURVE",
"62 0 LINE"
);
}
);
width = 392;
},
{
layerId = m002;
paths = (
{
closed = 1;
nodes = (
"59 240 LINE",
"229 240 LINE",
"263 714 LINE",
"93 714 LINE"
);
},
{
closed = 1;
nodes = (
"192 -7 OFFCURVE",
"215 -13 OFFCURVE",
"237 -13 CURVE SMOOTH",
"393 -13 OFFCURVE",
"489 65 OFFCURVE",
"499 200 CURVE SMOOTH",
"535 714 LINE",
"365 714 LINE",
"331 234 LINE SMOOTH",
"328 184 OFFCURVE",
"293 153 OFFCURVE",
"241 153 CURVE SMOOTH",
"220 153 OFFCURVE",
"198 158 OFFCURVE",
"182 167 CURVE",
"175 1 LINE"
);
}
);
width = 563;
},
{
layerId = "2AA43DF3-F741-4269-8311-3A3BEA5B2F2C";
paths = (
{
closed = 1;
nodes = (
"53 160 LINE",
"103 160 LINE",
"142 714 LINE",
"92 714 LINE"
);
},
{
closed = 1;
nodes = (
"79 -8 OFFCURVE",
"104 -13 OFFCURVE",
"127 -13 CURVE SMOOTH",
"244 -13 OFFCURVE",
"317 48 OFFCURVE",
"324 152 CURVE SMOOTH",
"364 714 LINE",
"314 714 LINE",
"274 152 LINE SMOOTH",
"269 78 OFFCURVE",
"216 34 OFFCURVE",
"131 34 CURVE SMOOTH",
"104 34 OFFCURVE",
"79 39 OFFCURVE",
"65 48 CURVE",
"62 0 LINE"
);
}
);
width = 392;
},
{
layerId = "2B8C56A3-DCBD-4946-B3F7-595679620A89";
paths = (
{
closed = 1;
nodes = (
"59 240 LINE",
"229 240 LINE",
"263 714 LINE",
"93 714 LINE"
);
},
{
closed = 1;
nodes = (
"190 -8 OFFCURVE",
"213 -13 OFFCURVE",
"233 -13 CURVE SMOOTH",
"391 -13 OFFCURVE",
"489 67 OFFCURVE",
"499 202 CURVE SMOOTH",
"535 714 LINE",
"365 714 LINE",
"331 232 LINE SMOOTH",
"327 182 OFFCURVE",
"295 153 OFFCURVE",
"245 153 CURVE SMOOTH",
"222 153 OFFCURVE",
"200 159 OFFCURVE",
"184 168 CURVE",
"173 0 LINE"
);
}
);
width = 563;
}
);
leftKerningGroup = I;
leftMetricsKey = N;
rightKerningGroup = U;
rightMetricsKey = N;
unicode = 0132;
},
{
glyphname = "Iota-latin";
lastChange = "2026-04-25 18:55:43 +0000";
layers = (
{
layerId = "FD4D3FDD-DE85-408F-A52A-FF600B1C6101";
paths = (
{
closed = 1;
nodes = (
"45 46 OFFCURVE",
"99 -13 OFFCURVE",
"197 -13 CURVE SMOOTH",
"214 -13 OFFCURVE",
"235 -8 OFFCURVE",
"254 0 CURVE",
"257 48 LINE",
"243 39 OFFCURVE",
"222 34 OFFCURVE",
"199 34 CURVE SMOOTH",
"133 34 OFFCURVE",
"97 76 OFFCURVE",
"102 147 CURVE SMOOTH",
"142 714 LINE",
"92 714 LINE",
"52 147 LINE SMOOTH"
);
}
);
width = 312;
},
{
layerId = "2AA43DF3-F741-4269-8311-3A3BEA5B2F2C";
paths = (
{
closed = 1;
nodes = (
"46 58 OFFCURVE",
"108 -13 OFFCURVE",
"222 -13 CURVE SMOOTH",
"255 -13 OFFCURVE",
"285 -8 OFFCURVE",
"304 0 CURVE",
"307 48 LINE",
"289 39 OFFCURVE",
"259 34 OFFCURVE",
"224 34 CURVE SMOOTH",
"142 34 OFFCURVE",
"98 87 OFFCURVE",
"104 177 CURVE SMOOTH",
"142 714 LINE",
"92 714 LINE",
"54 177 LINE SMOOTH"
);
}
);
width = 362;
},
{
layerId = m002;
paths = (
{
closed = 1;
nodes = (
"47 59 OFFCURVE",
"140 -13 OFFCURVE",
"304 -13 CURVE SMOOTH",
"324 -13 OFFCURVE",
"347 -8 OFFCURVE",
"366 0 CURVE",
"377 168 LINE",
"359 159 OFFCURVE",
"335 153 OFFCURVE",
"314 153 CURVE SMOOTH",
"283 153 OFFCURVE",
"266 175 OFFCURVE",
"268 212 CURVE SMOOTH",
"304 714 LINE",
"93 714 LINE",
"55 182 LINE SMOOTH"
);
}
);
width = 424;
},
{
layerId = "2B8C56A3-DCBD-4946-B3F7-595679620A89";
paths = (
{
closed = 1;
nodes = (
"46 67 OFFCURVE",
"149 -13 OFFCURVE",
"331 -13 CURVE SMOOTH",
"367 -13 OFFCURVE",
"400 -8 OFFCURVE",
"419 0 CURVE",
"431 178 LINE",
"409 169 OFFCURVE",
"382 163 OFFCURVE",
"358 163 CURVE SMOOTH",
"298 163 OFFCURVE",
"265 198 OFFCURVE",
"270 257 CURVE SMOOTH",
"302 714 LINE",
"92 714 LINE",
"56 202 LINE SMOOTH"
);
}
);
width = 477;
}
);
leftKerningGroup = I;
leftMetricsKey = I;
rightKerningGroup = L;
rightMetricsKey = L;
unicode = 0196;
},
{
glyphname = Istroke;
lastChange = "2026-04-25 18:55:43 +0000";
layers = (
{
layerId = "FD4D3FDD-DE85-408F-A52A-FF600B1C6101";
paths = (
{
closed = 1;
nodes = (
"139 382 LINE",
"70 386 LINE",
"66 341 LINE",
"136 341 LINE",
"113 0 LINE",
"163 0 LINE",
"186 341 LINE",
"256 341 LINE",
"259 383 LINE",
"189 383 LINE",
"213 714 LINE",
"163 714 LINE"
);
}
);
width = 310;
},
{
layerId = m002;
paths = (
{
closed = 1;
nodes = (
"147 417 LINE",
"71 422 LINE",
"63 299 LINE",
"139 299 LINE",
"118 0 LINE",
"329 0 LINE",
"350 299 LINE",
"426 299 LINE",
"434 419 LINE",
"358 419 LINE",
"379 714 LINE",
"168 714 LINE"
);
}
);
width = 483;
},
{
layerId = "2AA43DF3-F741-4269-8311-3A3BEA5B2F2C";
paths = (
{
closed = 1;
nodes = (
"139 382 LINE",
"70 386 LINE",
"66 341 LINE",
"136 341 LINE",
"113 0 LINE",
"163 0 LINE",
"186 341 LINE",
"256 341 LINE",
"259 383 LINE",
"189 383 LINE",
"213 714 LINE",
"163 714 LINE"
);
}
);
width = 310;
},
{
layerId = "2B8C56A3-DCBD-4946-B3F7-595679620A89";
paths = (
{
closed = 1;
nodes = (
"148 417 LINE",
"71 422 LINE",
"63 299 LINE",
"140 299 LINE",
"119 0 LINE",
"330 0 LINE",
"351 299 LINE",
"426 299 LINE",
"434 419 LINE",
"359 419 LINE",
"380 714 LINE",
"169 714 LINE"
);
}
);
width = 483;
}
);
leftKerningGroup = Istroke;
leftMetricsKey = N;
rightKerningGroup = Istroke;
rightMetricsKey = N;
unicode = 0197;
},
{
glyphname = J;
lastChange = "2026-04-25 18:55:43 +0000";
layers = (
{
anchors = (
{
name = Bottom;
position = "{52, 0}";
},
{
name = Top;
position = "{280, 714}";
}
);
layerId = "FD4D3FDD-DE85-408F-A52A-FF600B1C6101";
paths = (
{
closed = 1;
nodes = (
"305 714 LINE",
"255 714 LINE",
"215 153 LINE SMOOTH",
"210 79 OFFCURVE",
"160 34 OFFCURVE",
"81 34 CURVE SMOOTH",
"58 34 OFFCURVE",
"38 39 OFFCURVE",
"25 48 CURVE",
"23 0 LINE",
"41 -8 OFFCURVE",
"61 -13 OFFCURVE",
"79 -13 CURVE SMOOTH",
"189 -13 OFFCURVE",
"258 47 OFFCURVE",
"265 151 CURVE SMOOTH"
);
}
);
width = 333;
},
{
anchors = (
{
name = Bottom;
position = "{73, 0}";
},
{
name = Top;
position = "{301, 714}";
}
);
layerId = m002;
paths = (
{
closed = 1;
nodes = (
"406 714 LINE",
"196 714 LINE",
"162 234 LINE SMOOTH",
"159 184 OFFCURVE",
"132 153 OFFCURVE",
"92 153 CURVE SMOOTH",
"72 153 OFFCURVE",
"50 158 OFFCURVE",
"33 167 CURVE",
"26 1 LINE",
"43 -7 OFFCURVE",
"66 -13 OFFCURVE",
"88 -13 CURVE SMOOTH",
"256 -13 OFFCURVE",
"360 65 OFFCURVE",
"370 200 CURVE SMOOTH"
);
}
);
width = 434;
},
{
anchors = (
{
name = Bottom;
position = "{157, 0}";
},
{
name = Top;
position = "{385, 714}";
}
);
layerId = "2AA43DF3-F741-4269-8311-3A3BEA5B2F2C";
paths = (
{
closed = 1;
nodes = (
"410 714 LINE",
"360 714 LINE",
"325 213 LINE SMOOTH",
"317 101 OFFCURVE",
"235 34 OFFCURVE",
"106 34 CURVE SMOOTH",
"71 34 OFFCURVE",
"42 39 OFFCURVE",
"25 48 CURVE",
"23 0 LINE",
"41 -8 OFFCURVE",
"70 -13 OFFCURVE",
"104 -13 CURVE SMOOTH",
"264 -13 OFFCURVE",
"365 70 OFFCURVE",
"374 211 CURVE SMOOTH"
);
}
);
width = 438;
},
{
anchors = (
{
name = Bottom;
position = "{108, 0}";
},
{
name = Top;
position = "{390, 714}";
}
);
layerId = "2B8C56A3-DCBD-4946-B3F7-595679620A89";
paths = (
{
closed = 1;
nodes = (
"501 714 LINE",
"291 714 LINE",
"262 299 LINE SMOOTH",
"256 219 OFFCURVE",
"192 163 OFFCURVE",
"103 163 CURVE SMOOTH",
"82 163 OFFCURVE",
"53 168 OFFCURVE",
"34 177 CURVE",
"26 1 LINE",
"43 -7 OFFCURVE",
"77 -13 OFFCURVE",
"114 -13 CURVE SMOOTH",
"316 -13 OFFCURVE",
"457 87 OFFCURVE",
"467 240 CURVE SMOOTH"
);
}
);
width = 529;
}
);
leftKerningGroup = J;
rightKerningGroup = U;
rightMetricsKey = N;
unicode = 004A;
},
{
glyphname = K;
lastChange = "2026-04-25 18:55:43 +0000";
layers = (
{
anchors = (
{
name = Bottom;
position = "{241, 0}";
},
{
name = Top;
position = "{275, 714}";
}
);
layerId = "FD4D3FDD-DE85-408F-A52A-FF600B1C6101";
paths = (
{
closed = 1;
nodes = (
"42 0 LINE",
"92 0 LINE",
"117 359 LINE",
"139 359 LINE",
"431 0 LINE",
"498 0 LINE",
"184 383 LINE",
"548 714 LINE",
"477 714 LINE",
"143 411 LINE",
"120 411 LINE",
"142 714 LINE",
"92 714 LINE"
);
}
);
width = 556;
},
{
anchors = (
{
name = Bottom;
position = "{363, 0}";
},
{
name = Top;
position = "{407, 714}";
}
);
layerId = m002;
paths = (
{
closed = 1;
nodes = (
"42 0 LINE",
"252 0 LINE",
"272 288 LINE",
"285 288 LINE",
"473 0 LINE",
"718 0 LINE",
"474 370 LINE",
"788 714 LINE",
"518 714 LINE",
"296 468 LINE",
"284 468 LINE",
"302 714 LINE",
"92 714 LINE"
);
}
);
width = 796;
},
{
anchors = (
{
name = Bottom;
position = "{281, 0}";
},
{
name = Top;
position = "{315, 714}";
}
);
layerId = "2AA43DF3-F741-4269-8311-3A3BEA5B2F2C";
paths = (
{
closed = 1;
nodes = (
"42 0 LINE",
"92 0 LINE",
"117 359 LINE",
"239 359 LINE",
"531 0 LINE",
"598 0 LINE",
"284 383 LINE",
"648 714 LINE",
"577 714 LINE",
"243 411 LINE",
"120 411 LINE",
"142 714 LINE",
"92 714 LINE"
);
}
);
width = 656;
},
{
anchors = (
{
name = Bottom;
position = "{378, 0}";
},
{
name = Top;
position = "{422, 714}";
}
);
layerId = "2B8C56A3-DCBD-4946-B3F7-595679620A89";
paths = (
{
closed = 1;
nodes = (
"42 0 LINE",
"252 0 LINE",
"272 288 LINE",
"315 288 LINE",
"503 0 LINE",
"748 0 LINE",
"504 370 LINE",
"818 714 LINE",
"548 714 LINE",
"326 468 LINE",
"284 468 LINE",
"302 714 LINE",
"92 714 LINE"
);
}
);
width = 826;
}
);
leftKerningGroup = H;
leftMetricsKey = N;
rightKerningGroup = K;
rightMetricsKey = A;
unicode = 004B;
},
{
glyphname = Khook;
lastChange = "2026-04-25 18:55:43 +0000";
layers = (
{
layerId = "FD4D3FDD-DE85-408F-A52A-FF600B1C6101";
paths = (
{
closed = 1;
nodes = (
"143 411 LINE",
"121 411 LINE",
"142 714 LINE",
"92 714 LINE",
"42 0 LINE",
"92 0 LINE",
"117 359 LINE",
"139 359 LINE",
"431 0 LINE",
"498 0 LINE",
"184 383 LINE",
"429 606 LINE SMOOTH",
"487 659 OFFCURVE",
"520 679 OFFCURVE",
"549 679 CURVE SMOOTH",
"562 679 OFFCURVE",
"570 678 OFFCURVE",
"577 675 CURVE",
"580 723 LINE",
"571 725 OFFCURVE",
"564 726 OFFCURVE",
"552 726 CURVE SMOOTH",
"506 726 OFFCURVE",
"464 704 OFFCURVE",
"401 646 CURVE SMOOTH"
);
}
);
width = 588;
},
{
layerId = "2AA43DF3-F741-4269-8311-3A3BEA5B2F2C";
paths = (
{
closed = 1;
nodes = (
"243 411 LINE",
"121 411 LINE",
"142 714 LINE",
"92 714 LINE",
"42 0 LINE",
"92 0 LINE",
"117 359 LINE",
"239 359 LINE",
"532 0 LINE",
"598 0 LINE",
"284 383 LINE",
"533 610 LINE SMOOTH",
"588 660 OFFCURVE",
"621 679 OFFCURVE",
"654 679 CURVE SMOOTH",
"664 679 OFFCURVE",
"670 678 OFFCURVE",
"676 675 CURVE",
"679 723 LINE",
"669 725 OFFCURVE",
"662 726 OFFCURVE",
"651 726 CURVE SMOOTH",
"605 726 OFFCURVE",
"568 706 OFFCURVE",
"500 644 CURVE SMOOTH"
);
}
);
width = 687;
},
{
layerId = m002;
paths = (
{
closed = 1;
nodes = (
"296 468 LINE",
"284 468 LINE",
"302 714 LINE",
"92 714 LINE",
"42 0 LINE",
"252 0 LINE",
"272 288 LINE",
"285 288 LINE",
"468 0 LINE",
"718 0 LINE",
"474 383 LINE",
"603 517 LINE SMOOTH",
"630 545 OFFCURVE",
"655 556 OFFCURVE",
"693 556 CURVE SMOOTH",
"718 556 OFFCURVE",
"732 549 OFFCURVE",
"742 543 CURVE",
"754 714 LINE",
"718 723 OFFCURVE",
"691 726 OFFCURVE",
"655 726 CURVE SMOOTH",
"571 726 OFFCURVE",
"517 702 OFFCURVE",
"458 641 CURVE SMOOTH"
);
}
);
width = 776;
},
{
layerId = "2B8C56A3-DCBD-4946-B3F7-595679620A89";
paths = (
{
closed = 1;
nodes = (
"326 468 LINE",
"284 468 LINE",
"302 714 LINE",
"92 714 LINE",
"42 0 LINE",
"252 0 LINE",
"272 288 LINE",
"315 288 LINE",
"498 0 LINE",
"748 0 LINE",
"504 383 LINE",
"632 518 LINE SMOOTH",
"660 548 OFFCURVE",
"685 561 OFFCURVE",
"712 561 CURVE SMOOTH",
"731 561 OFFCURVE",
"753 554 OFFCURVE",
"766 543 CURVE",
"778 714 LINE",
"756 721 OFFCURVE",
"720 726 OFFCURVE",
"684 726 CURVE SMOOTH",
"587 726 OFFCURVE",
"533 688 OFFCURVE",
"461 612 CURVE SMOOTH"
);
}
);
width = 806;
}
);
leftKerningGroup = H;
leftMetricsKey = H;
rightKerningGroup = K;
rightMetricsKey = K;
unicode = 0198;
},
{
glyphname = L;
lastChange = "2026-04-25 18:55:43 +0000";
layers = (
{
anchors = (
{
name = Bottom;
position = "{249, 0}";
},
{
name = Caron;
position = "{275, 548}";
},
{
name = Top;
position = "{118, 714}";
}
);
layerId = "FD4D3FDD-DE85-408F-A52A-FF600B1C6101";
paths = (
{
closed = 1;
nodes = (
"95 48 LINE",
"142 714 LINE",
"92 714 LINE",
"42 0 LINE",
"430 0 LINE",
"433 48 LINE"
);
}
);
width = 488;
},
{
anchors = (
{
name = Bottom;
position = "{319, 0}";
},
{
name = Caron;
position = "{405, 548}";
},
{
name = Top;
position = "{198, 714}";
}
);
layerId = m002;
paths = (
{
closed = 1;
nodes = (
"263 168 LINE",
"302 714 LINE",
"92 714 LINE",
"42 0 LINE",
"540 0 LINE",
"551 168 LINE"
);
}
);
width = 598;
},
{
anchors = (
{
name = Bottom;
position = "{329, 0}";
},
{
name = Caron;
position = "{275, 548}";
},
{
name = Top;
position = "{118, 714}";
}
);
layerId = "2AA43DF3-F741-4269-8311-3A3BEA5B2F2C";
paths = (
{
closed = 1;
nodes = (
"95 48 LINE",
"142 714 LINE",
"92 714 LINE",
"42 0 LINE",
"570 0 LINE",
"573 48 LINE"
);
}
);
width = 628;
},
{
anchors = (
{
name = Bottom;
position = "{369, 0}";
},
{
name = Caron;
position = "{405, 548}";
},
{
name = Top;
position = "{198, 714}";
}
);
layerId = "2B8C56A3-DCBD-4946-B3F7-595679620A89";
paths = (
{
closed = 1;
nodes = (
"263 168 LINE",
"302 714 LINE",
"92 714 LINE",
"42 0 LINE",
"680 0 LINE",
"691 168 LINE"
);
}
);
width = 738;
}
);
leftKerningGroup = H;
leftMetricsKey = N;
rightKerningGroup = L;
rightMetricsKey = A;
unicode = 004C;
},
{
glyphname = Lambdastroke;
lastChange = "2026-04-25 18:55:43 +0000";
layers = (
{
layerId = "FD4D3FDD-DE85-408F-A52A-FF600B1C6101";
paths = (
{
closed = 1;
nodes = (
"22 0 LINE",
"78 0 LINE",
"312 384 LINE",
"314 384 LINE",
"495 0 LINE",
"549 0 LINE",
"341 441 LINE",
"361 714 LINE",
"311 714 LINE",
"291 441 LINE"
);
},
{
closed = 1;
nodes = (
"294 482 LINE",
"100 487 LINE",
"97 442 LINE",
"536 442 LINE",
"538 484 LINE",
"344 484 LINE"
);
}
);
width = 607;
},
{
layerId = "2AA43DF3-F741-4269-8311-3A3BEA5B2F2C";
paths = (
{
closed = 1;
nodes = (
"22 0 LINE",
"81 0 LINE",
"373 388 LINE",
"375 388 LINE",
"612 0 LINE",
"669 0 LINE",
"401 441 LINE",
"421 714 LINE",
"371 714 LINE",
"351 441 LINE"
);
},
{
closed = 1;
nodes = (
"354 481 LINE",
"160 486 LINE",
"156 441 LINE",
"595 441 LINE",
"598 483 LINE",
"404 483 LINE"
);
}
);
width = 727;
},
{
layerId = m002;
paths = (
{
closed = 1;
nodes = (
"22 0 LINE",
"254 0 LINE",
"407 237 LINE",
"409 237 LINE",
"530 0 LINE",
"750 0 LINE",
"521 441 LINE",
"541 714 LINE",
"331 714 LINE",
"311 441 LINE"
);
},
{
closed = 1;
nodes = (
"320 559 LINE",
"161 564 LINE",
"152 441 LINE",
"680 441 LINE",
"689 561 LINE",
"530 561 LINE"
);
}
);
width = 808;
},
{
layerId = "2B8C56A3-DCBD-4946-B3F7-595679620A89";
paths = (
{
closed = 1;
nodes = (
"22 0 LINE",
"301 0 LINE",
"459 202 LINE",
"461 202 LINE",
"591 0 LINE",
"850 0 LINE",
"571 441 LINE",
"591 714 LINE",
"381 714 LINE",
"361 441 LINE"
);
},
{
closed = 1;
nodes = (
"370 559 LINE",
"211 564 LINE",
"202 441 LINE",
"730 441 LINE",
"739 561 LINE",
"580 561 LINE"
);
}
);
width = 908;
}
);
leftKerningGroup = A;
leftMetricsKey = A;
rightKerningGroup = A;
rightMetricsKey = A;
unicode = A7DC;
script = latin;
category = Letter;
},
{
glyphname = Lbar;
lastChange = "2026-04-25 18:55:43 +0000";
layers = (
{
layerId = "FD4D3FDD-DE85-408F-A52A-FF600B1C6101";
paths = (
{
closed = 1;
nodes = (
"146 48 LINE",
"166 341 LINE",
"267 341 LINE",
"270 383 LINE",
"169 383 LINE",
"193 714 LINE",
"143 714 LINE",
"119 381 LINE",
"70 386 LINE",
"66 341 LINE",
"116 341 LINE",
"93 0 LINE",
"481 0 LINE",
"484 48 LINE"
);
}
);
width = 539;
},
{
layerId = m002;
paths = (
{
closed = 1;
nodes = (
"311 168 LINE",
"321 299 LINE",
"426 299 LINE",
"434 419 LINE",
"329 419 LINE",
"350 714 LINE",
"139 714 LINE",
"118 417 LINE",
"71 422 LINE",
"63 299 LINE",
"110 299 LINE",
"89 0 LINE",
"587 0 LINE",
"598 168 LINE"
);
}
);
width = 645;
},
{
layerId = "2AA43DF3-F741-4269-8311-3A3BEA5B2F2C";
paths = (
{
closed = 1;
nodes = (
"146 48 LINE",
"166 341 LINE",
"267 341 LINE",
"270 383 LINE",
"169 383 LINE",
"193 714 LINE",
"143 714 LINE",
"119 381 LINE",
"70 386 LINE",
"66 341 LINE",
"116 341 LINE",
"93 0 LINE",
"621 0 LINE",
"624 48 LINE"
);
}
);
width = 679;
},
{
layerId = "2B8C56A3-DCBD-4946-B3F7-595679620A89";
paths = (
{
closed = 1;
nodes = (
"311 168 LINE",
"321 299 LINE",
"426 299 LINE",
"434 419 LINE",
"329 419 LINE",
"350 714 LINE",
"139 714 LINE",
"118 417 LINE",
"71 422 LINE",
"63 299 LINE",
"110 299 LINE",
"89 0 LINE",
"727 0 LINE",
"738 168 LINE"
);
}
);
width = 785;
}
);
leftKerningGroup = H;
leftMetricsKey = L;
rightKerningGroup = L;
rightMetricsKey = L;
unicode = 023D;
},
{
glyphname = Lbelt;
lastChange = "2026-04-25 18:55:43 +0000";
layers = (
{
layerId = "FD4D3FDD-DE85-408F-A52A-FF600B1C6101";
paths = (
{
closed = 1;
nodes = (
"224 48 LINE",
"244 341 LINE",
"394 341 LINE",
"397 383 LINE",
"247 383 LINE",
"271 714 LINE",
"221 714 LINE",
"206 506 LINE",
"193 512 OFFCURVE",
"178 515 OFFCURVE",
"161 515 CURVE SMOOTH",
"105 515 OFFCURVE",
"65 480 OFFCURVE",
"62 428 CURVE SMOOTH",
"58 376 OFFCURVE",
"92 341 OFFCURVE",
"148 341 CURVE SMOOTH",
"194 341 LINE",
"171 0 LINE",
"559 0 LINE",
"562 48 LINE"
);
},
{
closed = 1;
nodes = (
"197 383 LINE",
"151 383 LINE SMOOTH",
"124 383 OFFCURVE",
"108 401 OFFCURVE",
"110 428 CURVE SMOOTH",
"111 455 OFFCURVE",
"131 473 OFFCURVE",
"158 473 CURVE SMOOTH",
"186 473 OFFCURVE",
"202 455 OFFCURVE",
"201 428 CURVE SMOOTH"
);
}
);
width = 617;
},
{
layerId = "2AA43DF3-F741-4269-8311-3A3BEA5B2F2C";
paths = (
{
closed = 1;
nodes = (
"224 48 LINE",
"244 341 LINE",
"544 341 LINE",
"547 383 LINE",
"247 383 LINE",
"271 714 LINE",
"221 714 LINE",
"206 506 LINE",
"193 512 OFFCURVE",
"178 515 OFFCURVE",
"161 515 CURVE SMOOTH",
"105 515 OFFCURVE",
"65 480 OFFCURVE",
"62 428 CURVE SMOOTH",
"58 376 OFFCURVE",
"92 341 OFFCURVE",
"148 341 CURVE SMOOTH",
"194 341 LINE",
"171 0 LINE",
"699 0 LINE",
"702 48 LINE"
);
},
{
closed = 1;
nodes = (
"197 383 LINE",
"151 383 LINE SMOOTH",
"124 383 OFFCURVE",
"108 401 OFFCURVE",
"110 428 CURVE SMOOTH",
"111 455 OFFCURVE",
"131 473 OFFCURVE",
"158 473 CURVE SMOOTH",
"186 473 OFFCURVE",
"202 455 OFFCURVE",
"201 428 CURVE SMOOTH"
);
}
);
width = 757;
},
{
layerId = m002;
paths = (
{
closed = 1;
nodes = (
"414 168 LINE",
"425 313 LINE",
"575 313 LINE",
"579 383 LINE",
"429 383 LINE",
"453 714 LINE",
"242 714 LINE",
"230 537 LINE",
"216 541 OFFCURVE",
"202 543 OFFCURVE",
"185 543 CURVE SMOOTH",
"110 543 OFFCURVE",
"56 497 OFFCURVE",
"52 428 CURVE SMOOTH",
"47 359 OFFCURVE",
"94 313 OFFCURVE",
"169 313 CURVE SMOOTH",
"214 313 LINE",
"192 0 LINE",
"691 0 LINE",
"702 168 LINE"
);
},
{
closed = 1;
nodes = (
"219 383 LINE",
"173 383 LINE SMOOTH",
"146 383 OFFCURVE",
"130 401 OFFCURVE",
"132 428 CURVE SMOOTH",
"133 455 OFFCURVE",
"153 473 OFFCURVE",
"180 473 CURVE SMOOTH",
"208 473 OFFCURVE",
"224 455 OFFCURVE",
"223 428 CURVE SMOOTH"
);
}
);
width = 749;
},
{
layerId = "2B8C56A3-DCBD-4946-B3F7-595679620A89";
paths = (
{
closed = 1;
nodes = (
"434 168 LINE",
"443 293 LINE",
"742 293 LINE",
"748 383 LINE",
"449 383 LINE",
"473 714 LINE",
"262 714 LINE",
"251 558 LINE",
"237 561 OFFCURVE",
"222 563 OFFCURVE",
"206 563 CURVE SMOOTH",
"119 563 OFFCURVE",
"57 509 OFFCURVE",
"52 428 CURVE SMOOTH",
"46 347 OFFCURVE",
"100 293 OFFCURVE",
"187 293 CURVE SMOOTH",
"232 293 LINE",
"212 0 LINE",
"850 0 LINE",
"861 168 LINE"
);
},
{
closed = 1;
nodes = (
"238 383 LINE",
"193 383 LINE SMOOTH",
"166 383 OFFCURVE",
"150 401 OFFCURVE",
"152 428 CURVE SMOOTH",
"153 455 OFFCURVE",
"173 473 OFFCURVE",
"200 473 CURVE SMOOTH",
"224 473 OFFCURVE",
"240 460 OFFCURVE",
"242 439 CURVE"
);
}
);
width = 908;
}
);
leftKerningGroup = O;
leftMetricsKey = O;
rightKerningGroup = L;
rightMetricsKey = L;
unicode = A7AD;
},
{
glyphname = Lmiddletilde;
lastChange = "2026-04-25 18:55:43 +0000";
layers = (
{
layerId = "FD4D3FDD-DE85-408F-A52A-FF600B1C6101";
paths = (
{
closed = 1;
nodes = (
"554 0 LINE",
"557 48 LINE",
"219 48 LINE",
"240 339 LINE",
"252 335 OFFCURVE",
"263 333 OFFCURVE",
"277 333 CURVE SMOOTH",
"326 333 OFFCURVE",
"361 365 OFFCURVE",
"365 414 CURVE",
"317 414 LINE",
"315 391 OFFCURVE",
"300 376 OFFCURVE",
"280 376 CURVE SMOOTH",
"266 376 OFFCURVE",
"254 379 OFFCURVE",
"242 384 CURVE",
"266 714 LINE",
"216 714 LINE",
"194 405 LINE",
"181 410 OFFCURVE",
"168 413 OFFCURVE",
"153 413 CURVE SMOOTH",
"104 413 OFFCURVE",
"68 381 OFFCURVE",
"65 332 CURVE",
"113 332 LINE",
"114 355 OFFCURVE",
"130 370 OFFCURVE",
"150 370 CURVE SMOOTH",
"164 370 OFFCURVE",
"177 366 OFFCURVE",
"191 360 CURVE",
"166 0 LINE"
);
}
);
width = 612;
},
{
layerId = m002;
paths = (
{
closed = 1;
nodes = (
"676 0 LINE",
"687 168 LINE",
"400 168 LINE",
"410 308 LINE",
"416 308 OFFCURVE",
"424 308 OFFCURVE",
"436 308 CURVE SMOOTH",
"501 308 OFFCURVE",
"549 355 OFFCURVE",
"554 426 CURVE",
"449 426 LINE",
"449 414 OFFCURVE",
"439 406 OFFCURVE",
"425 406 CURVE SMOOTH",
"421 406 OFFCURVE",
"419 406 OFFCURVE",
"417 406 CURVE",
"439 714 LINE",
"228 714 LINE",
"208 428 LINE",
"202 429 OFFCURVE",
"194 430 OFFCURVE",
"185 430 CURVE SMOOTH",
"118 430 OFFCURVE",
"69 383 OFFCURVE",
"64 312 CURVE",
"169 312 LINE",
"170 325 OFFCURVE",
"180 333 OFFCURVE",
"194 333 CURVE SMOOTH",
"197 333 OFFCURVE",
"199 333 OFFCURVE",
"201 333 CURVE",
"178 0 LINE"
);
}
);
width = 734;
},
{
layerId = "2AA43DF3-F741-4269-8311-3A3BEA5B2F2C";
paths = (
{
closed = 1;
nodes = (
"694 0 LINE",
"697 48 LINE",
"219 48 LINE",
"239 339 LINE",
"251 335 OFFCURVE",
"263 333 OFFCURVE",
"277 333 CURVE SMOOTH",
"326 333 OFFCURVE",
"361 365 OFFCURVE",
"365 414 CURVE",
"317 414 LINE",
"315 391 OFFCURVE",
"300 376 OFFCURVE",
"280 376 CURVE SMOOTH",
"266 376 OFFCURVE",
"254 379 OFFCURVE",
"242 384 CURVE",
"266 714 LINE",
"216 714 LINE",
"194 405 LINE",
"181 410 OFFCURVE",
"168 413 OFFCURVE",
"153 413 CURVE SMOOTH",
"104 413 OFFCURVE",
"68 381 OFFCURVE",
"65 332 CURVE",
"113 332 LINE",
"114 355 OFFCURVE",
"130 370 OFFCURVE",
"150 370 CURVE SMOOTH",
"164 370 OFFCURVE",
"177 366 OFFCURVE",
"191 360 CURVE",
"166 0 LINE"
);
}
);
width = 752;
},
{
layerId = "2B8C56A3-DCBD-4946-B3F7-595679620A89";
paths = (
{
closed = 1;
nodes = (
"816 0 LINE",
"827 168 LINE",
"400 168 LINE",
"410 308 LINE",
"418 311 OFFCURVE",
"424 308 OFFCURVE",
"436 308 CURVE SMOOTH",
"502 308 OFFCURVE",
"549 355 OFFCURVE",
"554 426 CURVE",
"449 426 LINE",
"449 414 OFFCURVE",
"439 406 OFFCURVE",
"425 406 CURVE SMOOTH",
"422 406 OFFCURVE",
"419 406 OFFCURVE",
"417 406 CURVE",
"439 714 LINE",
"228 714 LINE",
"208 429 LINE",
"200 428 OFFCURVE",
"196 429 OFFCURVE",
"185 430 CURVE SMOOTH",
"118 437 OFFCURVE",
"69 383 OFFCURVE",
"64 312 CURVE",
"169 312 LINE",
"170 325 OFFCURVE",
"180 333 OFFCURVE",
"194 333 CURVE SMOOTH",
"197 333 OFFCURVE",
"199 333 OFFCURVE",
"201 333 CURVE",
"178 0 LINE"
);
}
);
width = 874;
}
);
leftKerningGroup = Lmiddletilde;
leftMetricsKey = L;
rightKerningGroup = L;
rightMetricsKey = L;
unicode = 2C62;
},
{
glyphname = Lslash;
lastChange = "2026-04-25 18:55:43 +0000";
layers = (
{
layerId = "FD4D3FDD-DE85-408F-A52A-FF600B1C6101";
paths = (
{
closed = 1;
nodes = (
"166 48 LINE",
"191 404 LINE",
"323 479 LINE",
"327 537 LINE",
"195 462 LINE",
"213 714 LINE",
"163 714 LINE",
"143 432 LINE",
"69 390 LINE",
"65 332 LINE",
"139 374 LINE",
"113 0 LINE",
"501 0 LINE",
"504 48 LINE"
);
}
);
width = 559;
},
{
layerId = m002;
paths = (
{
closed = 1;
nodes = (
"337 168 LINE",
"355 418 LINE",
"444 476 LINE",
"453 612 LINE",
"364 555 LINE",
"376 714 LINE",
"165 714 LINE",
"144 414 LINE",
"67 365 LINE",
"58 227 LINE",
"134 276 LINE",
"115 0 LINE",
"613 0 LINE",
"624 168 LINE"
);
}
);
width = 671;
},
{
layerId = "2AA43DF3-F741-4269-8311-3A3BEA5B2F2C";
paths = (
{
closed = 1;
nodes = (
"166 48 LINE",
"191 404 LINE",
"323 479 LINE",
"327 537 LINE",
"195 462 LINE",
"213 714 LINE",
"163 714 LINE",
"143 432 LINE",
"69 390 LINE",
"65 332 LINE",
"139 374 LINE",
"113 0 LINE",
"641 0 LINE",
"644 48 LINE"
);
}
);
width = 699;
},
{
layerId = "2B8C56A3-DCBD-4946-B3F7-595679620A89";
paths = (
{
closed = 1;
nodes = (
"337 168 LINE",
"355 418 LINE",
"444 476 LINE",
"453 612 LINE",
"364 555 LINE",
"376 714 LINE",
"165 714 LINE",
"144 414 LINE",
"67 365 LINE",
"58 227 LINE",
"134 276 LINE",
"115 0 LINE",
"753 0 LINE",
"764 168 LINE"
);
}
);
width = 811;
}
);
leftKerningGroup = H;
leftMetricsKey = N;
rightKerningGroup = L;
rightMetricsKey = A;
unicode = 0141;
},
{
glyphname = M;
lastChange = "2026-04-25 18:55:43 +0000";
layers = (
{
anchors = (
{
name = Bottom;
position = "{371, 0}";
},
{
name = Top;
position = "{417, 714}";
}
);
layerId = "FD4D3FDD-DE85-408F-A52A-FF600B1C6101";
paths = (
{
closed = 1;
nodes = (
"42 0 LINE",
"92 0 LINE",
"134 593 LINE",
"135 593 LINE",
"348 0 LINE",
"396 0 LINE",
"691 593 LINE",
"694 593 LINE",
"652 0 LINE",
"702 0 LINE",
"752 714 LINE",
"694 714 LINE",
"378 79 LINE",
"376 79 LINE",
"148 714 LINE",
"92 714 LINE"
);
}
);
width = 780;
},
{
anchors = (
{
name = Bottom;
position = "{447, 0}";
},
{
name = Top;
position = "{493, 714}";
}
);
layerId = m002;
paths = (
{
closed = 1;
nodes = (
"42 0 LINE",
"252 0 LINE",
"275 323 LINE",
"277 323 LINE",
"382 0 LINE",
"510 0 LINE",
"661 323 LINE",
"663 323 LINE",
"640 0 LINE",
"850 0 LINE",
"900 714 LINE",
"682 714 LINE",
"464 259 LINE",
"462 259 LINE",
"308 714 LINE",
"92 714 LINE"
);
}
);
width = 928;
},
{
anchors = (
{
name = Bottom;
position = "{432, 0}";
},
{
name = Top;
position = "{467, 714}";
}
);
layerId = "2AA43DF3-F741-4269-8311-3A3BEA5B2F2C";
paths = (
{
closed = 1;
nodes = (
"42 0 LINE",
"92 0 LINE",
"135 613 LINE",
"137 613 LINE",
"408 0 LINE",
"456 0 LINE",
"813 613 LINE",
"815 613 LINE",
"772 0 LINE",
"822 0 LINE",
"872 714 LINE",
"814 714 LINE",
"437 69 LINE",
"435 69 LINE",
"148 714 LINE",
"92 714 LINE"
);
}
);
width = 900;
},
{
anchors = (
{
name = Bottom;
position = "{496, 0}";
},
{
name = Top;
position = "{547, 714}";
}
);
layerId = "2B8C56A3-DCBD-4946-B3F7-595679620A89";
paths = (
{
closed = 1;
nodes = (
"42 0 LINE",
"252 0 LINE",
"275 323 LINE",
"277 323 LINE",
"432 0 LINE",
"560 0 LINE",
"761 323 LINE",
"763 323 LINE",
"740 0 LINE",
"950 0 LINE",
"1000 714 LINE",
"782 714 LINE",
"514 259 LINE",
"512 259 LINE",
"308 714 LINE",
"92 714 LINE"
);
}
);
width = 1028;
}
);
leftKerningGroup = H;
leftMetricsKey = N;
rightKerningGroup = H;
rightMetricsKey = N;
unicode = 004D;
},
{
glyphname = N;
lastChange = "2026-04-25 18:55:43 +0000";
layers = (
{
anchors = (
{
name = Bottom;
position = "{303, 0}";
},
{
name = Top;
position = "{358, 714}";
}
);
layerId = "FD4D3FDD-DE85-408F-A52A-FF600B1C6101";
paths = (
{
closed = 1;
nodes = (
"92 714 LINE",
"42 0 LINE",
"92 0 LINE",
"136 626 LINE",
"138 626 LINE",
"517 0 LINE",
"567 0 LINE",
"617 714 LINE",
"567 714 LINE",
"523 88 LINE",
"521 88 LINE",
"142 714 LINE"
);
}
);
width = 645;
},
{
anchors = (
{
name = Bottom;
position = "{403, 0}";
},
{
name = Top;
position = "{458, 714}";
}
);
layerId = m002;
paths = (
{
closed = 1;
nodes = (
"92 714 LINE",
"42 0 LINE",
"252 0 LINE",
"279 379 LINE",
"281 379 LINE",
"527 0 LINE",
"737 0 LINE",
"787 714 LINE",
"577 714 LINE",
"550 335 LINE",
"548 335 LINE",
"302 714 LINE"
);
}
);
width = 815;
},
{
anchors = (
{
name = Bottom;
position = "{354, 0}";
},
{
name = Top;
position = "{404, 714}";
}
);
layerId = "2AA43DF3-F741-4269-8311-3A3BEA5B2F2C";
paths = (
{
closed = 1;
nodes = (
"92 714 LINE",
"42 0 LINE",
"92 0 LINE",
"136 631 LINE",
"138 631 LINE",
"616 0 LINE",
"666 0 LINE",
"716 714 LINE",
"666 714 LINE",
"622 83 LINE",
"620 83 LINE",
"142 714 LINE"
);
}
);
width = 744;
},
{
anchors = (
{
name = Bottom;
position = "{403, 0}";
},
{
name = Top;
position = "{458, 714}";
}
);
layerId = "2B8C56A3-DCBD-4946-B3F7-595679620A89";
paths = (
{
closed = 1;
nodes = (
"92 714 LINE",
"42 0 LINE",
"252 0 LINE",
"280 404 LINE",
"283 404 LINE",
"596 0 LINE",
"806 0 LINE",
"856 714 LINE",
"646 714 LINE",
"618 310 LINE",
"615 310 LINE",
"302 714 LINE"
);
}
);
width = 884;
}
);
leftKerningGroup = H;
rightKerningGroup = H;
unicode = 004E;
},
{
glyphname = Nlefthook;
lastChange = "2026-04-25 18:55:43 +0000";
layers = (
{
layerId = "FD4D3FDD-DE85-408F-A52A-FF600B1C6101";
paths = (
{
closed = 1;
nodes = (
"219 714 LINE",
"164 -70 LINE SMOOTH",
"159 -143 OFFCURVE",
"120 -186 OFFCURVE",
"58 -186 CURVE SMOOTH",
"39 -186 OFFCURVE",
"21 -185 OFFCURVE",
"9 -182 CURVE",
"6 -230 LINE",
"20 -232 OFFCURVE",
"38 -233 OFFCURVE",
"53 -233 CURVE SMOOTH",
"147 -233 OFFCURVE",
"207 -172 OFFCURVE",
"214 -70 CURVE SMOOTH",
"262 626 LINE",
"264 626 LINE",
"644 0 LINE",
"694 0 LINE",
"744 714 LINE",
"694 714 LINE",
"650 88 LINE",
"648 88 LINE",
"269 714 LINE"
);
}
);
width = 772;
},
{
layerId = "2AA43DF3-F741-4269-8311-3A3BEA5B2F2C";
paths = (
{
closed = 1;
nodes = (
"219 714 LINE",
"164 -70 LINE SMOOTH",
"159 -143 OFFCURVE",
"120 -186 OFFCURVE",
"58 -186 CURVE SMOOTH",
"39 -186 OFFCURVE",
"21 -185 OFFCURVE",
"9 -182 CURVE",
"6 -230 LINE",
"20 -232 OFFCURVE",
"38 -233 OFFCURVE",
"53 -233 CURVE SMOOTH",
"147 -233 OFFCURVE",
"207 -172 OFFCURVE",
"214 -70 CURVE SMOOTH",
"263 631 LINE",
"265 631 LINE",
"743 0 LINE",
"793 0 LINE",
"843 714 LINE",
"793 714 LINE",
"748 83 LINE",
"746 83 LINE",
"269 714 LINE"
);
}
);
width = 871;
},
{
layerId = m002;
paths = (
{
closed = 1;
nodes = (
"159 714 LINE",
"108 -14 LINE SMOOTH",
"105 -47 OFFCURVE",
"86 -66 OFFCURVE",
"56 -66 CURVE SMOOTH",
"38 -66 OFFCURVE",
"30 -65 OFFCURVE",
"17 -62 CURVE",
"6 -230 LINE",
"16 -232 OFFCURVE",
"42 -233 OFFCURVE",
"73 -233 CURVE SMOOTH",
"217 -233 OFFCURVE",
"308 -150 OFFCURVE",
"318 -11 CURVE SMOOTH",
"345 379 LINE",
"347 379 LINE",
"594 0 LINE",
"804 0 LINE",
"854 714 LINE",
"644 714 LINE",
"617 335 LINE",
"615 335 LINE",
"369 714 LINE"
);
}
);
width = 882;
},
{
layerId = "2B8C56A3-DCBD-4946-B3F7-595679620A89";
paths = (
{
closed = 1;
nodes = (
"159 714 LINE",
"108 -14 LINE SMOOTH",
"105 -47 OFFCURVE",
"86 -66 OFFCURVE",
"56 -66 CURVE SMOOTH",
"38 -66 OFFCURVE",
"30 -65 OFFCURVE",
"17 -62 CURVE",
"6 -230 LINE",
"16 -232 OFFCURVE",
"42 -233 OFFCURVE",
"73 -233 CURVE SMOOTH",
"217 -233 OFFCURVE",
"308 -150 OFFCURVE",
"318 -10 CURVE SMOOTH",
"347 404 LINE",
"349 404 LINE",
"663 0 LINE",
"873 0 LINE",
"923 714 LINE",
"713 714 LINE",
"684 310 LINE",
"682 310 LINE",
"369 714 LINE"
);
}
);
width = 951;
}
);
leftKerningGroup = J;
leftMetricsKey = J;
rightKerningGroup = H;
rightMetricsKey = H;
unicode = 019D;
category = Letter;
},
{
glyphname = Eng;
lastChange = "2026-04-25 18:55:43 +0000";
layers = (
{
layerId = "FD4D3FDD-DE85-408F-A52A-FF600B1C6101";
paths = (
{
closed = 1;
nodes = (
"92 714 LINE",
"42 0 LINE",
"92 0 LINE",
"135 626 LINE",
"137 626 LINE",
"517 0 LINE",
"512 -68 LINE SMOOTH",
"507 -142 OFFCURVE",
"458 -186 OFFCURVE",
"379 -186 CURVE SMOOTH",
"356 -186 OFFCURVE",
"335 -181 OFFCURVE",
"323 -172 CURVE",
"319 -220 LINE",
"337 -228 OFFCURVE",
"357 -233 OFFCURVE",
"374 -233 CURVE SMOOTH",
"485 -233 OFFCURVE",
"555 -172 OFFCURVE",
"562 -68 CURVE SMOOTH",
"617 714 LINE",
"567 714 LINE",
"523 88 LINE",
"521 88 LINE",
"142 714 LINE"
);
}
);
width = 645;
},
{
layerId = m002;
paths = (
{
closed = 1;
nodes = (
"92 714 LINE",
"42 0 LINE",
"253 0 LINE",
"279 379 LINE",
"281 379 LINE",
"528 1 LINE",
"527 -5 LINE",
"525 -44 OFFCURVE",
"496 -67 OFFCURVE",
"463 -67 CURVE SMOOTH",
"441 -67 OFFCURVE",
"418 -61 OFFCURVE",
"402 -52 CURVE",
"390 -220 LINE",
"408 -228 OFFCURVE",
"430 -233 OFFCURVE",
"450 -233 CURVE SMOOTH",
"620 -233 OFFCURVE",
"727 -153 OFFCURVE",
"736 -18 CURVE SMOOTH",
"788 714 LINE",
"578 714 LINE",
"551 335 LINE",
"549 335 LINE",
"303 714 LINE"
);
}
);
width = 816;
},
{
layerId = "2AA43DF3-F741-4269-8311-3A3BEA5B2F2C";
paths = (
{
closed = 1;
nodes = (
"92 714 LINE",
"42 0 LINE",
"92 0 LINE",
"136 631 LINE",
"138 631 LINE",
"616 0 LINE",
"616 -1 LINE SMOOTH",
"607 -119 OFFCURVE",
"527 -186 OFFCURVE",
"398 -186 CURVE SMOOTH",
"363 -186 OFFCURVE",
"333 -181 OFFCURVE",
"317 -172 CURVE",
"313 -220 LINE",
"331 -228 OFFCURVE",
"360 -233 OFFCURVE",
"393 -233 CURVE SMOOTH",
"554 -233 OFFCURVE",
"655 -149 OFFCURVE",
"665 -8 CURVE SMOOTH",
"716 714 LINE",
"666 714 LINE",
"621 83 LINE",
"619 83 LINE",
"142 714 LINE"
);
}
);
width = 744;
},
{
layerId = "2B8C56A3-DCBD-4946-B3F7-595679620A89";
paths = (
{
closed = 1;
nodes = (
"92 714 LINE",
"42 0 LINE",
"253 0 LINE",
"281 404 LINE",
"283 404 LINE",
"585 16 LINE",
"585 15 LINE SMOOTH",
"581 -34 OFFCURVE",
"510 -57 OFFCURVE",
"448 -57 CURVE SMOOTH",
"425 -57 OFFCURVE",
"396 -51 OFFCURVE",
"377 -42 CURVE",
"364 -220 LINE",
"382 -228 OFFCURVE",
"415 -233 OFFCURVE",
"450 -233 CURVE SMOOTH",
"644 -233 OFFCURVE",
"797 -142 OFFCURVE",
"807 0 CURVE SMOOTH",
"858 714 LINE",
"647 714 LINE",
"618 300 LINE",
"616 300 LINE",
"303 714 LINE"
);
}
);
width = 886;
}
);
leftKerningGroup = H;
leftMetricsKey = N;
rightKerningGroup = H;
rightMetricsKey = N;
unicode = 014A;
},
{
glyphname = O;
lastChange = "2026-04-25 18:55:43 +0000";
layers = (
{
anchors = (
{
name = Bottom;
position = "{349, 0}";
},
{
name = Greek;
position = "{16, 558}";
},
{
name = Top;
position = "{398, 726}";
}
);
layerId = "FD4D3FDD-DE85-408F-A52A-FF600B1C6101";
paths = (
{
closed = 1;
nodes = (
"553 -13 OFFCURVE",
"690 150 OFFCURVE",
"690 395 CURVE SMOOTH",
"690 594 OFFCURVE",
"573 726 OFFCURVE",
"397 726 CURVE SMOOTH",
"192 726 OFFCURVE",
"56 562 OFFCURVE",
"56 317 CURVE SMOOTH",
"56 119 OFFCURVE",
"173 -13 OFFCURVE",
"348 -13 CURVE SMOOTH"
);
},
{
closed = 1;
nodes = (
"105 535 OFFCURVE",
"221 677 OFFCURVE",
"396 677 CURVE SMOOTH",
"543 677 OFFCURVE",
"641 563 OFFCURVE",
"641 391 CURVE SMOOTH",
"641 177 OFFCURVE",
"524 35 OFFCURVE",
"349 35 CURVE SMOOTH",
"203 35 OFFCURVE",
"105 149 OFFCURVE",
"105 321 CURVE SMOOTH"
);
}
);
width = 732;
},
{
anchors = (
{
name = Bottom;
position = "{391, 0}";
},
{
name = Greek;
position = "{-14, 558}";
},
{
name = Top;
position = "{441, 726}";
}
);
layerId = m002;
paths = (
{
closed = 1;
nodes = (
"639 -13 OFFCURVE",
"784 137 OFFCURVE",
"784 391 CURVE SMOOTH",
"784 602 OFFCURVE",
"655 726 OFFCURVE",
"436 726 CURVE SMOOTH",
"191 726 OFFCURVE",
"46 576 OFFCURVE",
"46 321 CURVE SMOOTH",
"46 111 OFFCURVE",
"175 -13 OFFCURVE",
"393 -13 CURVE SMOOTH"
);
},
{
closed = 1;
nodes = (
"265 471 OFFCURVE",
"327 558 OFFCURVE",
"433 558 CURVE SMOOTH",
"516 558 OFFCURVE",
"565 496 OFFCURVE",
"565 390 CURVE SMOOTH",
"565 242 OFFCURVE",
"502 155 OFFCURVE",
"396 155 CURVE SMOOTH",
"314 155 OFFCURVE",
"265 218 OFFCURVE",
"265 325 CURVE SMOOTH"
);
}
);
width = 816;
},
{
anchors = (
{
name = Bottom;
position = "{419, 0}";
},
{
name = Greek;
position = "{16, 558}";
},
{
name = Top;
position = "{468, 726}";
}
);
layerId = "2AA43DF3-F741-4269-8311-3A3BEA5B2F2C";
paths = (
{
closed = 1;
nodes = (
"665 -13 OFFCURVE",
"830 153 OFFCURVE",
"830 388 CURVE SMOOTH",
"830 593 OFFCURVE",
"688 726 OFFCURVE",
"467 726 CURVE SMOOTH",
"221 726 OFFCURVE",
"56 559 OFFCURVE",
"56 324 CURVE SMOOTH",
"56 120 OFFCURVE",
"197 -13 OFFCURVE",
"418 -13 CURVE SMOOTH"
);
},
{
closed = 1;
nodes = (
"105 535 OFFCURVE",
"254 677 OFFCURVE",
"466 677 CURVE SMOOTH",
"657 677 OFFCURVE",
"781 561 OFFCURVE",
"781 384 CURVE SMOOTH",
"781 177 OFFCURVE",
"632 35 OFFCURVE",
"419 35 CURVE SMOOTH",
"228 35 OFFCURVE",
"105 151 OFFCURVE",
"105 328 CURVE SMOOTH"
);
}
);
width = 872;
},
{
anchors = (
{
name = Bottom;
position = "{441, 0}";
},
{
name = Greek;
position = "{-4, 558}";
},
{
name = Top;
position = "{491, 726}";
}
);
layerId = "2B8C56A3-DCBD-4946-B3F7-595679620A89";
paths = (
{
closed = 1;
nodes = (
"713 -13 OFFCURVE",
"884 132 OFFCURVE",
"884 387 CURVE SMOOTH",
"884 601 OFFCURVE",
"739 726 OFFCURVE",
"486 726 CURVE SMOOTH",
"217 726 OFFCURVE",
"46 581 OFFCURVE",
"46 325 CURVE SMOOTH",
"46 112 OFFCURVE",
"191 -13 OFFCURVE",
"443 -13 CURVE SMOOTH"
);
},
{
closed = 1;
nodes = (
"275 481 OFFCURVE",
"356 558 OFFCURVE",
"483 558 CURVE SMOOTH",
"599 558 OFFCURVE",
"665 493 OFFCURVE",
"665 383 CURVE SMOOTH",
"665 240 OFFCURVE",
"581 155 OFFCURVE",
"446 155 CURVE SMOOTH",
"325 155 OFFCURVE",
"258 228 OFFCURVE",
"266 351 CURVE SMOOTH"
);
}
);
width = 916;
}
);
leftKerningGroup = O;
rightKerningGroup = O;
unicode = 004F;
},
{
glyphname = Obarred;
lastChange = "2026-04-25 18:55:43 +0000";
layers = (
{
layerId = "FD4D3FDD-DE85-408F-A52A-FF600B1C6101";
paths = (
{
closed = 1;
nodes = (
"553 -13 OFFCURVE",
"690 150 OFFCURVE",
"690 395 CURVE SMOOTH",
"690 594 OFFCURVE",
"573 726 OFFCURVE",
"397 726 CURVE SMOOTH",
"192 726 OFFCURVE",
"56 562 OFFCURVE",
"56 317 CURVE SMOOTH",
"56 119 OFFCURVE",
"173 -13 OFFCURVE",
"348 -13 CURVE SMOOTH"
);
},
{
closed = 1;
nodes = (
"105 535 OFFCURVE",
"221 677 OFFCURVE",
"396 677 CURVE SMOOTH",
"543 677 OFFCURVE",
"641 563 OFFCURVE",
"641 391 CURVE SMOOTH",
"641 177 OFFCURVE",
"524 35 OFFCURVE",
"349 35 CURVE SMOOTH",
"203 35 OFFCURVE",
"105 149 OFFCURVE",
"105 321 CURVE SMOOTH"
);
},
{
closed = 1;
nodes = (
"75 335 LINE",
"668 335 LINE",
"671 378 LINE",
"168 373 LINE",
"78 378 LINE"
);
}
);
width = 732;
},
{
layerId = "2AA43DF3-F741-4269-8311-3A3BEA5B2F2C";
paths = (
{
closed = 1;
nodes = (
"665 -13 OFFCURVE",
"830 153 OFFCURVE",
"830 388 CURVE SMOOTH",
"830 593 OFFCURVE",
"688 726 OFFCURVE",
"467 726 CURVE SMOOTH",
"221 726 OFFCURVE",
"56 559 OFFCURVE",
"56 324 CURVE SMOOTH",
"56 120 OFFCURVE",
"197 -13 OFFCURVE",
"418 -13 CURVE SMOOTH"
);
},
{
closed = 1;
nodes = (
"105 535 OFFCURVE",
"254 677 OFFCURVE",
"466 677 CURVE SMOOTH",
"657 677 OFFCURVE",
"781 561 OFFCURVE",
"781 384 CURVE SMOOTH",
"781 177 OFFCURVE",
"632 35 OFFCURVE",
"419 35 CURVE SMOOTH",
"228 35 OFFCURVE",
"105 151 OFFCURVE",
"105 328 CURVE SMOOTH"
);
},
{
closed = 1;
nodes = (
"75 332 LINE",
"809 332 LINE",
"812 381 LINE",
"168 376 LINE",
"78 382 LINE"
);
}
);
width = 872;
},
{
layerId = m002;
paths = (
{
closed = 1;
nodes = (
"639 -13 OFFCURVE",
"784 137 OFFCURVE",
"784 391 CURVE SMOOTH",
"784 602 OFFCURVE",
"655 726 OFFCURVE",
"436 726 CURVE SMOOTH",
"191 726 OFFCURVE",
"46 576 OFFCURVE",
"46 321 CURVE SMOOTH",
"46 111 OFFCURVE",
"175 -13 OFFCURVE",
"393 -13 CURVE SMOOTH"
);
},
{
closed = 1;
nodes = (
"265 471 OFFCURVE",
"327 558 OFFCURVE",
"433 558 CURVE SMOOTH",
"516 558 OFFCURVE",
"565 496 OFFCURVE",
"565 390 CURVE SMOOTH",
"565 242 OFFCURVE",
"502 155 OFFCURVE",
"396 155 CURVE SMOOTH",
"314 155 OFFCURVE",
"265 218 OFFCURVE",
"265 325 CURVE SMOOTH"
);
},
{
closed = 1;
nodes = (
"241 296 LINE",
"715 296 LINE",
"724 418 LINE",
"340 413 LINE",
"250 418 LINE"
);
}
);
width = 816;
},
{
layerId = "2B8C56A3-DCBD-4946-B3F7-595679620A89";
paths = (
{
closed = 1;
nodes = (
"713 -13 OFFCURVE",
"884 132 OFFCURVE",
"884 387 CURVE SMOOTH",
"884 601 OFFCURVE",
"739 726 OFFCURVE",
"486 726 CURVE SMOOTH",
"217 726 OFFCURVE",
"46 581 OFFCURVE",
"46 325 CURVE SMOOTH",
"46 112 OFFCURVE",
"191 -13 OFFCURVE",
"443 -13 CURVE SMOOTH"
);
},
{
closed = 1;
nodes = (
"275 481 OFFCURVE",
"356 558 OFFCURVE",
"483 558 CURVE SMOOTH",
"599 558 OFFCURVE",
"665 493 OFFCURVE",
"665 383 CURVE SMOOTH",
"665 240 OFFCURVE",
"581 155 OFFCURVE",
"446 155 CURVE SMOOTH",
"325 155 OFFCURVE",
"258 228 OFFCURVE",
"266 351 CURVE SMOOTH"
);
},
{
closed = 1;
nodes = (
"232 296 LINE",
"786 296 LINE",
"795 419 LINE",
"331 414 LINE",
"241 418 LINE"
);
}
);
width = 916;
}
);
leftKerningGroup = O;
leftMetricsKey = O;
rightKerningGroup = O;
rightMetricsKey = O;
unicode = 019F;
},
{
glyphname = Oopen;
lastChange = "2026-04-25 18:55:43 +0000";
layers = (
{
layerId = "FD4D3FDD-DE85-408F-A52A-FF600B1C6101";
paths = (
{
closed = 1;
nodes = (
"74 607 LINE",
"123 650 OFFCURVE",
"205 678 OFFCURVE",
"281 678 CURVE SMOOTH",
"418 678 OFFCURVE",
"509 564 OFFCURVE",
"509 394 CURVE SMOOTH",
"509 179 OFFCURVE",
"397 35 OFFCURVE",
"228 35 CURVE SMOOTH",
"157 35 OFFCURVE",
"81 63 OFFCURVE",
"39 105 CURVE",
"36 49 LINE",
"75 12 OFFCURVE",
"152 -13 OFFCURVE",
"227 -13 CURVE SMOOTH",
"426 -13 OFFCURVE",
"559 150 OFFCURVE",
"559 395 CURVE SMOOTH",
"559 594 OFFCURVE",
"448 726 OFFCURVE",
"282 726 CURVE SMOOTH",
"207 726 OFFCURVE",
"125 702 OFFCURVE",
"78 666 CURVE"
);
}
);
width = 601;
},
{
layerId = m002;
paths = (
{
closed = 1;
nodes = (
"61 504 LINE",
"98 536 OFFCURVE",
"155 558 OFFCURVE",
"203 558 CURVE SMOOTH",
"300 558 OFFCURVE",
"365 489 OFFCURVE",
"365 386 CURVE SMOOTH",
"365 247 OFFCURVE",
"295 155 OFFCURVE",
"190 155 CURVE SMOOTH",
"129 155 OFFCURVE",
"67 175 OFFCURVE",
"36 204 CURVE",
"26 9 LINE",
"72 -4 OFFCURVE",
"137 -13 OFFCURVE",
"187 -13 CURVE SMOOTH",
"425 -13 OFFCURVE",
"584 149 OFFCURVE",
"584 391 CURVE SMOOTH",
"584 592 OFFCURVE",
"438 726 OFFCURVE",
"220 726 CURVE SMOOTH",
"180 726 OFFCURVE",
"120 717 OFFCURVE",
"71 704 CURVE"
);
}
);
width = 616;
},
{
layerId = "2AA43DF3-F741-4269-8311-3A3BEA5B2F2C";
paths = (
{
closed = 1;
nodes = (
"74 607 LINE",
"127 650 OFFCURVE",
"226 678 OFFCURVE",
"321 678 CURVE SMOOTH",
"482 678 OFFCURVE",
"589 562 OFFCURVE",
"589 389 CURVE SMOOTH",
"589 177 OFFCURVE",
"461 35 OFFCURVE",
"268 35 CURVE SMOOTH",
"173 35 OFFCURVE",
"81 63 OFFCURVE",
"39 105 CURVE",
"36 49 LINE",
"75 12 OFFCURVE",
"168 -13 OFFCURVE",
"267 -13 CURVE SMOOTH",
"490 -13 OFFCURVE",
"639 148 OFFCURVE",
"639 390 CURVE SMOOTH",
"639 592 OFFCURVE",
"508 726 OFFCURVE",
"312 726 CURVE SMOOTH",
"224 726 OFFCURVE",
"130 702 OFFCURVE",
"78 666 CURVE"
);
}
);
width = 681;
},
{
layerId = "2B8C56A3-DCBD-4946-B3F7-595679620A89";
paths = (
{
closed = 1;
nodes = (
"61 505 LINE",
"119 537 OFFCURVE",
"199 558 OFFCURVE",
"261 558 CURVE SMOOTH",
"371 558 OFFCURVE",
"445 488 OFFCURVE",
"445 383 CURVE SMOOTH",
"445 246 OFFCURVE",
"359 155 OFFCURVE",
"231 155 CURVE SMOOTH",
"158 155 OFFCURVE",
"80 175 OFFCURVE",
"36 205 CURVE",
"26 9 LINE",
"76 -4 OFFCURVE",
"156 -13 OFFCURVE",
"227 -13 CURVE SMOOTH",
"489 -13 OFFCURVE",
"664 147 OFFCURVE",
"664 388 CURVE SMOOTH",
"664 591 OFFCURVE",
"506 726 OFFCURVE",
"269 726 CURVE SMOOTH",
"207 726 OFFCURVE",
"128 717 OFFCURVE",
"71 704 CURVE"
);
}
);
width = 696;
}
);
leftKerningGroup = O;
leftMetricsKey = O;
rightKerningGroup = O;
rightMetricsKey = O;
unicode = 0186;
},
{
glyphname = Oslash;
lastChange = "2026-04-25 22:13:55 +0000";
layers = (
{
anchors = (
{
name = Top;
position = "{366, 726}";
}
);
layerId = "FD4D3FDD-DE85-408F-A52A-FF600B1C6101";
paths = (
{
closed = 1;
nodes = (
"233 9 LINE",
"268 -5 OFFCURVE",
"306 -13 OFFCURVE",
"348 -13 CURVE SMOOTH",
"553 -13 OFFCURVE",
"690 150 OFFCURVE",
"690 395 CURVE SMOOTH",
"690 538 OFFCURVE",
"630 646 OFFCURVE",
"531 696 CURVE",
"567 778 LINE",
"509 778 LINE",
"482 714 LINE",
"455 722 OFFCURVE",
"427 726 OFFCURVE",
"397 726 CURVE SMOOTH",
"192 726 OFFCURVE",
"56 562 OFFCURVE",
"56 317 CURVE SMOOTH",
"56 189 OFFCURVE",
"105 89 OFFCURVE",
"186 34 CURVE",
"144 -64 LINE",
"202 -64 LINE"
);
},
{
closed = 1;
nodes = (
"105 558 OFFCURVE",
"257 718 OFFCURVE",
"462 669 CURVE",
"207 81 LINE",
"143 129 OFFCURVE",
"105 214 OFFCURVE",
"105 321 CURVE SMOOTH"
);
},
{
closed = 1;
nodes = (
"511 649 LINE",
"592 605 OFFCURVE",
"641 513 OFFCURVE",
"641 391 CURVE SMOOTH",
"641 98 OFFCURVE",
"423 -16 OFFCURVE",
"253 54 CURVE"
);
}
);
width = 732;
},
{
anchors = (
{
name = Top;
position = "{336, 726}";
}
);
layerId = m002;
paths = (
{
closed = 1;
nodes = (
"348 -11 LINE",
"398 -13 OFFCURVE",
"404 -13 OFFCURVE",
"409 -13 CURVE SMOOTH",
"645 -6 OFFCURVE",
"784 143 OFFCURVE",
"784 391 CURVE SMOOTH",
"784 522 OFFCURVE",
"735 619 OFFCURVE",
"645 674 CURVE",
"690 778 LINE",
"514 778 LINE",
"490 723 LINE",
"473 725 OFFCURVE",
"455 726 OFFCURVE",
"436 726 CURVE SMOOTH",
"191 726 OFFCURVE",
"46 576 OFFCURVE",
"46 321 CURVE SMOOTH",
"46 188 OFFCURVE",
"98 89 OFFCURVE",
"192 35 CURVE",
"149 -64 LINE",
"325 -64 LINE"
);
},
{
closed = 1;
nodes = (
"265 464 OFFCURVE",
"321 550 OFFCURVE",
"418 557 CURVE",
"279 237 LINE",
"270 261 OFFCURVE",
"265 291 OFFCURVE",
"265 325 CURVE SMOOTH"
);
},
{
closed = 1;
nodes = (
"555 466 LINE",
"561 444 OFFCURVE",
"565 419 OFFCURVE",
"565 390 CURVE SMOOTH",
"565 254 OFFCURVE",
"512 169 OFFCURVE",
"421 157 CURVE"
);
}
);
width = 816;
},
{
anchors = (
{
name = Top;
position = "{454, 726}";
}
);
layerId = "2AA43DF3-F741-4269-8311-3A3BEA5B2F2C";
paths = (
{
closed = 1;
nodes = (
"317 -3 LINE",
"348 -9 OFFCURVE",
"382 -13 OFFCURVE",
"418 -13 CURVE SMOOTH",
"665 -13 OFFCURVE",
"830 153 OFFCURVE",
"830 388 CURVE SMOOTH",
"830 540 OFFCURVE",
"752 652 OFFCURVE",
"621 700 CURVE",
"655 778 LINE",
"597 778 LINE",
"570 714 LINE",
"538 722 OFFCURVE",
"504 726 OFFCURVE",
"467 726 CURVE SMOOTH",
"221 726 OFFCURVE",
"56 559 OFFCURVE",
"56 324 CURVE SMOOTH",
"56 172 OFFCURVE",
"134 60 OFFCURVE",
"265 12 CURVE",
"232 -64 LINE",
"290 -64 LINE"
);
},
{
closed = 1;
nodes = (
"105 581 OFFCURVE",
"323 713 OFFCURVE",
"550 669 CURVE",
"285 58 LINE",
"172 99 OFFCURVE",
"105 197 OFFCURVE",
"105 328 CURVE SMOOTH"
);
},
{
closed = 1;
nodes = (
"601 654 LINE",
"713 612 OFFCURVE",
"781 515 OFFCURVE",
"781 384 CURVE SMOOTH",
"781 134 OFFCURVE",
"566 -1 OFFCURVE",
"336 43 CURVE"
);
}
);
width = 872;
},
{
anchors = (
{
name = Top;
position = "{406, 726}";
}
);
layerId = "2B8C56A3-DCBD-4946-B3F7-595679620A89";
paths = (
{
closed = 1;
nodes = (
"393 -11 LINE",
"424 -12 OFFCURVE",
"445 -13 OFFCURVE",
"447 -13 CURVE SMOOTH",
"715 -13 OFFCURVE",
"884 133 OFFCURVE",
"884 387 CURVE SMOOTH",
"884 532 OFFCURVE",
"818 636 OFFCURVE",
"696 688 CURVE",
"735 778 LINE",
"559 778 LINE",
"536 724 LINE",
"517 725 OFFCURVE",
"496 726 OFFCURVE",
"483 726 CURVE SMOOTH",
"216 726 OFFCURVE",
"46 580 OFFCURVE",
"46 325 CURVE SMOOTH",
"46 181 OFFCURVE",
"112 77 OFFCURVE",
"233 25 CURVE",
"194 -64 LINE",
"370 -64 LINE"
);
},
{
closed = 1;
nodes = (
"275 474 OFFCURVE",
"348 550 OFFCURVE",
"463 557 CURVE",
"310 204 LINE",
"278 238 OFFCURVE",
"262 288 OFFCURVE",
"266 351 CURVE SMOOTH"
);
},
{
closed = 1;
nodes = (
"619 510 LINE",
"649 480 OFFCURVE",
"665 437 OFFCURVE",
"665 383 CURVE SMOOTH",
"665 247 OFFCURVE",
"589 163 OFFCURVE",
"465 156 CURVE"
);
}
);
width = 916;
}
);
leftKerningGroup = O;
leftMetricsKey = O;
rightKerningGroup = O;
rightMetricsKey = O;
unicode = 00D8;
},
{
glyphname = OE;
lastChange = "2026-04-25 18:55:43 +0000";
layers = (
{
layerId = "FD4D3FDD-DE85-408F-A52A-FF600B1C6101";
paths = (
{
closed = 1;
nodes = (
"603 392 LINE",
"622 666 LINE",
"963 666 LINE",
"967 714 LINE",
"402 714 LINE SMOOTH",
"184 714 OFFCURVE",
"56 536 OFFCURVE",
"56 321 CURVE SMOOTH",
"56 127 OFFCURVE",
"171 0 OFFCURVE",
"352 0 CURVE SMOOTH",
"917 0 LINE",
"920 48 LINE",
"579 48 LINE",
"600 344 LINE",
"920 344 LINE",
"923 392 LINE"
);
},
{
closed = 1;
nodes = (
"106 507 OFFCURVE",
"211 666 OFFCURVE",
"398 666 CURVE SMOOTH",
"572 666 LINE",
"529 48 LINE",
"355 48 LINE SMOOTH",
"203 48 OFFCURVE",
"106 157 OFFCURVE",
"106 324 CURVE SMOOTH"
);
}
);
width = 985;
},
{
layerId = m002;
paths = (
{
closed = 1;
nodes = (
"698 452 LINE",
"705 546 LINE",
"1010 546 LINE",
"1022 714 LINE",
"447 714 LINE SMOOTH",
"191 714 OFFCURVE",
"46 559 OFFCURVE",
"46 321 CURVE SMOOTH",
"46 119 OFFCURVE",
"174 0 OFFCURVE",
"397 0 CURVE SMOOTH",
"972 0 LINE",
"983 168 LINE",
"678 168 LINE",
"686 284 LINE",
"970 284 LINE",
"982 452 LINE"
);
},
{
closed = 1;
nodes = (
"266 466 OFFCURVE",
"331 546 OFFCURVE",
"435 546 CURVE SMOOTH",
"494 546 LINE",
"467 168 LINE",
"408 168 LINE SMOOTH",
"318 168 OFFCURVE",
"266 228 OFFCURVE",
"266 332 CURVE SMOOTH"
);
}
);
width = 1030;
},
{
layerId = "2AA43DF3-F741-4269-8311-3A3BEA5B2F2C";
paths = (
{
closed = 1;
nodes = (
"643 392 LINE",
"662 666 LINE",
"1153 666 LINE",
"1157 714 LINE",
"422 714 LINE SMOOTH",
"197 714 OFFCURVE",
"56 544 OFFCURVE",
"56 323 CURVE SMOOTH",
"56 128 OFFCURVE",
"179 0 OFFCURVE",
"372 0 CURVE SMOOTH",
"1107 0 LINE",
"1110 48 LINE",
"619 48 LINE",
"640 344 LINE",
"1110 344 LINE",
"1113 392 LINE"
);
},
{
closed = 1;
nodes = (
"106 529 OFFCURVE",
"235 666 OFFCURVE",
"418 666 CURVE SMOOTH",
"612 666 LINE",
"569 48 LINE",
"375 48 LINE SMOOTH",
"211 48 OFFCURVE",
"106 158 OFFCURVE",
"106 326 CURVE SMOOTH"
);
}
);
width = 1175;
},
{
layerId = "2B8C56A3-DCBD-4946-B3F7-595679620A89";
paths = (
{
closed = 1;
nodes = (
"778 452 LINE",
"785 546 LINE",
"1230 546 LINE",
"1242 714 LINE",
"467 714 LINE SMOOTH",
"219 714 OFFCURVE",
"46 557 OFFCURVE",
"46 328 CURVE SMOOTH",
"46 130 OFFCURVE",
"191 0 OFFCURVE",
"417 0 CURVE SMOOTH",
"1192 0 LINE",
"1203 168 LINE",
"758 168 LINE",
"766 284 LINE",
"1190 284 LINE",
"1202 452 LINE"
);
},
{
closed = 1;
nodes = (
"266 462 OFFCURVE",
"344 546 OFFCURVE",
"455 546 CURVE SMOOTH",
"574 546 LINE",
"547 168 LINE",
"428 168 LINE SMOOTH",
"329 168 OFFCURVE",
"266 236 OFFCURVE",
"266 338 CURVE SMOOTH"
);
}
);
width = 1250;
}
);
leftKerningGroup = O;
leftMetricsKey = O;
rightKerningGroup = E;
rightMetricsKey = E;
unicode = 0152;
},
{
glyphname = P;
lastChange = "2026-04-25 18:55:43 +0000";
layers = (
{
anchors = (
{
name = Bottom;
position = "{236, 0}";
},
{
name = Top;
position = "{272, 714}";
}
);
layerId = "FD4D3FDD-DE85-408F-A52A-FF600B1C6101";
paths = (
{
closed = 1;
nodes = (
"112 291 LINE",
"301 291 LINE SMOOTH",
"426 291 OFFCURVE",
"510 383 OFFCURVE",
"510 522 CURVE SMOOTH",
"510 637 OFFCURVE",
"433 714 OFFCURVE",
"318 714 CURVE SMOOTH",
"92 714 LINE",
"42 0 LINE",
"92 0 LINE"
);
},
{
closed = 1;
nodes = (
"139 666 LINE",
"316 666 LINE SMOOTH",
"402 666 OFFCURVE",
"460 608 OFFCURVE",
"460 520 CURVE SMOOTH",
"460 411 OFFCURVE",
"397 338 OFFCURVE",
"303 338 CURVE SMOOTH",
"116 338 LINE"
);
}
);
width = 532;
},
{
anchors = (
{
name = Bottom;
position = "{296, 0}";
},
{
name = Top;
position = "{332, 714}";
}
);
layerId = m002;
paths = (
{
closed = 1;
nodes = (
"267 221 LINE",
"387 221 LINE SMOOTH",
"576 221 OFFCURVE",
"687 319 OFFCURVE",
"687 485 CURVE SMOOTH",
"687 629 OFFCURVE",
"583 714 OFFCURVE",
"406 714 CURVE SMOOTH",
"92 714 LINE",
"42 0 LINE",
"252 0 LINE"
);
},
{
closed = 1;
nodes = (
"290 546 LINE",
"399 546 LINE SMOOTH",
"448 546 OFFCURVE",
"477 521 OFFCURVE",
"477 480 CURVE SMOOTH",
"477 423 OFFCURVE",
"447 389 OFFCURVE",
"395 389 CURVE SMOOTH",
"279 389 LINE"
);
}
);
width = 712;
},
{
anchors = (
{
name = Bottom;
position = "{236, 0}";
},
{
name = Top;
position = "{312, 714}";
}
);
layerId = "2AA43DF3-F741-4269-8311-3A3BEA5B2F2C";
paths = (
{
closed = 1;
nodes = (
"112 291 LINE",
"461 291 LINE SMOOTH",
"589 291 OFFCURVE",
"680 375 OFFCURVE",
"689 502 CURVE SMOOTH",
"698 629 OFFCURVE",
"613 714 OFFCURVE",
"478 714 CURVE SMOOTH",
"92 714 LINE",
"42 0 LINE",
"92 0 LINE"
);
},
{
closed = 1;
nodes = (
"139 666 LINE",
"476 666 LINE SMOOTH",
"581 666 OFFCURVE",
"646 602 OFFCURVE",
"639 504 CURVE SMOOTH",
"632 405 OFFCURVE",
"561 338 OFFCURVE",
"463 338 CURVE SMOOTH",
"116 338 LINE"
);
}
);
width = 712;
},
{
anchors = (
{
name = Bottom;
position = "{296, 0}";
},
{
name = Top;
position = "{382, 714}";
}
);
layerId = "2B8C56A3-DCBD-4946-B3F7-595679620A89";
paths = (
{
closed = 1;
nodes = (
"267 221 LINE",
"497 221 LINE SMOOTH",
"673 221 OFFCURVE",
"796 318 OFFCURVE",
"806 463 CURVE SMOOTH",
"817 614 OFFCURVE",
"699 714 OFFCURVE",
"516 714 CURVE SMOOTH",
"92 714 LINE",
"42 0 LINE",
"252 0 LINE"
);
},
{
closed = 1;
nodes = (
"290 546 LINE",
"509 546 LINE SMOOTH",
"566 546 OFFCURVE",
"600 517 OFFCURVE",
"597 473 CURVE SMOOTH",
"593 423 OFFCURVE",
"555 389 OFFCURVE",
"505 389 CURVE SMOOTH",
"279 389 LINE"
);
}
);
width = 832;
}
);
leftKerningGroup = H;
leftMetricsKey = N;
rightKerningGroup = P;
unicode = 0050;
},
{
glyphname = Thorn;
lastChange = "2026-04-25 18:55:43 +0000";
layers = (
{
layerId = "FD4D3FDD-DE85-408F-A52A-FF600B1C6101";
paths = (
{
closed = 1;
nodes = (
"103 151 LINE",
"300 151 LINE SMOOTH",
"436 151 OFFCURVE",
"519 237 OFFCURVE",
"519 379 CURVE SMOOTH",
"519 502 OFFCURVE",
"446 574 OFFCURVE",
"319 574 CURVE SMOOTH",
"132 574 LINE",
"142 714 LINE",
"92 714 LINE",
"42 0 LINE",
"92 0 LINE"
);
},
{
closed = 1;
nodes = (
"129 526 LINE",
"314 526 LINE SMOOTH",
"412 526 OFFCURVE",
"469 470 OFFCURVE",
"469 374 CURVE SMOOTH",
"469 264 OFFCURVE",
"405 199 OFFCURVE",
"302 199 CURVE SMOOTH",
"106 199 LINE"
);
}
);
width = 552;
},
{
layerId = m002;
paths = (
{
closed = 1;
nodes = (
"260 110 LINE",
"377 110 LINE SMOOTH",
"556 110 OFFCURVE",
"668 202 OFFCURVE",
"679 357 CURVE SMOOTH",
"689 512 OFFCURVE",
"586 603 OFFCURVE",
"401 603 CURVE SMOOTH",
"295 603 LINE",
"302 714 LINE",
"92 714 LINE",
"42 0 LINE",
"252 0 LINE"
);
},
{
closed = 1;
nodes = (
"283 435 LINE",
"389 435 LINE SMOOTH",
"440 435 OFFCURVE",
"469 409 OFFCURVE",
"469 364 CURVE SMOOTH",
"469 310 OFFCURVE",
"438 278 OFFCURVE",
"389 278 CURVE SMOOTH",
"272 278 LINE"
);
}
);
width = 712;
},
{
layerId = "2AA43DF3-F741-4269-8311-3A3BEA5B2F2C";
paths = (
{
closed = 1;
nodes = (
"103 151 LINE",
"450 151 LINE SMOOTH",
"585 151 OFFCURVE",
"679 243 OFFCURVE",
"679 376 CURVE SMOOTH",
"679 495 OFFCURVE",
"597 574 OFFCURVE",
"469 574 CURVE SMOOTH",
"132 574 LINE",
"142 714 LINE",
"92 714 LINE",
"42 0 LINE",
"92 0 LINE"
);
},
{
closed = 1;
nodes = (
"129 526 LINE",
"465 526 LINE SMOOTH",
"565 526 OFFCURVE",
"629 464 OFFCURVE",
"629 371 CURVE SMOOTH",
"629 268 OFFCURVE",
"556 199 OFFCURVE",
"453 199 CURVE SMOOTH",
"106 199 LINE"
);
}
);
width = 712;
},
{
layerId = "2B8C56A3-DCBD-4946-B3F7-595679620A89";
paths = (
{
closed = 1;
nodes = (
"260 111 LINE",
"487 111 LINE SMOOTH",
"663 111 OFFCURVE",
"788 210 OFFCURVE",
"799 358 CURVE SMOOTH",
"809 506 OFFCURVE",
"694 604 OFFCURVE",
"511 604 CURVE SMOOTH",
"295 604 LINE",
"303 714 LINE",
"92 714 LINE",
"42 0 LINE",
"253 0 LINE"
);
},
{
closed = 1;
nodes = (
"283 436 LINE",
"499 436 LINE SMOOTH",
"554 436 OFFCURVE",
"589 407 OFFCURVE",
"589 363 CURVE SMOOTH",
"589 313 OFFCURVE",
"551 279 OFFCURVE",
"499 279 CURVE SMOOTH",
"272 279 LINE"
);
}
);
width = 832;
}
);
leftKerningGroup = H;
leftMetricsKey = P;
rightKerningGroup = P;
rightMetricsKey = P;
unicode = 00DE;
},
{
glyphname = Q;
lastChange = "2026-04-25 18:55:43 +0000";
layers = (
{
layerId = "FD4D3FDD-DE85-408F-A52A-FF600B1C6101";
paths = (
{
closed = 1;
nodes = (
"406 -13 OFFCURVE",
"458 -2 OFFCURVE",
"503 20 CURVE",
"540 -54 LINE",
"585 -29 LINE",
"547 46 LINE",
"640 113 OFFCURVE",
"691 236 OFFCURVE",
"691 401 CURVE SMOOTH",
"691 605 OFFCURVE",
"582 726 OFFCURVE",
"397 726 CURVE SMOOTH",
"182 726 OFFCURVE",
"55 572 OFFCURVE",
"55 311 CURVE SMOOTH",
"55 107 OFFCURVE",
"164 -13 OFFCURVE",
"348 -13 CURVE SMOOTH"
);
},
{
closed = 1;
nodes = (
"105 543 OFFCURVE",
"213 678 OFFCURVE",
"396 678 CURVE SMOOTH",
"550 678 OFFCURVE",
"641 574 OFFCURVE",
"641 397 CURVE SMOOTH",
"641 255 OFFCURVE",
"599 150 OFFCURVE",
"524 91 CURVE",
"461 213 LINE",
"417 188 LINE",
"480 63 LINE",
"442 45 OFFCURVE",
"398 35 OFFCURVE",
"349 35 CURVE SMOOTH",
"196 35 OFFCURVE",
"105 139 OFFCURVE",
"105 315 CURVE SMOOTH"
);
}
);
width = 733;
},
{
layerId = m002;
paths = (
{
closed = 1;
nodes = (
"428 -13 OFFCURVE",
"463 -9 OFFCURVE",
"496 -3 CURVE",
"536 -84 LINE",
"670 -9 LINE",
"637 58 LINE",
"746 135 OFFCURVE",
"784 266 OFFCURVE",
"784 391 CURVE SMOOTH",
"784 603 OFFCURVE",
"656 726 OFFCURVE",
"436 726 CURVE SMOOTH",
"176 726 OFFCURVE",
"46 554 OFFCURVE",
"46 321 CURVE SMOOTH",
"46 110 OFFCURVE",
"174 -13 OFFCURVE",
"393 -13 CURVE SMOOTH"
);
},
{
closed = 1;
nodes = (
"255 471 OFFCURVE",
"326 558 OFFCURVE",
"433 558 CURVE SMOOTH",
"524 558 OFFCURVE",
"575 495 OFFCURVE",
"575 388 CURVE SMOOTH",
"575 326 OFFCURVE",
"562 280 OFFCURVE",
"543 243 CURVE",
"519 285 LINE",
"386 210 LINE",
"412 155 LINE",
"406 155 OFFCURVE",
"402 155 OFFCURVE",
"396 155 CURVE",
"306 155 OFFCURVE",
"255 218 OFFCURVE",
"255 327 CURVE SMOOTH"
);
}
);
width = 816;
},
{
layerId = "2AA43DF3-F741-4269-8311-3A3BEA5B2F2C";
paths = (
{
closed = 1;
nodes = (
"475 -13 OFFCURVE",
"528 -4 OFFCURVE",
"576 13 CURVE",
"610 -54 LINE",
"655 -29 LINE",
"623 33 LINE",
"742 93 OFFCURVE",
"819 207 OFFCURVE",
"829 355 CURVE SMOOTH",
"845 578 OFFCURVE",
"700 726 OFFCURVE",
"467 726 CURVE SMOOTH",
"236 726 OFFCURVE",
"72 578 OFFCURVE",
"57 357 CURVE SMOOTH",
"41 135 OFFCURVE",
"185 -13 OFFCURVE",
"418 -13 CURVE SMOOTH"
);
},
{
closed = 1;
nodes = (
"120 548 OFFCURVE",
"264 677 OFFCURVE",
"466 677 CURVE SMOOTH",
"667 677 OFFCURVE",
"793 549 OFFCURVE",
"780 357 CURVE SMOOTH",
"771 229 OFFCURVE",
"704 129 OFFCURVE",
"601 76 CURVE",
"531 213 LINE",
"487 188 LINE",
"554 56 LINE",
"513 42 OFFCURVE",
"468 35 OFFCURVE",
"419 35 CURVE SMOOTH",
"218 35 OFFCURVE",
"93 163 OFFCURVE",
"106 355 CURVE SMOOTH"
);
}
);
width = 872;
},
{
layerId = "2B8C56A3-DCBD-4946-B3F7-595679620A89";
paths = (
{
closed = 1;
nodes = (
"479 -13 OFFCURVE",
"514 -10 OFFCURVE",
"546 -5 CURVE",
"586 -84 LINE",
"720 -9 LINE",
"694 42 LINE",
"806 102 OFFCURVE",
"873 208 OFFCURVE",
"883 351 CURVE SMOOTH",
"900 587 OFFCURVE",
"753 726 OFFCURVE",
"486 726 CURVE SMOOTH",
"226 726 OFFCURVE",
"63 590 OFFCURVE",
"47 361 CURVE SMOOTH",
"30 126 OFFCURVE",
"177 -13 OFFCURVE",
"443 -13 CURVE SMOOTH"
);
},
{
closed = 1;
nodes = (
"275 481 OFFCURVE",
"356 558 OFFCURVE",
"483 558 CURVE SMOOTH",
"606 558 OFFCURVE",
"673 485 OFFCURVE",
"664 361 CURVE SMOOTH",
"660 300 OFFCURVE",
"639 250 OFFCURVE",
"605 215 CURVE",
"569 285 LINE",
"436 210 LINE",
"464 156 LINE",
"456 155 OFFCURVE",
"448 155 OFFCURVE",
"446 155 CURVE SMOOTH",
"325 155 OFFCURVE",
"258 228 OFFCURVE",
"266 351 CURVE SMOOTH"
);
}
);
width = 917;
}
);
leftKerningGroup = O;
leftMetricsKey = O;
rightKerningGroup = O;
rightMetricsKey = O;
unicode = 0051;
},
{
glyphname = R;
lastChange = "2026-04-25 18:55:43 +0000";
layers = (
{
anchors = (
{
name = Bottom;
position = "{257, 0}";
},
{
name = Top;
position = "{280, 714}";
}
);
layerId = "FD4D3FDD-DE85-408F-A52A-FF600B1C6101";
paths = (
{
closed = 1;
nodes = (
"112 291 LINE",
"308 291 LINE",
"457 0 LINE",
"513 0 LINE",
"362 298 LINE",
"454 318 OFFCURVE",
"511 388 OFFCURVE",
"518 494 CURVE SMOOTH",
"528 632 OFFCURVE",
"454 714 OFFCURVE",
"318 714 CURVE SMOOTH",
"92 714 LINE",
"42 0 LINE",
"92 0 LINE"
);
},
{
closed = 1;
nodes = (
"139 666 LINE",
"316 666 LINE SMOOTH",
"420 666 OFFCURVE",
"476 604 OFFCURVE",
"468 498 CURVE SMOOTH",
"461 397 OFFCURVE",
"400 338 OFFCURVE",
"303 338 CURVE SMOOTH",
"116 338 LINE"
);
}
);
width = 571;
},
{
anchors = (
{
name = Bottom;
position = "{347, 0}";
},
{
name = Top;
position = "{350, 714}";
}
);
layerId = m002;
paths = (
{
closed = 1;
nodes = (
"269 240 LINE",
"337 240 LINE",
"459 0 LINE",
"674 0 LINE",
"539 264 LINE",
"627 299 OFFCURVE",
"679 371 OFFCURVE",
"687 472 CURVE SMOOTH",
"697 624 OFFCURVE",
"595 714 OFFCURVE",
"416 714 CURVE SMOOTH",
"92 714 LINE",
"42 0 LINE",
"252 0 LINE"
);
},
{
closed = 1;
nodes = (
"290 546 LINE",
"409 546 LINE SMOOTH",
"456 546 OFFCURVE",
"480 522 OFFCURVE",
"477 482 CURVE SMOOTH",
"474 436 OFFCURVE",
"446 408 OFFCURVE",
"406 408 CURVE SMOOTH",
"281 408 LINE"
);
}
);
width = 732;
},
{
anchors = (
{
name = Bottom;
position = "{337, 0}";
},
{
name = Top;
position = "{350, 714}";
}
);
layerId = "2AA43DF3-F741-4269-8311-3A3BEA5B2F2C";
paths = (
{
closed = 1;
nodes = (
"112 291 LINE",
"478 291 LINE",
"627 0 LINE",
"683 0 LINE",
"532 298 LINE",
"627 319 OFFCURVE",
"691 393 OFFCURVE",
"698 494 CURVE SMOOTH",
"707 625 OFFCURVE",
"623 714 OFFCURVE",
"488 714 CURVE SMOOTH",
"92 714 LINE",
"42 0 LINE",
"92 0 LINE"
);
},
{
closed = 1;
nodes = (
"139 666 LINE",
"486 666 LINE SMOOTH",
"591 666 OFFCURVE",
"656 599 OFFCURVE",
"648 498 CURVE SMOOTH",
"642 403 OFFCURVE",
"571 338 OFFCURVE",
"473 338 CURVE SMOOTH",
"116 338 LINE"
);
}
);
width = 741;
},
{
anchors = (
{
name = Bottom;
position = "{397, 0}";
},
{
name = Top;
position = "{430, 714}";
}
);
layerId = "2B8C56A3-DCBD-4946-B3F7-595679620A89";
paths = (
{
closed = 1;
nodes = (
"269 240 LINE",
"457 240 LINE",
"579 0 LINE",
"794 0 LINE",
"659 265 LINE",
"751 301 OFFCURVE",
"810 376 OFFCURVE",
"817 472 CURVE SMOOTH",
"827 617 OFFCURVE",
"713 714 OFFCURVE",
"536 714 CURVE SMOOTH",
"92 714 LINE",
"42 0 LINE",
"252 0 LINE"
);
},
{
closed = 1;
nodes = (
"290 546 LINE",
"529 546 LINE SMOOTH",
"580 546 OFFCURVE",
"610 520 OFFCURVE",
"607 482 CURVE SMOOTH",
"604 438 OFFCURVE",
"570 408 OFFCURVE",
"526 408 CURVE SMOOTH",
"281 408 LINE"
);
}
);
width = 852;
}
);
leftKerningGroup = H;
leftMetricsKey = N;
rightKerningGroup = R;
unicode = 0052;
},
{
glyphname = S;
lastChange = "2026-04-25 18:55:43 +0000";
layers = (
{
anchors = (
{
name = Bottom;
position = "{296, 0}";
},
{
name = Top;
position = "{334, 726}";
}
);
layerId = "FD4D3FDD-DE85-408F-A52A-FF600B1C6101";
paths = (
{
closed = 1;
nodes = (
"188 726 OFFCURVE",
"97 652 OFFCURVE",
"89 528 CURVE SMOOTH",
"72 293 OFFCURVE",
"510 383 OFFCURVE",
"496 190 CURVE SMOOTH",
"489 93 OFFCURVE",
"417 35 OFFCURVE",
"301 35 CURVE SMOOTH",
"163 35 OFFCURVE",
"84 107 OFFCURVE",
"88 230 CURVE",
"38 232 LINE",
"27 78 OFFCURVE",
"123 -13 OFFCURVE",
"296 -13 CURVE SMOOTH",
"444 -13 OFFCURVE",
"537 64 OFFCURVE",
"546 194 CURVE SMOOTH",
"562 421 OFFCURVE",
"139 348 OFFCURVE",
"139 521 CURVE SMOOTH",
"139 620 OFFCURVE",
"211 678 OFFCURVE",
"332 678 CURVE SMOOTH",
"451 678 OFFCURVE",
"516 614 OFFCURVE",
"507 505 CURVE",
"557 503 LINE",
"567 643 OFFCURVE",
"484 726 OFFCURVE",
"333 726 CURVE SMOOTH"
);
}
);
width = 591;
},
{
anchors = (
{
name = Bottom;
position = "{360, 0}";
},
{
name = Top;
position = "{399, 726}";
}
);
layerId = m002;
paths = (
{
closed = 1;
nodes = (
"201 726 OFFCURVE",
"86 638 OFFCURVE",
"86 492 CURVE SMOOTH",
"86 233 OFFCURVE",
"475 313 OFFCURVE",
"468 220 CURVE SMOOTH",
"465 179 OFFCURVE",
"427 155 OFFCURVE",
"367 155 CURVE SMOOTH",
"288 155 OFFCURVE",
"245 191 OFFCURVE",
"249 254 CURVE",
"40 258 LINE",
"28 89 OFFCURVE",
"149 -13 OFFCURVE",
"364 -13 CURVE SMOOTH",
"561 -13 OFFCURVE",
"678 78 OFFCURVE",
"678 230 CURVE SMOOTH",
"678 482 OFFCURVE",
"297 411 OFFCURVE",
"297 499 CURVE SMOOTH",
"297 536 OFFCURVE",
"334 558 OFFCURVE",
"392 558 CURVE SMOOTH",
"448 558 OFFCURVE",
"479 531 OFFCURVE",
"475 481 CURVE",
"685 477 LINE",
"696 632 OFFCURVE",
"587 726 OFFCURVE",
"395 726 CURVE SMOOTH"
);
}
);
width = 721;
},
{
anchors = (
{
name = Bottom;
position = "{412, 0}";
},
{
name = Top;
position = "{400, 726}";
}
);
layerId = "2AA43DF3-F741-4269-8311-3A3BEA5B2F2C";
paths = (
{
closed = 1;
nodes = (
"227 726 OFFCURVE",
"97 647 OFFCURVE",
"89 528 CURVE SMOOTH",
"70 263 OFFCURVE",
"671 403 OFFCURVE",
"656 190 CURVE SMOOTH",
"649 97 OFFCURVE",
"539 35 OFFCURVE",
"381 35 CURVE SMOOTH",
"196 35 OFFCURVE",
"79 113 OFFCURVE",
"88 230 CURVE",
"38 232 LINE",
"28 85 OFFCURVE",
"163 -13 OFFCURVE",
"376 -13 CURVE SMOOTH",
"565 -13 OFFCURVE",
"697 70 OFFCURVE",
"706 194 CURVE SMOOTH",
"724 455 OFFCURVE",
"124 324 OFFCURVE",
"139 530 CURVE SMOOTH",
"145 619 OFFCURVE",
"254 678 OFFCURVE",
"412 678 CURVE SMOOTH",
"572 678 OFFCURVE",
"674 609 OFFCURVE",
"667 505 CURVE",
"717 503 LINE",
"726 637 OFFCURVE",
"604 726 OFFCURVE",
"413 726 CURVE SMOOTH"
);
}
);
width = 751;
},
{
anchors = (
{
name = Bottom;
position = "{420, 0}";
},
{
name = Top;
position = "{459, 726}";
}
);
layerId = "2B8C56A3-DCBD-4946-B3F7-595679620A89";
paths = (
{
closed = 1;
nodes = (
"234 726 OFFCURVE",
"97 646 OFFCURVE",
"87 511 CURVE SMOOTH",
"65 190 OFFCURVE",
"596 338 OFFCURVE",
"588 220 CURVE SMOOTH",
"585 176 OFFCURVE",
"525 150 OFFCURVE",
"427 150 CURVE SMOOTH",
"311 150 OFFCURVE",
"245 189 OFFCURVE",
"249 254 CURVE",
"40 258 LINE",
"28 88 OFFCURVE",
"171 -13 OFFCURVE",
"424 -13 CURVE SMOOTH",
"649 -13 OFFCURVE",
"788 70 OFFCURVE",
"797 210 CURVE SMOOTH",
"819 517 OFFCURVE",
"290 404 OFFCURVE",
"297 501 CURVE SMOOTH",
"299 540 OFFCURVE",
"357 563 OFFCURVE",
"452 563 CURVE SMOOTH",
"546 563 OFFCURVE",
"599 533 OFFCURVE",
"595 481 CURVE",
"805 477 LINE",
"816 634 OFFCURVE",
"686 726 OFFCURVE",
"455 726 CURVE SMOOTH"
);
}
);
width = 840;
}
);
leftKerningGroup = S;
rightKerningGroup = S;
unicode = 0053;
},
{
glyphname = Germandbls;
lastChange = "2026-04-25 18:55:43 +0000";
layers = (
{
layerId = "FD4D3FDD-DE85-408F-A52A-FF600B1C6101";
paths = (
{
closed = 1;
nodes = (
"438 -13 OFFCURVE",
"528 78 OFFCURVE",
"538 216 CURVE SMOOTH",
"547 349 OFFCURVE",
"450 440 OFFCURVE",
"296 447 CURVE",
"503 666 LINE",
"507 714 LINE",
"92 714 LINE",
"42 0 LINE",
"92 0 LINE",
"139 666 LINE",
"441 666 LINE",
"233 446 LINE",
"229 398 LINE",
"250 398 LINE SMOOTH",
"401 398 OFFCURVE",
"495 327 OFFCURVE",
"488 218 CURVE SMOOTH",
"480 109 OFFCURVE",
"410 35 OFFCURVE",
"313 35 CURVE",
"311 -13 LINE"
);
}
);
width = 591;
},
{
layerId = m002;
paths = (
{
closed = 1;
nodes = (
"555 -13 OFFCURVE",
"668 79 OFFCURVE",
"668 234 CURVE SMOOTH",
"668 329 OFFCURVE",
"619 397 OFFCURVE",
"532 428 CURVE",
"635 546 LINE",
"647 714 LINE",
"92 714 LINE",
"42 0 LINE",
"252 0 LINE",
"290 546 LINE",
"427 546 LINE",
"331 436 LINE",
"321 278 LINE",
"343 278 LINE SMOOTH",
"409 278 OFFCURVE",
"448 259 OFFCURVE",
"448 226 CURVE SMOOTH",
"448 181 OFFCURVE",
"419 155 OFFCURVE",
"370 155 CURVE",
"363 -13 LINE"
);
}
);
width = 711;
},
{
layerId = "2AA43DF3-F741-4269-8311-3A3BEA5B2F2C";
paths = (
{
closed = 1;
nodes = (
"560 -13 OFFCURVE",
"658 78 OFFCURVE",
"668 216 CURVE SMOOTH",
"677 345 OFFCURVE",
"574 432 OFFCURVE",
"409 438 CURVE",
"633 666 LINE",
"637 714 LINE",
"92 714 LINE",
"42 0 LINE",
"92 0 LINE",
"139 666 LINE",
"569 666 LINE",
"353 446 LINE",
"349 398 LINE",
"370 398 LINE SMOOTH",
"527 398 OFFCURVE",
"625 327 OFFCURVE",
"618 218 CURVE SMOOTH",
"610 109 OFFCURVE",
"532 35 OFFCURVE",
"423 35 CURVE",
"421 -13 LINE"
);
}
);
width = 721;
},
{
layerId = "2B8C56A3-DCBD-4946-B3F7-595679620A89";
paths = (
{
closed = 1;
nodes = (
"654 -13 OFFCURVE",
"788 84 OFFCURVE",
"788 229 CURVE SMOOTH",
"788 319 OFFCURVE",
"735 388 OFFCURVE",
"648 423 CURVE",
"755 546 LINE",
"767 714 LINE",
"92 714 LINE",
"42 0 LINE",
"253 0 LINE",
"291 546 LINE",
"546 546 LINE",
"430 416 LINE",
"421 278 LINE",
"473 278 LINE SMOOTH",
"530 278 OFFCURVE",
"568 257 OFFCURVE",
"568 226 CURVE SMOOTH",
"568 183 OFFCURVE",
"525 155 OFFCURVE",
"460 155 CURVE",
"453 -13 LINE"
);
}
);
width = 831;
}
);
leftKerningGroup = H;
leftMetricsKey = B;
rightKerningGroup = B;
rightMetricsKey = O;
unicode = 1E9E;
},
{
glyphname = T;
lastChange = "2026-04-25 18:55:43 +0000";
layers = (
{
anchors = (
{
name = Bottom;
position = "{272, 0}";
},
{
name = Top;
position = "{322, 714}";
}
);
layerId = "FD4D3FDD-DE85-408F-A52A-FF600B1C6101";
paths = (
{
closed = 1;
nodes = (
"62 714 LINE",
"58 666 LINE",
"293 666 LINE",
"247 0 LINE",
"297 0 LINE",
"343 666 LINE",
"577 666 LINE",
"581 714 LINE"
);
}
);
width = 579;
},
{
anchors = (
{
name = Bottom;
position = "{317, 0}";
},
{
name = Top;
position = "{367, 714}";
}
);
layerId = m002;
paths = (
{
closed = 1;
nodes = (
"62 714 LINE",
"50 546 LINE",
"250 546 LINE",
"212 0 LINE",
"422 0 LINE",
"460 546 LINE",
"659 546 LINE",
"671 714 LINE"
);
}
);
width = 669;
},
{
anchors = (
{
name = Bottom;
position = "{342, 0}";
},
{
name = Top;
position = "{392, 714}";
}
);
layerId = "2AA43DF3-F741-4269-8311-3A3BEA5B2F2C";
paths = (
{
closed = 1;
nodes = (
"62 714 LINE",
"58 666 LINE",
"363 666 LINE",
"317 0 LINE",
"367 0 LINE",
"413 666 LINE",
"717 666 LINE",
"721 714 LINE"
);
}
);
width = 719;
},
{
anchors = (
{
name = Bottom;
position = "{407, 0}";
},
{
name = Top;
position = "{457, 714}";
}
);
layerId = "2B8C56A3-DCBD-4946-B3F7-595679620A89";
paths = (
{
closed = 1;
nodes = (
"62 714 LINE",
"50 546 LINE",
"340 546 LINE",
"302 0 LINE",
"512 0 LINE",
"550 546 LINE",
"839 546 LINE",
"851 714 LINE"
);
}
);
width = 849;
}
);
leftKerningGroup = T;
rightKerningGroup = T;
unicode = 0054;
},
{
glyphname = Tbar;
lastChange = "2026-04-25 18:55:43 +0000";
layers = (
{
layerId = "FD4D3FDD-DE85-408F-A52A-FF600B1C6101";
paths = (
{
closed = 1;
nodes = (
"62 714 LINE",
"58 666 LINE",
"293 666 LINE",
"275 412 LINE",
"81 417 LINE",
"78 372 LINE",
"273 372 LINE",
"247 0 LINE",
"297 0 LINE",
"323 372 LINE",
"517 372 LINE",
"520 414 LINE",
"326 414 LINE",
"343 666 LINE",
"577 666 LINE",
"581 714 LINE"
);
}
);
width = 579;
},
{
layerId = m002;
paths = (
{
closed = 1;
nodes = (
"62 714 LINE",
"50 546 LINE",
"250 546 LINE",
"240 402 LINE",
"81 407 LINE",
"72 284 LINE",
"231 284 LINE",
"212 0 LINE",
"422 0 LINE",
"441 284 LINE",
"600 284 LINE",
"609 404 LINE",
"451 404 LINE",
"461 546 LINE",
"659 546 LINE",
"671 714 LINE"
);
}
);
width = 669;
},
{
layerId = "2AA43DF3-F741-4269-8311-3A3BEA5B2F2C";
paths = (
{
closed = 1;
nodes = (
"62 714 LINE",
"58 666 LINE",
"363 666 LINE",
"345 412 LINE",
"151 417 LINE",
"148 372 LINE",
"343 372 LINE",
"317 0 LINE",
"367 0 LINE",
"393 372 LINE",
"587 372 LINE",
"590 414 LINE",
"396 414 LINE",
"413 666 LINE",
"717 666 LINE",
"721 714 LINE"
);
}
);
width = 719;
},
{
layerId = "2B8C56A3-DCBD-4946-B3F7-595679620A89";
paths = (
{
closed = 1;
nodes = (
"62 714 LINE",
"50 546 LINE",
"340 546 LINE",
"330 402 LINE",
"171 407 LINE",
"162 284 LINE",
"321 284 LINE",
"302 0 LINE",
"512 0 LINE",
"531 284 LINE",
"690 284 LINE",
"699 404 LINE",
"541 404 LINE",
"551 546 LINE",
"839 546 LINE",
"851 714 LINE"
);
}
);
width = 849;
}
);
leftKerningGroup = T;
leftMetricsKey = T;
rightKerningGroup = T;
rightMetricsKey = T;
unicode = 0166;
},
{
glyphname = Tdiagonalstroke;
lastChange = "2026-04-25 18:55:43 +0000";
layers = (
{
layerId = "FD4D3FDD-DE85-408F-A52A-FF600B1C6101";
paths = (
{
closed = 1;
nodes = (
"498 714 LINE",
"524 772 LINE",
"474 772 LINE",
"448 714 LINE",
"62 714 LINE",
"58 666 LINE",
"293 666 LINE",
"269 320 LINE",
"100 -53 LINE",
"150 -53 LINE",
"260 190 LINE",
"247 0 LINE",
"297 0 LINE",
"319 320 LINE",
"475 666 LINE",
"577 666 LINE",
"581 714 LINE"
);
},
{
closed = 1;
nodes = (
"343 666 LINE",
"425 666 LINE",
"328 451 LINE"
);
}
);
width = 579;
},
{
layerId = m002;
paths = (
{
closed = 1;
nodes = (
"624 714 LINE",
"650 772 LINE",
"600 772 LINE",
"574 714 LINE",
"62 714 LINE",
"50 546 LINE",
"249 546 LINE",
"211 0 LINE",
"250 0 LINE",
"226 -53 LINE",
"276 -53 LINE",
"300 0 LINE",
"422 0 LINE",
"444 318 LINE",
"547 546 LINE",
"659 546 LINE",
"671 714 LINE"
);
},
{
closed = 1;
nodes = (
"460 546 LINE",
"497 546 LINE",
"453 448 LINE"
);
}
);
width = 669;
},
{
layerId = "2AA43DF3-F741-4269-8311-3A3BEA5B2F2C";
paths = (
{
closed = 1;
nodes = (
"603 714 LINE",
"634 772 LINE",
"584 772 LINE",
"553 714 LINE",
"62 714 LINE",
"58 666 LINE",
"363 666 LINE",
"338 311 LINE",
"145 -53 LINE",
"195 -53 LINE",
"331 203 LINE",
"317 0 LINE",
"367 0 LINE",
"388 311 LINE",
"577 666 LINE",
"717 666 LINE",
"721 714 LINE"
);
},
{
closed = 1;
nodes = (
"413 666 LINE",
"527 666 LINE",
"396 419 LINE"
);
}
);
width = 719;
},
{
layerId = "2B8C56A3-DCBD-4946-B3F7-595679620A89";
paths = (
{
closed = 1;
nodes = (
"776 714 LINE",
"806 772 LINE",
"756 772 LINE",
"726 714 LINE",
"62 714 LINE",
"50 546 LINE",
"339 546 LINE",
"301 0 LINE",
"350 0 LINE",
"322 -53 LINE",
"372 -53 LINE",
"400 0 LINE",
"512 0 LINE",
"529 245 LINE",
"687 546 LINE",
"839 546 LINE",
"851 714 LINE"
);
},
{
closed = 1;
nodes = (
"550 546 LINE",
"637 546 LINE",
"536 355 LINE"
);
}
);
width = 849;
}
);
leftKerningGroup = T;
leftMetricsKey = T;
rightKerningGroup = T;
rightMetricsKey = T;
unicode = 023E;
},
{
glyphname = U;
lastChange = "2026-04-25 18:55:43 +0000";
layers = (
{
anchors = (
{
name = Bottom;
position = "{294, 0}";
},
{
name = Top;
position = "{344, 714}";
}
);
layerId = "FD4D3FDD-DE85-408F-A52A-FF600B1C6101";
paths = (
{
closed = 1;
nodes = (
"39 237 LINE SMOOTH",
"28 80 OFFCURVE",
"122 -13 OFFCURVE",
"293 -13 CURVE SMOOTH",
"464 -13 OFFCURVE",
"572 90 OFFCURVE",
"584 264 CURVE SMOOTH",
"616 714 LINE",
"566 714 LINE",
"535 276 LINE SMOOTH",
"524 125 OFFCURVE",
"434 35 OFFCURVE",
"294 35 CURVE SMOOTH",
"157 36 OFFCURVE",
"81 114 OFFCURVE",
"90 246 CURVE SMOOTH",
"122 714 LINE",
"72 714 LINE"
);
}
);
width = 624;
},
{
anchors = (
{
name = Bottom;
position = "{343, 0}";
},
{
name = Top;
position = "{393, 714}";
}
);
layerId = m002;
paths = (
{
closed = 1;
nodes = (
"40 250 LINE SMOOTH",
"29 85 OFFCURVE",
"143 -13 OFFCURVE",
"346 -13 CURVE SMOOTH",
"546 -13 OFFCURVE",
"672 93 OFFCURVE",
"685 273 CURVE SMOOTH",
"716 714 LINE",
"506 714 LINE",
"474 267 LINE SMOOTH",
"470 197 OFFCURVE",
"424 155 OFFCURVE",
"349 155 CURVE SMOOTH",
"282 156 OFFCURVE",
"245 196 OFFCURVE",
"250 263 CURVE SMOOTH",
"282 714 LINE",
"72 714 LINE"
);
}
);
width = 724;
},
{
anchors = (
{
name = Bottom;
position = "{344, 0}";
},
{
name = Top;
position = "{394, 714}";
}
);
layerId = "2AA43DF3-F741-4269-8311-3A3BEA5B2F2C";
paths = (
{
closed = 1;
nodes = (
"50 266 LINE SMOOTH",
"39 99 OFFCURVE",
"155 -13 OFFCURVE",
"343 -13 CURVE SMOOTH",
"530 -13 OFFCURVE",
"662 97 OFFCURVE",
"674 264 CURVE SMOOTH",
"706 714 LINE",
"656 714 LINE",
"625 276 LINE SMOOTH",
"615 132 OFFCURVE",
"502 35 OFFCURVE",
"344 35 CURVE SMOOTH",
"188 36 OFFCURVE",
"91 131 OFFCURVE",
"101 274 CURVE SMOOTH",
"132 714 LINE",
"82 714 LINE"
);
}
);
width = 724;
},
{
anchors = (
{
name = Bottom;
position = "{414, 0}";
},
{
name = Top;
position = "{464, 714}";
}
);
layerId = "2B8C56A3-DCBD-4946-B3F7-595679620A89";
paths = (
{
closed = 1;
nodes = (
"53 307 LINE SMOOTH",
"40 116 OFFCURVE",
"185 -13 OFFCURVE",
"416 -13 CURVE SMOOTH",
"644 -13 OFFCURVE",
"803 112 OFFCURVE",
"817 303 CURVE SMOOTH",
"846 714 LINE",
"636 714 LINE",
"606 297 LINE SMOOTH",
"601 213 OFFCURVE",
"525 155 OFFCURVE",
"419 155 CURVE SMOOTH",
"318 156 OFFCURVE",
"256 210 OFFCURVE",
"262 293 CURVE SMOOTH",
"292 714 LINE",
"82 714 LINE"
);
}
);
width = 864;
}
);
leftKerningGroup = U;
rightKerningGroup = U;
unicode = 0055;
},
{
glyphname = "Upsilon-latin";
lastChange = "2026-04-25 18:55:43 +0000";
layers = (
{
layerId = "FD4D3FDD-DE85-408F-A52A-FF600B1C6101";
paths = (
{
closed = 1;
nodes = (
"552 -13 OFFCURVE",
"688 135 OFFCURVE",
"688 357 CURVE SMOOTH",
"688 495 OFFCURVE",
"609 619 OFFCURVE",
"491 666 CURVE",
"699 666 LINE",
"703 714 LINE",
"428 714 LINE",
"424 666 LINE",
"552 622 OFFCURVE",
"638 497 OFFCURVE",
"638 352 CURVE SMOOTH",
"638 162 OFFCURVE",
"523 35 OFFCURVE",
"350 35 CURVE SMOOTH",
"193 35 OFFCURVE",
"95 152 OFFCURVE",
"105 327 CURVE SMOOTH",
"115 482 OFFCURVE",
"219 618 OFFCURVE",
"364 666 CURVE",
"368 714 LINE",
"93 714 LINE",
"89 666 LINE",
"297 666 LINE",
"162 615 OFFCURVE",
"66 479 OFFCURVE",
"55 327 CURVE SMOOTH",
"46 123 OFFCURVE",
"163 -13 OFFCURVE",
"347 -13 CURVE SMOOTH"
);
}
);
width = 733;
},
{
layerId = m002;
paths = (
{
closed = 1;
nodes = (
"613 -13 OFFCURVE",
"767 108 OFFCURVE",
"779 289 CURVE SMOOTH",
"786 394 OFFCURVE",
"727 497 OFFCURVE",
"631 546 CURVE",
"806 546 LINE",
"818 714 LINE",
"475 714 LINE",
"463 546 LINE",
"524 522 OFFCURVE",
"565 456 OFFCURVE",
"565 380 CURVE SMOOTH",
"565 268 OFFCURVE",
"502 194 OFFCURVE",
"408 194 CURVE SMOOTH",
"328 194 OFFCURVE",
"275 253 OFFCURVE",
"275 342 CURVE SMOOTH",
"275 436 OFFCURVE",
"326 518 OFFCURVE",
"403 546 CURVE",
"415 714 LINE",
"72 714 LINE",
"60 546 LINE",
"235 546 LINE",
"124 493 OFFCURVE",
"50 380 OFFCURVE",
"50 263 CURVE SMOOTH",
"50 97 OFFCURVE",
"188 -13 OFFCURVE",
"394 -13 CURVE SMOOTH"
);
}
);
width = 826;
},
{
layerId = "2AA43DF3-F741-4269-8311-3A3BEA5B2F2C";
paths = (
{
closed = 1;
nodes = (
"599 -13 OFFCURVE",
"751 123 OFFCURVE",
"766 327 CURVE SMOOTH",
"776 478 OFFCURVE",
"690 613 OFFCURVE",
"552 666 CURVE",
"778 666 LINE",
"782 714 LINE",
"487 714 LINE",
"483 666 LINE",
"623 618 OFFCURVE",
"717 491 OFFCURVE",
"717 349 CURVE SMOOTH",
"717 161 OFFCURVE",
"586 35 OFFCURVE",
"389 35 CURVE SMOOTH",
"217 35 OFFCURVE",
"103 141 OFFCURVE",
"103 300 CURVE SMOOTH",
"103 464 OFFCURVE",
"215 610 OFFCURVE",
"383 666 CURVE",
"387 714 LINE",
"92 714 LINE",
"88 666 LINE",
"314 666 LINE",
"157 609 OFFCURVE",
"53 461 OFFCURVE",
"53 296 CURVE SMOOTH",
"53 111 OFFCURVE",
"186 -13 OFFCURVE",
"386 -13 CURVE SMOOTH"
);
}
);
width = 811;
},
{
layerId = "2B8C56A3-DCBD-4946-B3F7-595679620A89";
paths = (
{
closed = 1;
nodes = (
"690 -13 OFFCURVE",
"860 116 OFFCURVE",
"860 310 CURVE SMOOTH",
"860 406 OFFCURVE",
"795 500 OFFCURVE",
"698 546 CURVE",
"886 546 LINE",
"898 714 LINE",
"535 714 LINE",
"523 546 LINE",
"596 517 OFFCURVE",
"645 450 OFFCURVE",
"645 377 CURVE SMOOTH",
"645 267 OFFCURVE",
"566 194 OFFCURVE",
"448 194 CURVE SMOOTH",
"344 194 OFFCURVE",
"275 255 OFFCURVE",
"275 346 CURVE SMOOTH",
"275 433 OFFCURVE",
"334 513 OFFCURVE",
"423 546 CURVE",
"435 714 LINE",
"72 714 LINE",
"60 546 LINE",
"248 546 LINE",
"129 494 OFFCURVE",
"50 381 OFFCURVE",
"50 265 CURVE SMOOTH",
"50 98 OFFCURVE",
"204 -13 OFFCURVE",
"434 -13 CURVE SMOOTH"
);
}
);
width = 906;
}
);
leftKerningGroup = O;
leftMetricsKey = O;
rightKerningGroup = O;
rightMetricsKey = O;
unicode = 01B1;
},
{
glyphname = V;
lastChange = "2026-04-25 18:55:43 +0000";
layers = (
{
anchors = (
{
name = Bottom;
position = "{319, 0}";
},
{
name = Top;
position = "{369, 714}";
}
);
layerId = "FD4D3FDD-DE85-408F-A52A-FF600B1C6101";
paths = (
{
closed = 1;
nodes = (
"325 98 LINE",
"323 98 LINE",
"124 714 LINE",
"72 714 LINE",
"301 0 LINE",
"335 0 LINE",
"665 714 LINE",
"611 714 LINE"
);
}
);
width = 673;
},
{
anchors = (
{
name = Bottom;
position = "{419, 0}";
},
{
name = Top;
position = "{469, 714}";
}
);
layerId = m002;
paths = (
{
closed = 1;
nodes = (
"438 290 LINE",
"436 290 LINE",
"284 714 LINE",
"72 714 LINE",
"331 0 LINE",
"505 0 LINE",
"865 714 LINE",
"651 714 LINE"
);
}
);
width = 873;
},
{
anchors = (
{
name = Bottom;
position = "{379, 0}";
},
{
name = Top;
position = "{429, 714}";
}
);
layerId = "2AA43DF3-F741-4269-8311-3A3BEA5B2F2C";
paths = (
{
closed = 1;
nodes = (
"385 98 LINE",
"383 98 LINE",
"124 714 LINE",
"72 714 LINE",
"361 0 LINE",
"395 0 LINE",
"785 714 LINE",
"731 714 LINE"
);
}
);
width = 793;
},
{
anchors = (
{
name = Bottom;
position = "{469, 0}";
},
{
name = Top;
position = "{519, 714}";
}
);
layerId = "2B8C56A3-DCBD-4946-B3F7-595679620A89";
paths = (
{
closed = 1;
nodes = (
"485 250 LINE",
"483 250 LINE",
"284 714 LINE",
"72 714 LINE",
"381 0 LINE",
"555 0 LINE",
"965 714 LINE",
"751 714 LINE"
);
}
);
width = 973;
}
);
leftKerningGroup = V;
leftMetricsKey = A;
rightKerningGroup = V;
rightMetricsKey = A;
unicode = 0056;
},
{
glyphname = "Gamma-latin";
lastChange = "2026-04-25 18:55:43 +0000";
layers = (
{
layerId = "FD4D3FDD-DE85-408F-A52A-FF600B1C6101";
paths = (
{
closed = 1;
nodes = (
"344 -13 OFFCURVE",
"403 47 OFFCURVE",
"403 137 CURVE SMOOTH",
"403 194 OFFCURVE",
"371 245 OFFCURVE",
"345 295 CURVE SMOOTH",
"311 360 LINE",
"546 714 LINE",
"493 714 LINE",
"287 406 LINE",
"125 714 LINE",
"72 714 LINE",
"257 360 LINE",
"213 295 LINE SMOOTH",
"175 238 OFFCURVE",
"131 181 OFFCURVE",
"131 114 CURVE SMOOTH",
"131 37 OFFCURVE",
"180 -13 OFFCURVE",
"258 -13 CURVE SMOOTH"
);
},
{
closed = 1;
nodes = (
"186 185 OFFCURVE",
"230 238 OFFCURVE",
"266 292 CURVE SMOOTH",
"281 314 LINE",
"292 292 LINE SMOOTH",
"318 241 OFFCURVE",
"353 191 OFFCURVE",
"353 136 CURVE SMOOTH",
"353 76 OFFCURVE",
"317 35 OFFCURVE",
"261 35 CURVE SMOOTH",
"209 35 OFFCURVE",
"178 71 OFFCURVE",
"181 125 CURVE SMOOTH"
);
}
);
width = 554;
},
{
layerId = m002;
paths = (
{
closed = 1;
nodes = (
"453 -13 OFFCURVE",
"557 72 OFFCURVE",
"567 217 CURVE SMOOTH",
"570 259 OFFCURVE",
"554 311 OFFCURVE",
"526 357 CURVE SMOOTH",
"438 502 LINE",
"589 714 LINE",
"366 714 LINE",
"334 671 LINE",
"308 714 LINE",
"85 714 LINE",
"206 502 LINE",
"98 357 LINE SMOOTH",
"62 311 OFFCURVE",
"40 259 OFFCURVE",
"37 217 CURVE SMOOTH",
"27 72 OFFCURVE",
"119 -13 OFFCURVE",
"286 -13 CURVE SMOOTH"
);
},
{
closed = 1;
nodes = (
"246 229 OFFCURVE",
"256 247 OFFCURVE",
"288 292 CURVE SMOOTH",
"309 322 LINE",
"326 292 LINE SMOOTH",
"348 254 OFFCURVE",
"356 235 OFFCURVE",
"356 215 CURVE SMOOTH",
"356 179 OFFCURVE",
"332 155 OFFCURVE",
"297 155 CURVE SMOOTH",
"266 155 OFFCURVE",
"246 174 OFFCURVE",
"246 204 CURVE SMOOTH"
);
}
);
width = 610;
},
{
layerId = "2AA43DF3-F741-4269-8311-3A3BEA5B2F2C";
paths = (
{
closed = 1;
nodes = (
"400 -13 OFFCURVE",
"475 52 OFFCURVE",
"475 150 CURVE SMOOTH",
"475 196 OFFCURVE",
"457 239 OFFCURVE",
"418 295 CURVE SMOOTH",
"345 402 LINE",
"606 714 LINE",
"547 714 LINE",
"319 439 LINE",
"131 714 LINE",
"72 714 LINE",
"289 402 LINE",
"200 295 LINE SMOOTH",
"145 229 OFFCURVE",
"122 180 OFFCURVE",
"122 124 CURVE SMOOTH",
"122 41 OFFCURVE",
"186 -13 OFFCURVE",
"288 -13 CURVE SMOOTH"
);
},
{
closed = 1;
nodes = (
"172 178 OFFCURVE",
"196 224 OFFCURVE",
"253 292 CURVE SMOOTH",
"314 365 LINE",
"365 292 LINE SMOOTH",
"407 232 OFFCURVE",
"424 189 OFFCURVE",
"424 146 CURVE SMOOTH",
"424 80 OFFCURVE",
"371 35 OFFCURVE",
"291 35 CURVE SMOOTH",
"218 35 OFFCURVE",
"172 72 OFFCURVE",
"172 128 CURVE SMOOTH"
);
}
);
width = 614;
},
{
layerId = "2B8C56A3-DCBD-4946-B3F7-595679620A89";
paths = (
{
closed = 1;
nodes = (
"509 -13 OFFCURVE",
"637 85 OFFCURVE",
"648 231 CURVE SMOOTH",
"651 275 OFFCURVE",
"632 324 OFFCURVE",
"599 364 CURVE SMOOTH",
"481 506 LINE",
"669 714 LINE",
"446 714 LINE",
"371 638 LINE",
"308 714 LINE",
"85 714 LINE",
"243 506 LINE",
"105 364 LINE SMOOTH",
"66 324 OFFCURVE",
"41 275 OFFCURVE",
"38 231 CURVE SMOOTH",
"27 85 OFFCURVE",
"143 -13 OFFCURVE",
"326 -13 CURVE SMOOTH"
);
},
{
closed = 1;
nodes = (
"247 234 OFFCURVE",
"263 266 OFFCURVE",
"288 292 CURVE SMOOTH",
"352 363 LINE",
"406 292 LINE SMOOTH",
"425 268 OFFCURVE",
"437 239 OFFCURVE",
"437 221 CURVE SMOOTH",
"437 181 OFFCURVE",
"397 155 OFFCURVE",
"337 155 CURVE SMOOTH",
"283 155 OFFCURVE",
"247 178 OFFCURVE",
"247 213 CURVE SMOOTH"
);
}
);
width = 690;
}
);
leftKerningGroup = V;
leftMetricsKey = V;
rightKerningGroup = V;
rightMetricsKey = V;
unicode = 0194;
},
{
glyphname = W;
lastChange = "2026-04-25 18:55:43 +0000";
layers = (
{
anchors = (
{
name = Bottom;
position = "{440, 0}";
},
{
name = Top;
position = "{491, 714}";
}
);
layerId = "FD4D3FDD-DE85-408F-A52A-FF600B1C6101";
paths = (
{
closed = 1;
nodes = (
"218 0 LINE",
"271 0 LINE",
"483 617 LINE",
"485 617 LINE",
"610 0 LINE",
"663 0 LINE",
"909 714 LINE",
"855 714 LINE",
"644 97 LINE",
"642 97 LINE",
"516 714 LINE",
"463 714 LINE",
"252 97 LINE",
"250 97 LINE",
"124 714 LINE",
"72 714 LINE"
);
}
);
width = 917;
},
{
anchors = (
{
name = Bottom;
position = "{545, 0}";
},
{
name = Top;
position = "{596, 714}";
}
);
layerId = m002;
paths = (
{
closed = 1;
nodes = (
"218 0 LINE",
"438 0 LINE",
"573 405 LINE",
"575 405 LINE",
"654 0 LINE",
"874 0 LINE",
"1120 714 LINE",
"899 714 LINE",
"759 304 LINE",
"757 304 LINE",
"677 714 LINE",
"512 714 LINE",
"375 305 LINE",
"373 305 LINE",
"291 714 LINE",
"72 714 LINE"
);
}
);
width = 1128;
},
{
anchors = (
{
name = Bottom;
position = "{500, 0}";
},
{
name = Top;
position = "{551, 714}";
}
);
layerId = "2AA43DF3-F741-4269-8311-3A3BEA5B2F2C";
paths = (
{
closed = 1;
nodes = (
"219 0 LINE",
"271 0 LINE",
"544 640 LINE",
"546 640 LINE",
"731 0 LINE",
"783 0 LINE",
"1029 714 LINE",
"975 714 LINE",
"759 84 LINE",
"757 84 LINE",
"577 714 LINE",
"523 714 LINE",
"254 84 LINE",
"252 84 LINE",
"124 714 LINE",
"72 714 LINE"
);
}
);
width = 1037;
},
{
anchors = (
{
name = Bottom;
position = "{605, 0}";
},
{
name = Top;
position = "{656, 714}";
}
);
layerId = "2B8C56A3-DCBD-4946-B3F7-595679620A89";
paths = (
{
closed = 1;
nodes = (
"218 0 LINE",
"448 0 LINE",
"636 450 LINE",
"638 450 LINE",
"764 0 LINE",
"994 0 LINE",
"1240 714 LINE",
"1019 714 LINE",
"870 280 LINE",
"868 280 LINE",
"748 714 LINE",
"562 714 LINE",
"381 280 LINE",
"379 280 LINE",
"291 714 LINE",
"72 714 LINE"
);
}
);
width = 1248;
}
);
leftKerningGroup = V;
leftMetricsKey = A;
rightKerningGroup = V;
rightMetricsKey = A;
unicode = 0057;
},
{
glyphname = X;
lastChange = "2026-04-25 18:55:43 +0000";
layers = (
{
anchors = (
{
name = Bottom;
position = "{312, 0}";
},
{
name = Top;
position = "{362, 714}";
}
);
layerId = "FD4D3FDD-DE85-408F-A52A-FF600B1C6101";
paths = (
{
closed = 1;
nodes = (
"357 356 LINE",
"633 714 LINE",
"573 714 LINE",
"330 399 LINE",
"131 714 LINE",
"73 714 LINE",
"298 358 LINE",
"22 0 LINE",
"82 0 LINE",
"325 315 LINE",
"524 0 LINE",
"582 0 LINE"
);
}
);
width = 641;
},
{
anchors = (
{
name = Bottom;
position = "{407, 0}";
},
{
name = Top;
position = "{457, 714}";
}
);
layerId = m002;
paths = (
{
closed = 1;
nodes = (
"550 356 LINE",
"828 714 LINE",
"578 714 LINE",
"437 533 LINE",
"321 714 LINE",
"73 714 LINE",
"301 358 LINE",
"22 0 LINE",
"273 0 LINE",
"414 181 LINE",
"530 0 LINE",
"777 0 LINE"
);
}
);
width = 836;
},
{
anchors = (
{
name = Bottom;
position = "{335, 0}";
},
{
name = Top;
position = "{385, 714}";
}
);
layerId = "2AA43DF3-F741-4269-8311-3A3BEA5B2F2C";
paths = (
{
closed = 1;
nodes = (
"400 357 LINE",
"713 714 LINE",
"648 714 LINE",
"371 397 LINE",
"136 714 LINE",
"73 714 LINE",
"336 358 LINE",
"22 0 LINE",
"87 0 LINE",
"365 317 LINE",
"599 0 LINE",
"665 0 LINE"
);
}
);
width = 723;
},
{
anchors = (
{
name = Bottom;
position = "{424, 0}";
},
{
name = Top;
position = "{474, 714}";
}
);
layerId = "2B8C56A3-DCBD-4946-B3F7-595679620A89";
paths = (
{
closed = 1;
nodes = (
"584 356 LINE",
"872 714 LINE",
"598 714 LINE",
"459 542 LINE",
"345 714 LINE",
"73 714 LINE",
"311 358 LINE",
"22 0 LINE",
"297 0 LINE",
"436 172 LINE",
"550 0 LINE",
"821 0 LINE"
);
}
);
width = 880;
}
);
leftKerningGroup = X;
leftMetricsKey = A;
rightKerningGroup = X;
rightMetricsKey = A;
unicode = 0058;
},
{
glyphname = Y;
lastChange = "2026-04-25 18:55:43 +0000";
layers = (
{
anchors = (
{
name = Bottom;
position = "{286, 0}";
},
{
name = Greek;
position = "{7, 558}";
},
{
name = Top;
position = "{336, 714}";
}
);
layerId = "FD4D3FDD-DE85-408F-A52A-FF600B1C6101";
paths = (
{
closed = 1;
nodes = (
"261 0 LINE",
"311 0 LINE",
"330 273 LINE",
"599 714 LINE",
"543 714 LINE",
"309 330 LINE",
"307 330 LINE",
"126 714 LINE",
"72 714 LINE",
"280 273 LINE"
);
}
);
width = 607;
},
{
anchors = (
{
name = Bottom;
position = "{386, 0}";
},
{
name = Greek;
position = "{-53, 558}";
},
{
name = Top;
position = "{436, 714}";
}
);
layerId = m002;
paths = (
{
closed = 1;
nodes = (
"281 0 LINE",
"491 0 LINE",
"510 273 LINE",
"800 714 LINE",
"573 714 LINE",
"419 477 LINE",
"416 477 LINE",
"297 714 LINE",
"72 714 LINE",
"300 273 LINE"
);
}
);
width = 808;
},
{
anchors = (
{
name = Bottom;
position = "{346, 0}";
},
{
name = Greek;
position = "{17, 558}";
},
{
name = Top;
position = "{396, 714}";
}
);
layerId = "2AA43DF3-F741-4269-8311-3A3BEA5B2F2C";
paths = (
{
closed = 1;
nodes = (
"321 0 LINE",
"371 0 LINE",
"390 273 LINE",
"719 714 LINE",
"660 714 LINE",
"369 326 LINE",
"367 326 LINE",
"129 714 LINE",
"72 714 LINE",
"340 273 LINE"
);
}
);
width = 727;
},
{
anchors = (
{
name = Bottom;
position = "{436, 0}";
},
{
name = Greek;
position = "{-53, 558}";
},
{
name = Top;
position = "{486, 714}";
}
);
layerId = "2B8C56A3-DCBD-4946-B3F7-595679620A89";
paths = (
{
closed = 1;
nodes = (
"331 0 LINE",
"541 0 LINE",
"561 273 LINE",
"900 714 LINE",
"643 714 LINE",
"468 482 LINE",
"466 482 LINE",
"327 714 LINE",
"72 714 LINE",
"351 273 LINE"
);
}
);
width = 908;
}
);
leftKerningGroup = V;
leftMetricsKey = A;
rightKerningGroup = V;
rightMetricsKey = A;
unicode = 0059;
},
{
glyphname = Yhook;
lastChange = "2026-04-25 18:55:43 +0000";
layers = (
{
layerId = "FD4D3FDD-DE85-408F-A52A-FF600B1C6101";
paths = (
{
closed = 1;
nodes = (
"261 0 LINE",
"311 0 LINE",
"330 273 LINE",
"522 588 LINE SMOOTH",
"557 645 OFFCURVE",
"590 679 OFFCURVE",
"638 679 CURVE SMOOTH",
"657 679 OFFCURVE",
"679 676 OFFCURVE",
"689 670 CURVE",
"693 718 LINE",
"679 723 OFFCURVE",
"661 726 OFFCURVE",
"645 726 CURVE SMOOTH",
"568 726 OFFCURVE",
"523 679 OFFCURVE",
"467 588 CURVE SMOOTH",
"310 330 LINE",
"308 330 LINE",
"127 714 LINE",
"72 714 LINE",
"280 273 LINE"
);
}
);
width = 691;
},
{
layerId = "2AA43DF3-F741-4269-8311-3A3BEA5B2F2C";
paths = (
{
closed = 1;
nodes = (
"321 0 LINE",
"371 0 LINE",
"390 273 LINE",
"625 588 LINE SMOOTH",
"666 642 OFFCURVE",
"693 679 OFFCURVE",
"741 679 CURVE SMOOTH",
"760 679 OFFCURVE",
"782 676 OFFCURVE",
"792 670 CURVE",
"796 718 LINE",
"782 723 OFFCURVE",
"764 726 OFFCURVE",
"748 726 CURVE SMOOTH",
"671 726 OFFCURVE",
"635 679 OFFCURVE",
"566 588 CURVE SMOOTH",
"369 326 LINE",
"367 326 LINE",
"130 714 LINE",
"72 714 LINE",
"340 273 LINE"
);
}
);
width = 794;
},
{
layerId = m002;
paths = (
{
closed = 1;
nodes = (
"281 0 LINE",
"491 0 LINE",
"510 273 LINE",
"668 513 LINE SMOOTH",
"690 546 OFFCURVE",
"718 567 OFFCURVE",
"759 567 CURVE SMOOTH",
"782 567 OFFCURVE",
"803 564 OFFCURVE",
"814 558 CURVE",
"825 718 LINE",
"809 723 OFFCURVE",
"785 726 OFFCURVE",
"760 726 CURVE SMOOTH",
"628 726 OFFCURVE",
"546 671 OFFCURVE",
"485 577 CURVE SMOOTH",
"420 477 LINE",
"418 477 LINE",
"298 714 LINE",
"72 714 LINE",
"300 273 LINE"
);
}
);
width = 823;
},
{
layerId = "2B8C56A3-DCBD-4946-B3F7-595679620A89";
paths = (
{
closed = 1;
nodes = (
"331 0 LINE",
"541 0 LINE",
"561 273 LINE",
"750 520 LINE SMOOTH",
"772 548 OFFCURVE",
"798 567 OFFCURVE",
"836 567 CURVE SMOOTH",
"861 567 OFFCURVE",
"883 564 OFFCURVE",
"894 558 CURVE",
"905 718 LINE",
"889 723 OFFCURVE",
"854 726 OFFCURVE",
"829 726 CURVE SMOOTH",
"688 726 OFFCURVE",
"623 690 OFFCURVE",
"548 589 CURVE SMOOTH",
"468 482 LINE",
"466 482 LINE",
"327 714 LINE",
"72 714 LINE",
"350 273 LINE"
);
}
);
width = 903;
}
);
leftKerningGroup = Y;
leftMetricsKey = Y;
rightKerningGroup = T;
rightMetricsKey = T;
unicode = 01B3;
},
{
glyphname = Z;
lastChange = "2026-04-25 18:55:43 +0000";
layers = (
{
anchors = (
{
name = Bottom;
position = "{291, 0}";
},
{
name = Top;
position = "{322, 714}";
}
);
layerId = "FD4D3FDD-DE85-408F-A52A-FF600B1C6101";
paths = (
{
closed = 1;
nodes = (
"83 714 LINE",
"79 664 LINE",
"515 664 LINE",
"25 50 LINE",
"22 0 LINE",
"531 0 LINE",
"534 50 LINE",
"84 50 LINE",
"576 664 LINE",
"580 714 LINE"
);
}
);
width = 589;
},
{
anchors = (
{
name = Bottom;
position = "{281, 0}";
},
{
name = Top;
position = "{363, 714}";
}
);
layerId = m002;
paths = (
{
closed = 1;
nodes = (
"84 714 LINE",
"72 546 LINE",
"357 546 LINE",
"34 168 LINE",
"23 0 LINE",
"552 0 LINE",
"563 168 LINE",
"264 168 LINE",
"590 546 LINE",
"601 714 LINE"
);
}
);
width = 610;
},
{
anchors = (
{
name = Bottom;
position = "{349, 0}";
},
{
name = Top;
position = "{422, 714}";
}
);
layerId = "2AA43DF3-F741-4269-8311-3A3BEA5B2F2C";
paths = (
{
closed = 1;
nodes = (
"93 714 LINE",
"89 664 LINE",
"634 664 LINE",
"35 50 LINE",
"32 0 LINE",
"661 0 LINE",
"664 50 LINE",
"107 50 LINE",
"706 664 LINE",
"710 714 LINE"
);
}
);
width = 729;
},
{
anchors = (
{
name = Bottom;
position = "{409, 0}";
},
{
name = Top;
position = "{473, 714}";
}
);
layerId = "2B8C56A3-DCBD-4946-B3F7-595679620A89";
paths = (
{
closed = 1;
nodes = (
"94 714 LINE",
"82 546 LINE",
"529 546 LINE",
"44 168 LINE",
"33 0 LINE",
"762 0 LINE",
"773 168 LINE",
"314 168 LINE",
"799 546 LINE",
"811 714 LINE"
);
}
);
width = 830;
}
);
leftKerningGroup = Z;
rightKerningGroup = Z;
unicode = 005A;
},
{
glyphname = Saltillo;
lastChange = "2026-04-25 18:55:43 +0000";
layers = (
{
layerId = "FD4D3FDD-DE85-408F-A52A-FF600B1C6101";
paths = (
{
closed = 1;
nodes = (
"69 392 LINE",
"59 179 LINE",
"99 179 LINE",
"119 392 LINE",
"142 714 LINE",
"92 714 LINE"
);
}
);
width = 170;
},
{
layerId = m002;
paths = (
{
closed = 1;
nodes = (
"69 392 LINE",
"59 179 LINE",
"219 179 LINE",
"239 392 LINE",
"262 714 LINE",
"92 714 LINE"
);
}
);
width = 290;
},
{
layerId = "2AA43DF3-F741-4269-8311-3A3BEA5B2F2C";
paths = (
{
closed = 1;
nodes = (
"69 392 LINE",
"59 179 LINE",
"99 179 LINE",
"119 392 LINE",
"142 714 LINE",
"92 714 LINE"
);
}
);
width = 170;
},
{
layerId = "2B8C56A3-DCBD-4946-B3F7-595679620A89";
paths = (
{
closed = 1;
nodes = (
"69 392 LINE",
"59 179 LINE",
"219 179 LINE",
"239 392 LINE",
"262 714 LINE",
"92 714 LINE"
);
}
);
width = 290;
}
);
leftKerningGroup = H;
leftMetricsKey = N;
rightKerningGroup = H;
rightMetricsKey = N;
unicode = A78B;
},
{
glyphname = newGlyph;
lastChange = "2026-04-25 18:55:43 +0000";
layers = (
{
layerId = "2B8C56A3-DCBD-4946-B3F7-595679620A89";
paths = (
{
closed = 1;
nodes = (
"62 714 LINE",
"51 564 LINE",
"210 564 LINE",
"181 150 LINE",
"22 150 LINE",
"12 0 LINE",
"539 0 LINE",
"549 150 LINE",
"391 150 LINE",
"420 564 LINE",
"578 564 LINE",
"589 714 LINE"
);
}
);
width = 587;
},
{
layerId = "FD4D3FDD-DE85-408F-A52A-FF600B1C6101";
paths = (
{
closed = 1;
nodes = (
"62 714 LINE",
"59 672 LINE",
"173 672 LINE",
"129 42 LINE",
"15 42 LINE",
"12 0 LINE",
"289 0 LINE",
"292 42 LINE",
"179 42 LINE",
"223 672 LINE",
"336 672 LINE",
"339 714 LINE"
);
}
);
width = 337;
},
{
layerId = "2AA43DF3-F741-4269-8311-3A3BEA5B2F2C";
paths = (
{
closed = 1;
nodes = (
"62 714 LINE",
"59 672 LINE",
"223 672 LINE",
"179 42 LINE",
"15 42 LINE",
"12 0 LINE",
"389 0 LINE",
"392 42 LINE",
"229 42 LINE",
"273 672 LINE",
"436 672 LINE",
"439 714 LINE"
);
}
);
width = 437;
},
{
layerId = m002;
paths = (
{
closed = 1;
nodes = (
"62 714 LINE",
"51 564 LINE",
"160 564 LINE",
"131 150 LINE",
"22 150 LINE",
"12 0 LINE",
"439 0 LINE",
"449 150 LINE",
"341 150 LINE",
"370 564 LINE",
"478 564 LINE",
"489 714 LINE"
);
}
);
width = 487;
}
);
leftKerningGroup = T;
leftMetricsKey = T;
rightKerningGroup = I;
rightMetricsKey = T;
unicode = A7AE;
script = latin;
category = Letter;
},
{
glyphname = nlefthook;
lastChange = "2026-04-25 18:55:43 +0000";
layers = (
{
layerId = "FD4D3FDD-DE85-408F-A52A-FF600B1C6101";
paths = (
{
closed = 1;
nodes = (
"258 279 LINE SMOOTH",
"267 411 OFFCURVE",
"331 490 OFFCURVE",
"431 490 CURVE SMOOTH",
"515 490 OFFCURVE",
"562 431 OFFCURVE",
"555 329 CURVE SMOOTH",
"532 0 LINE",
"580 0 LINE",
"603 332 LINE SMOOTH",
"612 457 OFFCURVE",
"550 532 OFFCURVE",
"437 532 CURVE SMOOTH",
"360 532 OFFCURVE",
"298 493 OFFCURVE",
"266 427 CURVE",
"263 427 LINE",
"290 520 LINE",
"227 520 LINE",
"186 -69 LINE SMOOTH",
"181 -146 OFFCURVE",
"133 -192 OFFCURVE",
"58 -192 CURVE SMOOTH",
"39 -192 OFFCURVE",
"21 -191 OFFCURVE",
"9 -188 CURVE",
"8 -230 LINE",
"22 -232 OFFCURVE",
"40 -233 OFFCURVE",
"55 -233 CURVE SMOOTH",
"161 -233 OFFCURVE",
"227 -173 OFFCURVE",
"234 -71 CURVE SMOOTH"
);
}
);
width = 658;
},
{
layerId = "2AA43DF3-F741-4269-8311-3A3BEA5B2F2C";
paths = (
{
closed = 1;
nodes = (
"259 284 LINE SMOOTH",
"268 408 OFFCURVE",
"360 490 OFFCURVE",
"491 490 CURVE SMOOTH",
"608 490 OFFCURVE",
"682 426 OFFCURVE",
"675 329 CURVE SMOOTH",
"652 0 LINE",
"700 0 LINE",
"723 332 LINE SMOOTH",
"732 452 OFFCURVE",
"641 532 OFFCURVE",
"497 532 CURVE SMOOTH",
"400 532 OFFCURVE",
"308 488 OFFCURVE",
"266 423 CURVE",
"263 423 LINE",
"290 520 LINE",
"227 520 LINE",
"186 -69 LINE SMOOTH",
"181 -146 OFFCURVE",
"133 -192 OFFCURVE",
"58 -192 CURVE SMOOTH",
"39 -192 OFFCURVE",
"21 -191 OFFCURVE",
"9 -188 CURVE",
"8 -230 LINE",
"22 -232 OFFCURVE",
"40 -233 OFFCURVE",
"55 -233 CURVE SMOOTH",
"161 -233 OFFCURVE",
"227 -173 OFFCURVE",
"234 -71 CURVE SMOOTH"
);
}
);
width = 778;
},
{
layerId = m002;
paths = (
{
closed = 1;
nodes = (
"314 274 LINE SMOOTH",
"318 333 OFFCURVE",
"347 370 OFFCURVE",
"390 370 CURVE SMOOTH",
"433 370 OFFCURVE",
"456 342 OFFCURVE",
"452 290 CURVE SMOOTH",
"432 0 LINE",
"630 0 LINE",
"653 331 LINE SMOOTH",
"662 456 OFFCURVE",
"589 532 OFFCURVE",
"455 532 CURVE SMOOTH",
"392 532 OFFCURVE",
"340 514 OFFCURVE",
"311 479 CURVE",
"308 477 LINE",
"331 520 LINE",
"133 520 LINE",
"97 2 LINE SMOOTH",
"94 -51 OFFCURVE",
"71 -84 OFFCURVE",
"40 -84 CURVE SMOOTH",
"23 -84 OFFCURVE",
"7 -84 OFFCURVE",
"-4 -81 CURVE",
"-10 -230 LINE",
"0 -232 OFFCURVE",
"15 -233 OFFCURVE",
"35 -233 CURVE SMOOTH",
"190 -233 OFFCURVE",
"285 -148 OFFCURVE",
"295 -2 CURVE SMOOTH"
);
}
);
width = 698;
},
{
layerId = "2B8C56A3-DCBD-4946-B3F7-595679620A89";
paths = (
{
closed = 1;
nodes = (
"313 256 LINE SMOOTH",
"317 320 OFFCURVE",
"377 370 OFFCURVE",
"447 370 CURVE SMOOTH",
"515 370 OFFCURVE",
"565 322 OFFCURVE",
"560 260 CURVE SMOOTH",
"542 0 LINE",
"740 0 LINE",
"763 331 LINE SMOOTH",
"772 444 OFFCURVE",
"660 532 OFFCURVE",
"510 532 CURVE SMOOTH",
"423 532 OFFCURVE",
"335 509 OFFCURVE",
"311 479 CURVE",
"308 477 LINE",
"331 520 LINE",
"133 520 LINE",
"97 2 LINE SMOOTH",
"94 -46 OFFCURVE",
"69 -84 OFFCURVE",
"40 -84 CURVE SMOOTH",
"22 -84 OFFCURVE",
"2 -83 OFFCURVE",
"-4 -81 CURVE",
"-10 -230 LINE",
"-2 -232 OFFCURVE",
"18 -233 OFFCURVE",
"35 -233 CURVE SMOOTH",
"185 -233 OFFCURVE",
"285 -157 OFFCURVE",
"293 -36 CURVE SMOOTH"
);
}
);
width = 808;
}
);
leftKerningGroup = j;
leftMetricsKey = j;
rightKerningGroup = n;
rightMetricsKey = n;
unicode = 0272;
script = latin;
subCategory = "";
},
{
glyphname = Ismall;
lastChange = "2026-04-25 18:55:43 +0000";
layers = (
{
layerId = "FD4D3FDD-DE85-408F-A52A-FF600B1C6101";
paths = (
{
closed = 1;
nodes = (
"68 520 LINE",
"65 478 LINE",
"179 478 LINE",
"149 42 LINE",
"35 42 LINE",
"32 0 LINE",
"307 0 LINE",
"310 42 LINE",
"197 42 LINE",
"227 478 LINE",
"340 478 LINE",
"343 520 LINE"
);
}
);
width = 375;
},
{
layerId = m002;
paths = (
{
closed = 1;
nodes = (
"58 520 LINE",
"48 370 LINE",
"157 370 LINE",
"142 150 LINE",
"33 150 LINE",
"22 0 LINE",
"397 0 LINE",
"408 150 LINE",
"300 150 LINE",
"315 370 LINE",
"423 370 LINE",
"433 520 LINE"
);
}
);
width = 456;
},
{
layerId = "2AA43DF3-F741-4269-8311-3A3BEA5B2F2C";
paths = (
{
closed = 1;
nodes = (
"68 520 LINE",
"65 478 LINE",
"229 478 LINE",
"199 42 LINE",
"35 42 LINE",
"32 0 LINE",
"407 0 LINE",
"410 42 LINE",
"247 42 LINE",
"277 478 LINE",
"440 478 LINE",
"443 520 LINE"
);
}
);
width = 475;
},
{
layerId = "2B8C56A3-DCBD-4946-B3F7-595679620A89";
paths = (
{
closed = 1;
nodes = (
"58 520 LINE",
"48 370 LINE",
"207 370 LINE",
"192 150 LINE",
"33 150 LINE",
"22 0 LINE",
"497 0 LINE",
"508 150 LINE",
"350 150 LINE",
"365 370 LINE",
"523 370 LINE",
"533 520 LINE"
);
}
);
width = 556;
}
);
leftKerningGroup = n;
rightKerningGroup = n;
unicode = 026A;
},
{
glyphname = a;
lastChange = "2026-04-25 22:39:50 +0000";
layers = (
{
anchors = (
{
name = Bottom;
position = "{272, 0}";
},
{
name = Ogonek;
position = "{433, 0}";
},
{
name = Top;
position = "{321, 532}";
}
);
background = {
paths = (
{
closed = 1;
nodes = (
"503 297 LINE",
"383 297 LINE SMOOTH",
"239 297 OFFCURVE",
"154 236 OFFCURVE",
"154 132 CURVE SMOOTH",
"154 45 OFFCURVE",
"222 -13 OFFCURVE",
"324 -13 CURVE SMOOTH",
"408 -13 OFFCURVE",
"475 25 OFFCURVE",
"503 88 CURVE",
"505 88 LINE",
"513 0 LINE",
"551 0 LINE",
"551 364 LINE SMOOTH",
"551 470 OFFCURVE",
"487 532 OFFCURVE",
"378 532 CURVE SMOOTH",
"257 532 OFFCURVE",
"185 476 OFFCURVE",
"185 382 CURVE",
"233 382 LINE",
"233 450 OFFCURVE",
"286 490 OFFCURVE",
"376 490 CURVE SMOOTH",
"456 490 OFFCURVE",
"503 446 OFFCURVE",
"503 372 CURVE SMOOTH"
);
},
{
closed = 1;
nodes = (
"206 214 OFFCURVE",
"268 257 OFFCURVE",
"388 257 CURVE SMOOTH",
"502 257 LINE",
"502 212 LINE SMOOTH",
"502 96 OFFCURVE",
"436 28 OFFCURVE",
"324 28 CURVE SMOOTH",
"253 28 OFFCURVE",
"206 69 OFFCURVE",
"206 131 CURVE SMOOTH"
);
},
{
closed = 1;
nodes = (
"483 90 LINE",
"483 45 OFFCURVE",
"496 25 QCURVE SMOOTH",
"512 0 OFFCURVE",
"557 0 QCURVE SMOOTH",
"579 0 OFFCURVE",
"598 4 QCURVE",
"598 57 LINE",
"588 53 OFFCURVE",
"578 53 QCURVE SMOOTH",
"541 53 OFFCURVE",
"541 91 QCURVE"
);
}
);
};
layerId = "FD4D3FDD-DE85-408F-A52A-FF600B1C6101";
paths = (
{
closed = 1;
nodes = (
"329 -13 OFFCURVE",
"398 23 OFFCURVE",
"427 77 CURVE",
"429 78 LINE",
"414 0 LINE",
"472 0 LINE",
"508 520 LINE",
"460 520 LINE",
"459 427 LINE",
"456 426 LINE",
"432 490 OFFCURVE",
"362 532 OFFCURVE",
"280 532 CURVE SMOOTH",
"141 532 OFFCURVE",
"49 410 OFFCURVE",
"49 227 CURVE SMOOTH",
"49 83 OFFCURVE",
"131 -13 OFFCURVE",
"255 -13 CURVE SMOOTH"
);
},
{
closed = 1;
nodes = (
"97 386 OFFCURVE",
"172 490 OFFCURVE",
"285 490 CURVE SMOOTH",
"380 490 OFFCURVE",
"443 411 OFFCURVE",
"443 293 CURVE SMOOTH",
"443 135 OFFCURVE",
"368 29 OFFCURVE",
"255 29 CURVE SMOOTH",
"160 29 OFFCURVE",
"97 109 OFFCURVE",
"97 229 CURVE SMOOTH"
);
}
);
width = 550;
},
{
anchors = (
{
name = Bottom;
position = "{335, 0}";
},
{
name = Ogonek;
position = "{518, 0}";
},
{
name = Top;
position = "{371, 532}";
}
);
background = {
paths = (
{
closed = 1;
nodes = (
"445 297 LINE",
"325 297 LINE SMOOTH",
"181 297 OFFCURVE",
"96 236 OFFCURVE",
"96 132 CURVE SMOOTH",
"96 45 OFFCURVE",
"164 -13 OFFCURVE",
"266 -13 CURVE SMOOTH",
"350 -13 OFFCURVE",
"417 25 OFFCURVE",
"445 88 CURVE",
"447 88 LINE",
"455 0 LINE",
"493 0 LINE",
"493 364 LINE SMOOTH",
"493 470 OFFCURVE",
"429 532 OFFCURVE",
"320 532 CURVE SMOOTH",
"199 532 OFFCURVE",
"127 476 OFFCURVE",
"127 382 CURVE",
"175 382 LINE",
"175 450 OFFCURVE",
"228 490 OFFCURVE",
"318 490 CURVE SMOOTH",
"398 490 OFFCURVE",
"445 446 OFFCURVE",
"445 372 CURVE SMOOTH"
);
},
{
closed = 1;
nodes = (
"148 214 OFFCURVE",
"210 257 OFFCURVE",
"330 257 CURVE SMOOTH",
"444 257 LINE",
"444 212 LINE SMOOTH",
"444 96 OFFCURVE",
"378 28 OFFCURVE",
"266 28 CURVE SMOOTH",
"195 28 OFFCURVE",
"148 69 OFFCURVE",
"148 131 CURVE SMOOTH"
);
},
{
closed = 1;
nodes = (
"425 90 LINE",
"425 45 OFFCURVE",
"438 25 QCURVE SMOOTH",
"454 0 OFFCURVE",
"499 0 QCURVE SMOOTH",
"521 0 OFFCURVE",
"540 4 QCURVE",
"540 57 LINE",
"530 53 OFFCURVE",
"520 53 QCURVE SMOOTH",
"483 53 OFFCURVE",
"483 91 QCURVE"
);
}
);
};
layerId = m002;
paths = (
{
closed = 1;
nodes = (
"311 -13 OFFCURVE",
"359 0 OFFCURVE",
"392 38 CURVE",
"394 37 LINE",
"381 0 LINE",
"590 0 LINE",
"626 520 LINE",
"428 520 LINE",
"432 497 LINE",
"430 496 LINE",
"404 518 OFFCURVE",
"355 532 OFFCURVE",
"309 532 CURVE SMOOTH",
"141 532 OFFCURVE",
"29 414 OFFCURVE",
"29 236 CURVE SMOOTH",
"29 87 OFFCURVE",
"126 -13 OFFCURVE",
"272 -13 CURVE SMOOTH"
);
},
{
closed = 1;
nodes = (
"237 321 OFFCURVE",
"278 375 OFFCURVE",
"339 375 CURVE SMOOTH",
"382 375 OFFCURVE",
"411 338 OFFCURVE",
"411 282 CURVE SMOOTH",
"411 203 OFFCURVE",
"371 150 OFFCURVE",
"311 150 CURVE SMOOTH",
"267 150 OFFCURVE",
"237 186 OFFCURVE",
"237 241 CURVE SMOOTH"
);
}
);
width = 658;
},
{
anchors = (
{
name = Bottom;
position = "{344, 0}";
},
{
name = Ogonek;
position = "{575, 0}";
},
{
name = Top;
position = "{376, 532}";
}
);
layerId = "2AA43DF3-F741-4269-8311-3A3BEA5B2F2C";
paths = (
{
closed = 1;
nodes = (
"421 -13 OFFCURVE",
"517 31 OFFCURVE",
"567 97 CURVE",
"569 98 LINE",
"547 0 LINE",
"610 0 LINE",
"646 520 LINE",
"598 520 LINE",
"595 412 LINE",
"593 411 LINE",
"554 484 OFFCURVE",
"456 532 OFFCURVE",
"348 532 CURVE SMOOTH",
"169 532 OFFCURVE",
"49 414 OFFCURVE",
"49 238 CURVE SMOOTH",
"49 87 OFFCURVE",
"160 -13 OFFCURVE",
"327 -13 CURVE SMOOTH"
);
},
{
closed = 1;
nodes = (
"97 390 OFFCURVE",
"199 490 OFFCURVE",
"353 490 CURVE SMOOTH",
"490 490 OFFCURVE",
"581 407 OFFCURVE",
"581 282 CURVE SMOOTH",
"581 130 OFFCURVE",
"479 29 OFFCURVE",
"327 29 CURVE SMOOTH",
"189 29 OFFCURVE",
"97 113 OFFCURVE",
"97 240 CURVE SMOOTH"
);
}
);
width = 688;
},
{
anchors = (
{
name = Bottom;
position = "{331, 0}";
},
{
name = Ogonek;
position = "{623, 0}";
},
{
name = Top;
position = "{380, 532}";
}
);
layerId = "2B8C56A3-DCBD-4946-B3F7-595679620A89";
paths = (
{
closed = 1;
nodes = (
"407 -13 OFFCURVE",
"479 6 OFFCURVE",
"509 35 CURVE SMOOTH",
"511 37 LINE",
"488 0 LINE",
"695 0 LINE",
"731 520 LINE",
"533 520 LINE",
"536 487 LINE",
"532 486 LINE",
"497 514 OFFCURVE",
"432 532 OFFCURVE",
"369 532 CURVE SMOOTH",
"166 532 OFFCURVE",
"30 417 OFFCURVE",
"30 245 CURVE SMOOTH",
"30 90 OFFCURVE",
"150 -13 OFFCURVE",
"329 -13 CURVE SMOOTH"
);
},
{
closed = 1;
nodes = (
"239 337 OFFCURVE",
"300 400 OFFCURVE",
"391 400 CURVE SMOOTH",
"465 400 OFFCURVE",
"515 352 OFFCURVE",
"515 279 CURVE SMOOTH",
"515 184 OFFCURVE",
"454 121 OFFCURVE",
"363 121 CURVE SMOOTH",
"289 121 OFFCURVE",
"239 170 OFFCURVE",
"239 243 CURVE SMOOTH"
);
}
);
width = 763;
}
);
leftKerningGroup = o;
leftMetricsKey = o;
rightKerningGroup = n;
rightMetricsKey = n;
unicode = 0061;
},
{
glyphname = astroke;
lastChange = "2026-04-25 22:26:17 +0000";
layers = (
{
layerId = "FD4D3FDD-DE85-408F-A52A-FF600B1C6101";
paths = (
{
closed = 1;
nodes = (
"187 0 LINE",
"206 -9 OFFCURVE",
"230 -13 OFFCURVE",
"255 -13 CURVE SMOOTH",
"329 -13 OFFCURVE",
"398 23 OFFCURVE",
"427 77 CURVE",
"429 78 LINE",
"414 0 LINE",
"472 0 LINE",
"508 520 LINE",
"460 520 LINE",
"459 427 LINE",
"456 426 LINE",
"446 454 OFFCURVE",
"427 477 OFFCURVE",
"402 495 CURVE",
"429 558 LINE",
"378 558 LINE",
"360 517 LINE",
"336 527 OFFCURVE",
"309 532 OFFCURVE",
"280 532 CURVE SMOOTH",
"141 532 OFFCURVE",
"49 410 OFFCURVE",
"49 227 CURVE SMOOTH",
"49 132 OFFCURVE",
"84 58 OFFCURVE",
"144 19 CURVE",
"114 -50 LINE",
"165 -50 LINE"
);
},
{
closed = 1;
nodes = (
"97 386 OFFCURVE",
"172 490 OFFCURVE",
"285 490 CURVE SMOOTH",
"306 490 OFFCURVE",
"326 486 OFFCURVE",
"344 479 CURVE",
"162 61 LINE",
"121 95 OFFCURVE",
"97 155 OFFCURVE",
"97 229 CURVE SMOOTH"
);
},
{
closed = 1;
nodes = (
"383 453 LINE",
"421 419 OFFCURVE",
"443 363 OFFCURVE",
"443 293 CURVE SMOOTH",
"443 135 OFFCURVE",
"368 29 OFFCURVE",
"255 29 CURVE SMOOTH",
"236 29 OFFCURVE",
"219 32 OFFCURVE",
"203 38 CURVE"
);
}
);
width = 550;
},
{
layerId = m002;
paths = (
{
closed = 1;
nodes = (
"197 -3 LINE",
"220 -10 OFFCURVE",
"246 -13 OFFCURVE",
"273 -13 CURVE SMOOTH",
"312 -13 OFFCURVE",
"361 -2 OFFCURVE",
"392 38 CURVE",
"394 37 LINE",
"381 0 LINE",
"590 0 LINE",
"626 520 LINE",
"428 520 LINE",
"432 497 LINE",
"430 496 LINE",
"426 499 OFFCURVE",
"422 502 OFFCURVE",
"418 505 CURVE SMOOTH",
"441 558 LINE",
"390 558 LINE",
"375 523 LINE",
"354 529 OFFCURVE",
"331 532 OFFCURVE",
"309 532 CURVE SMOOTH",
"141 532 OFFCURVE",
"29 414 OFFCURVE",
"29 236 CURVE SMOOTH",
"29 132 OFFCURVE",
"76 52 OFFCURVE",
"154 13 CURVE",
"126 -50 LINE",
"177 -50 LINE"
);
},
{
closed = 1;
nodes = (
"237 299 OFFCURVE",
"259 343 OFFCURVE",
"293 363 CURVE SMOOTH",
"298 366 OFFCURVE",
"303 368 OFFCURVE",
"308 370 CURVE",
"240 213 LINE",
"238 221 OFFCURVE",
"237 231 OFFCURVE",
"237 241 CURVE SMOOTH"
);
},
{
closed = 1;
nodes = (
"360 372 LINE",
"391 362 OFFCURVE",
"411 328 OFFCURVE",
"411 282 CURVE SMOOTH",
"411 203 OFFCURVE",
"371 150 OFFCURVE",
"311 150 CURVE SMOOTH",
"295 150 OFFCURVE",
"281 155 OFFCURVE",
"270 163 CURVE"
);
}
);
width = 658;
},
{
layerId = "2AA43DF3-F741-4269-8311-3A3BEA5B2F2C";
paths = (
{
closed = 1;
nodes = (
"245 -4 LINE",
"270 -10 OFFCURVE",
"298 -13 OFFCURVE",
"327 -13 CURVE SMOOTH",
"431 -13 OFFCURVE",
"511 22 OFFCURVE",
"567 97 CURVE",
"569 98 LINE",
"547 0 LINE",
"610 0 LINE",
"646 520 LINE",
"598 520 LINE",
"595 412 LINE",
"593 411 LINE",
"569 455 OFFCURVE",
"524 490 OFFCURVE",
"469 511 CURVE",
"489 558 LINE",
"438 558 LINE",
"423 524 LINE",
"399 529 OFFCURVE",
"374 532 OFFCURVE",
"348 532 CURVE SMOOTH",
"169 532 OFFCURVE",
"49 414 OFFCURVE",
"49 238 CURVE SMOOTH",
"49 130 OFFCURVE",
"106 48 OFFCURVE",
"200 10 CURVE",
"174 -50 LINE",
"225 -50 LINE"
);
},
{
closed = 1;
nodes = (
"97 390 OFFCURVE",
"199 490 OFFCURVE",
"353 490 CURVE SMOOTH",
"372 490 OFFCURVE",
"390 488 OFFCURVE",
"406 485 CURVE",
"217 50 LINE",
"142 83 OFFCURVE",
"97 151 OFFCURVE",
"97 240 CURVE SMOOTH"
);
},
{
closed = 1;
nodes = (
"452 473 LINE",
"532 443 OFFCURVE",
"581 374 OFFCURVE",
"581 282 CURVE SMOOTH",
"581 130 OFFCURVE",
"479 29 OFFCURVE",
"327 29 CURVE SMOOTH",
"304 29 OFFCURVE",
"282 31 OFFCURVE",
"262 36 CURVE"
);
}
);
width = 688;
},
{
layerId = "2B8C56A3-DCBD-4946-B3F7-595679620A89";
paths = (
{
closed = 1;
nodes = (
"285 -11 LINE",
"299 -12 OFFCURVE",
"314 -13 OFFCURVE",
"329 -13 CURVE SMOOTH",
"407 -13 OFFCURVE",
"479 6 OFFCURVE",
"509 35 CURVE SMOOTH",
"511 37 LINE",
"488 0 LINE",
"695 0 LINE",
"731 520 LINE",
"533 520 LINE",
"536 487 LINE",
"532 486 LINE",
"518 497 OFFCURVE",
"499 507 OFFCURVE",
"477 514 CURVE",
"493 558 LINE",
"442 558 LINE",
"430 526 LINE",
"411 530 OFFCURVE",
"390 532 OFFCURVE",
"369 532 CURVE SMOOTH",
"166 532 OFFCURVE",
"30 417 OFFCURVE",
"30 245 CURVE SMOOTH",
"30 118 OFFCURVE",
"110 26 OFFCURVE",
"237 -3 CURVE",
"220 -50 LINE",
"271 -50 LINE"
);
},
{
closed = 1;
nodes = (
"239 308 OFFCURVE",
"268 358 OFFCURVE",
"316 383 CURVE SMOOTH",
"336 393 OFFCURVE",
"359 399 OFFCURVE",
"384 400 CURVE",
"290 141 LINE",
"258 162 OFFCURVE",
"239 198 OFFCURVE",
"239 243 CURVE SMOOTH"
);
},
{
closed = 1;
nodes = (
"433 394 LINE",
"483 379 OFFCURVE",
"515 337 OFFCURVE",
"515 279 CURVE SMOOTH",
"515 184 OFFCURVE",
"454 121 OFFCURVE",
"363 121 CURVE SMOOTH",
"353 121 OFFCURVE",
"343 122 OFFCURVE",
"334 124 CURVE"
);
}
);
width = 763;
}
);
leftKerningGroup = o;
leftMetricsKey = a;
rightKerningGroup = n;
rightMetricsKey = a;
unicode = 2C65;
},
{
glyphname = ae;
lastChange = "2026-04-25 18:55:43 +0000";
layers = (
{
anchors = (
{
name = Top;
position = "{499, 532}";
}
);
layerId = "FD4D3FDD-DE85-408F-A52A-FF600B1C6101";
paths = (
{
closed = 1;
nodes = (
"531 414 OFFCURVE",
"602 490 OFFCURVE",
"694 490 CURVE SMOOTH",
"798 490 OFFCURVE",
"858 415 OFFCURVE",
"850 296 CURVE",
"511 294 LINE"
);
},
{
closed = 1;
nodes = (
"332 -13 OFFCURVE",
"398 21 OFFCURVE",
"428 77 CURVE",
"430 78 LINE",
"409 0 LINE",
"472 0 LINE",
"480 107 LINE",
"513 34 OFFCURVE",
"584 -13 OFFCURVE",
"665 -13 CURVE SMOOTH",
"773 -13 OFFCURVE",
"857 53 OFFCURVE",
"883 158 CURVE",
"835 160 LINE",
"814 80 OFFCURVE",
"749 29 OFFCURVE",
"668 29 CURVE SMOOTH",
"559 29 OFFCURVE",
"496 116 OFFCURVE",
"506 254 CURVE",
"895 255 LINE",
"898 294 LINE SMOOTH",
"908 440 OFFCURVE",
"829 532 OFFCURVE",
"695 532 CURVE SMOOTH",
"616 532 OFFCURVE",
"541 485 OFFCURVE",
"500 410 CURVE",
"508 520 LINE",
"460 520 LINE",
"459 427 LINE",
"457 426 LINE",
"432 491 OFFCURVE",
"368 532 OFFCURVE",
"290 532 CURVE SMOOTH",
"154 532 OFFCURVE",
"62 428 OFFCURVE",
"50 262 CURVE SMOOTH",
"39 94 OFFCURVE",
"118 -13 OFFCURVE",
"255 -13 CURVE SMOOTH"
);
},
{
closed = 1;
nodes = (
"108 401 OFFCURVE",
"182 490 OFFCURVE",
"290 490 CURVE SMOOTH",
"394 490 OFFCURVE",
"452 402 OFFCURVE",
"442 262 CURVE SMOOTH",
"432 119 OFFCURVE",
"360 29 OFFCURVE",
"257 29 CURVE SMOOTH",
"149 29 OFFCURVE",
"88 118 OFFCURVE",
"98 260 CURVE SMOOTH"
);
}
);
width = 946;
},
{
anchors = (
{
name = Top;
position = "{550, 532}";
}
);
layerId = m002;
paths = (
{
closed = 1;
nodes = (
"763 367 OFFCURVE",
"796 395 OFFCURVE",
"836 395 CURVE SMOOTH",
"875 395 OFFCURVE",
"896 371 OFFCURVE",
"901 326 CURVE",
"746 322 LINE"
);
},
{
closed = 1;
nodes = (
"315 -13 OFFCURVE",
"361 5 OFFCURVE",
"394 38 CURVE",
"395 40 LINE",
"382 0 LINE",
"590 0 LINE",
"596 63 LINE",
"642 15 OFFCURVE",
"711 -13 OFFCURVE",
"801 -13 CURVE SMOOTH",
"955 -13 OFFCURVE",
"1064 55 OFFCURVE",
"1097 173 CURVE",
"898 177 LINE",
"888 145 OFFCURVE",
"854 124 OFFCURVE",
"810 124 CURVE SMOOTH",
"765 124 OFFCURVE",
"739 155 OFFCURVE",
"733 212 CURVE",
"1094 214 LINE",
"1096 241 LINE SMOOTH",
"1109 422 OFFCURVE",
"1014 532 OFFCURVE",
"844 532 CURVE SMOOTH",
"750 532 OFFCURVE",
"674 507 OFFCURVE",
"620 458 CURVE",
"626 520 LINE",
"428 520 LINE",
"432 497 LINE",
"428 496 LINE",
"401 518 OFFCURVE",
"358 532 OFFCURVE",
"312 532 CURVE SMOOTH",
"145 532 OFFCURVE",
"42 433 OFFCURVE",
"30 263 CURVE SMOOTH",
"18 91 OFFCURVE",
"108 -13 OFFCURVE",
"270 -13 CURVE SMOOTH"
);
},
{
closed = 1;
nodes = (
"243 331 OFFCURVE",
"282 375 OFFCURVE",
"338 375 CURVE SMOOTH",
"390 375 OFFCURVE",
"416 335 OFFCURVE",
"410 263 CURVE SMOOTH",
"406 193 OFFCURVE",
"368 150 OFFCURVE",
"313 150 CURVE SMOOTH",
"260 150 OFFCURVE",
"233 189 OFFCURVE",
"238 259 CURVE SMOOTH"
);
}
);
width = 1133;
},
{
anchors = (
{
name = Top;
position = "{650, 532}";
}
);
layerId = "2AA43DF3-F741-4269-8311-3A3BEA5B2F2C";
paths = (
{
closed = 1;
nodes = (
"674 413 OFFCURVE",
"770 490 OFFCURVE",
"899 490 CURVE SMOOTH",
"1041 490 OFFCURVE",
"1130 414 OFFCURVE",
"1122 299 CURVE",
"650 297 LINE"
);
},
{
closed = 1;
nodes = (
"421 -13 OFFCURVE",
"517 30 OFFCURVE",
"567 97 CURVE",
"569 98 LINE",
"547 0 LINE",
"610 0 LINE",
"619 127 LINE",
"659 40 OFFCURVE",
"749 -13 OFFCURVE",
"870 -13 CURVE SMOOTH",
"1015 -13 OFFCURVE",
"1129 55 OFFCURVE",
"1155 158 CURVE",
"1107 160 LINE",
"1086 82 OFFCURVE",
"992 29 OFFCURVE",
"873 29 CURVE SMOOTH",
"728 29 OFFCURVE",
"637 119 OFFCURVE",
"644 255 CURVE",
"1167 256 LINE",
"1170 297 LINE SMOOTH",
"1180 437 OFFCURVE",
"1072 532 OFFCURVE",
"900 532 CURVE SMOOTH",
"783 532 OFFCURVE",
"689 483 OFFCURVE",
"638 399 CURVE",
"646 520 LINE",
"598 520 LINE",
"596 412 LINE",
"594 411 LINE",
"555 483 OFFCURVE",
"457 532 OFFCURVE",
"349 532 CURVE SMOOTH",
"181 532 OFFCURVE",
"62 425 OFFCURVE",
"50 262 CURVE SMOOTH",
"39 98 OFFCURVE",
"150 -13 OFFCURVE",
"327 -13 CURVE SMOOTH"
);
},
{
closed = 1;
nodes = (
"108 397 OFFCURVE",
"210 490 OFFCURVE",
"353 490 CURVE SMOOTH",
"499 490 OFFCURVE",
"590 399 OFFCURVE",
"580 262 CURVE SMOOTH",
"571 123 OFFCURVE",
"470 29 OFFCURVE",
"329 29 CURVE SMOOTH",
"181 29 OFFCURVE",
"89 121 OFFCURVE",
"98 260 CURVE SMOOTH"
);
}
);
width = 1217;
},
{
anchors = (
{
name = Top;
position = "{719, 532}";
}
);
layerId = "2B8C56A3-DCBD-4946-B3F7-595679620A89";
paths = (
{
closed = 1;
nodes = (
"886 364 OFFCURVE",
"935 395 OFFCURVE",
"1000 395 CURVE SMOOTH",
"1066 395 OFFCURVE",
"1105 368 OFFCURVE",
"1114 317 CURVE",
"866 312 LINE"
);
},
{
closed = 1;
nodes = (
"404 -13 OFFCURVE",
"477 5 OFFCURVE",
"508 35 CURVE",
"511 37 LINE",
"488 0 LINE",
"694 0 LINE",
"701 78 LINE",
"757 21 OFFCURVE",
"851 -13 OFFCURVE",
"976 -13 CURVE SMOOTH",
"1161 -13 OFFCURVE",
"1288 55 OFFCURVE",
"1321 173 CURVE",
"1122 177 LINE",
"1112 145 OFFCURVE",
"1059 124 OFFCURVE",
"984 124 CURVE SMOOTH",
"910 124 OFFCURVE",
"866 155 OFFCURVE",
"854 212 CURVE",
"1318 214 LINE",
"1321 261 LINE SMOOTH",
"1333 430 OFFCURVE",
"1214 532 OFFCURVE",
"1005 532 CURVE SMOOTH",
"883 532 OFFCURVE",
"788 503 OFFCURVE",
"724 445 CURVE",
"730 520 LINE",
"532 520 LINE",
"535 487 LINE",
"531 486 LINE",
"496 513 OFFCURVE",
"432 532 OFFCURVE",
"371 532 CURVE SMOOTH",
"177 532 OFFCURVE",
"42 426 OFFCURVE",
"30 263 CURVE SMOOTH",
"19 99 OFFCURVE",
"138 -13 OFFCURVE",
"326 -13 CURVE SMOOTH"
);
},
{
closed = 1;
nodes = (
"244 342 OFFCURVE",
"305 400 OFFCURVE",
"388 400 CURVE SMOOTH",
"471 400 OFFCURVE",
"520 346 OFFCURVE",
"514 263 CURVE SMOOTH",
"509 179 OFFCURVE",
"447 121 OFFCURVE",
"364 121 CURVE SMOOTH",
"281 121 OFFCURVE",
"232 175 OFFCURVE",
"238 259 CURVE SMOOTH"
);
}
);
width = 1357;
}
);
leftKerningGroup = o;
leftMetricsKey = a;
rightKerningGroup = o;
rightMetricsKey = e;
unicode = 00E6;
},
{
glyphname = b;
lastChange = "2026-04-25 18:55:43 +0000";
layers = (
{
anchors = (
{
name = Bottom;
position = "{266, 0}";
},
{
name = Top;
position = "{307, 532}";
}
);
layerId = "FD4D3FDD-DE85-408F-A52A-FF600B1C6101";
paths = (
{
closed = 1;
nodes = (
"401 -13 OFFCURVE",
"499 111 OFFCURVE",
"499 296 CURVE SMOOTH",
"499 438 OFFCURVE",
"422 532 OFFCURVE",
"306 532 CURVE SMOOTH",
"226 532 OFFCURVE",
"150 490 OFFCURVE",
"116 427 CURVE",
"114 429 LINE",
"126 520 LINE",
"141 736 LINE",
"93 736 LINE",
"42 0 LINE",
"105 0 LINE",
"95 78 LINE",
"97 79 LINE",
"119 24 OFFCURVE",
"182 -13 OFFCURVE",
"255 -13 CURVE SMOOTH"
);
},
{
closed = 1;
nodes = (
"107 385 OFFCURVE",
"184 490 OFFCURVE",
"299 490 CURVE SMOOTH",
"390 490 OFFCURVE",
"451 412 OFFCURVE",
"451 294 CURVE SMOOTH",
"451 135 OFFCURVE",
"373 29 OFFCURVE",
"255 29 CURVE SMOOTH",
"166 29 OFFCURVE",
"107 108 OFFCURVE",
"107 227 CURVE SMOOTH"
);
}
);
width = 548;
},
{
anchors = (
{
name = Bottom;
position = "{342, 0}";
},
{
name = Top;
position = "{385, 532}";
}
);
layerId = m002;
paths = (
{
closed = 1;
nodes = (
"518 -13 OFFCURVE",
"629 106 OFFCURVE",
"629 285 CURVE SMOOTH",
"629 433 OFFCURVE",
"528 532 OFFCURVE",
"377 532 CURVE SMOOTH",
"337 532 OFFCURVE",
"291 518 OFFCURVE",
"263 498 CURVE",
"260 498 LINE",
"268 549 LINE",
"281 736 LINE",
"83 736 LINE",
"32 0 LINE",
"237 0 LINE",
"219 37 LINE",
"221 37 LINE",
"245 7 OFFCURVE",
"297 -13 OFFCURVE",
"352 -13 CURVE SMOOTH"
);
},
{
closed = 1;
nodes = (
"247 333 OFFCURVE",
"287 400 OFFCURVE",
"348 400 CURVE SMOOTH",
"392 400 OFFCURVE",
"421 356 OFFCURVE",
"421 289 CURVE SMOOTH",
"421 188 OFFCURVE",
"381 121 OFFCURVE",
"320 121 CURVE SMOOTH",
"276 121 OFFCURVE",
"247 166 OFFCURVE",
"247 233 CURVE SMOOTH"
);
}
);
width = 658;
},
{
anchors = (
{
name = Bottom;
position = "{334, 0}";
},
{
name = Top;
position = "{373, 532}";
}
);
layerId = "2AA43DF3-F741-4269-8311-3A3BEA5B2F2C";
paths = (
{
closed = 1;
nodes = (
"513 -13 OFFCURVE",
"639 105 OFFCURVE",
"639 283 CURVE SMOOTH",
"639 432 OFFCURVE",
"534 532 OFFCURVE",
"376 532 CURVE SMOOTH",
"268 532 OFFCURVE",
"165 482 OFFCURVE",
"116 411 CURVE",
"113 411 LINE",
"126 520 LINE",
"141 736 LINE",
"93 736 LINE",
"42 0 LINE",
"105 0 LINE",
"94 98 LINE",
"97 98 LINE",
"138 28 OFFCURVE",
"223 -13 OFFCURVE",
"325 -13 CURVE SMOOTH"
);
},
{
closed = 1;
nodes = (
"107 390 OFFCURVE",
"212 490 OFFCURVE",
"369 490 CURVE SMOOTH",
"502 490 OFFCURVE",
"591 407 OFFCURVE",
"591 283 CURVE SMOOTH",
"591 131 OFFCURVE",
"485 29 OFFCURVE",
"325 29 CURVE SMOOTH",
"194 29 OFFCURVE",
"107 113 OFFCURVE",
"107 239 CURVE SMOOTH"
);
}
);
width = 688;
},
{
anchors = (
{
name = Bottom;
position = "{372, 0}";
},
{
name = Top;
position = "{425, 532}";
}
);
layerId = "2B8C56A3-DCBD-4946-B3F7-595679620A89";
paths = (
{
closed = 1;
nodes = (
"611 -13 OFFCURVE",
"733 96 OFFCURVE",
"733 281 CURVE SMOOTH",
"733 439 OFFCURVE",
"620 532 OFFCURVE",
"429 532 CURVE SMOOTH",
"362 532 OFFCURVE",
"300 517 OFFCURVE",
"262 497 CURVE",
"260 497 LINE",
"268 549 LINE",
"281 736 LINE",
"83 736 LINE",
"32 0 LINE",
"239 0 LINE",
"221 38 LINE",
"225 38 LINE",
"255 5 OFFCURVE",
"322 -13 OFFCURVE",
"404 -13 CURVE SMOOTH"
);
},
{
closed = 1;
nodes = (
"247 341 OFFCURVE",
"304 400 OFFCURVE",
"400 400 CURVE SMOOTH",
"479 400 OFFCURVE",
"525 356 OFFCURVE",
"525 281 CURVE SMOOTH",
"525 180 OFFCURVE",
"468 121 OFFCURVE",
"372 121 CURVE SMOOTH",
"293 121 OFFCURVE",
"247 166 OFFCURVE",
"247 241 CURVE SMOOTH"
);
}
);
width = 763;
}
);
leftKerningGroup = h;
leftMetricsKey = n;
rightKerningGroup = o;
rightMetricsKey = o;
unicode = 0062;
},
{
glyphname = bhook;
lastChange = "2026-04-25 18:55:43 +0000";
layers = (
{
anchors = (
{
name = Top;
position = "{307, 532}";
}
);
layerId = "FD4D3FDD-DE85-408F-A52A-FF600B1C6101";
paths = (
{
closed = 1;
nodes = (
"42 0 LINE",
"105 0 LINE",
"95 78 LINE",
"97 79 LINE",
"119 24 OFFCURVE",
"182 -13 OFFCURVE",
"255 -13 CURVE SMOOTH",
"401 -13 OFFCURVE",
"499 111 OFFCURVE",
"499 296 CURVE SMOOTH",
"499 438 OFFCURVE",
"422 532 OFFCURVE",
"306 532 CURVE SMOOTH",
"226 532 OFFCURVE",
"150 490 OFFCURVE",
"116 427 CURVE",
"114 429 LINE",
"126 520 LINE",
"134 628 LINE SMOOTH",
"137 675 OFFCURVE",
"163 703 OFFCURVE",
"203 703 CURVE SMOOTH",
"217 703 OFFCURVE",
"230 702 OFFCURVE",
"238 700 CURVE",
"240 746 LINE",
"227 747 OFFCURVE",
"213 748 OFFCURVE",
"200 748 CURVE SMOOTH",
"133 748 OFFCURVE",
"91 705 OFFCURVE",
"86 630 CURVE SMOOTH"
);
},
{
closed = 1;
nodes = (
"107 385 OFFCURVE",
"184 490 OFFCURVE",
"299 490 CURVE SMOOTH",
"390 490 OFFCURVE",
"451 412 OFFCURVE",
"451 294 CURVE SMOOTH",
"451 135 OFFCURVE",
"373 29 OFFCURVE",
"255 29 CURVE SMOOTH",
"166 29 OFFCURVE",
"107 108 OFFCURVE",
"107 227 CURVE SMOOTH"
);
}
);
width = 548;
},
{
anchors = (
{
name = Top;
position = "{373, 532}";
}
);
layerId = "2AA43DF3-F741-4269-8311-3A3BEA5B2F2C";
paths = (
{
closed = 1;
nodes = (
"42 0 LINE",
"105 0 LINE",
"94 98 LINE",
"97 98 LINE",
"138 28 OFFCURVE",
"223 -13 OFFCURVE",
"325 -13 CURVE SMOOTH",
"513 -13 OFFCURVE",
"639 105 OFFCURVE",
"639 283 CURVE SMOOTH",
"639 432 OFFCURVE",
"534 532 OFFCURVE",
"376 532 CURVE SMOOTH",
"268 532 OFFCURVE",
"165 482 OFFCURVE",
"116 411 CURVE",
"113 411 LINE",
"126 520 LINE",
"134 628 LINE SMOOTH",
"137 675 OFFCURVE",
"163 703 OFFCURVE",
"203 703 CURVE SMOOTH",
"217 703 OFFCURVE",
"230 702 OFFCURVE",
"238 700 CURVE",
"240 746 LINE",
"227 747 OFFCURVE",
"213 748 OFFCURVE",
"200 748 CURVE SMOOTH",
"133 748 OFFCURVE",
"91 705 OFFCURVE",
"86 630 CURVE SMOOTH"
);
},
{
closed = 1;
nodes = (
"107 390 OFFCURVE",
"212 490 OFFCURVE",
"369 490 CURVE SMOOTH",
"502 490 OFFCURVE",
"591 407 OFFCURVE",
"591 283 CURVE SMOOTH",
"591 131 OFFCURVE",
"485 29 OFFCURVE",
"325 29 CURVE SMOOTH",
"194 29 OFFCURVE",
"107 113 OFFCURVE",
"107 239 CURVE SMOOTH"
);
}
);
width = 688;
},
{
anchors = (
{
name = Top;
position = "{385, 532}";
}
);
layerId = m002;
paths = (
{
closed = 1;
nodes = (
"32 0 LINE",
"237 0 LINE",
"219 37 LINE",
"221 37 LINE",
"245 7 OFFCURVE",
"297 -13 OFFCURVE",
"352 -13 CURVE SMOOTH",
"518 -13 OFFCURVE",
"629 106 OFFCURVE",
"629 285 CURVE SMOOTH",
"629 433 OFFCURVE",
"528 532 OFFCURVE",
"377 532 CURVE SMOOTH",
"337 532 OFFCURVE",
"291 518 OFFCURVE",
"263 498 CURVE",
"260 498 LINE",
"267 534 LINE",
"268 543 LINE SMOOTH",
"273 588 OFFCURVE",
"297 599 OFFCURVE",
"331 599 CURVE SMOOTH",
"339 599 OFFCURVE",
"352 598 OFFCURVE",
"367 595 CURVE",
"373 744 LINE",
"364 746 OFFCURVE",
"346 748 OFFCURVE",
"325 748 CURVE SMOOTH",
"173 748 OFFCURVE",
"79 666 OFFCURVE",
"69 525 CURVE SMOOTH"
);
},
{
closed = 1;
nodes = (
"247 333 OFFCURVE",
"287 400 OFFCURVE",
"348 400 CURVE SMOOTH",
"392 400 OFFCURVE",
"421 356 OFFCURVE",
"421 289 CURVE SMOOTH",
"421 188 OFFCURVE",
"381 121 OFFCURVE",
"320 121 CURVE SMOOTH",
"276 121 OFFCURVE",
"247 166 OFFCURVE",
"247 233 CURVE SMOOTH"
);
}
);
width = 658;
},
{
anchors = (
{
name = Top;
position = "{438, 532}";
}
);
layerId = "2B8C56A3-DCBD-4946-B3F7-595679620A89";
paths = (
{
closed = 1;
nodes = (
"32 0 LINE",
"239 0 LINE",
"221 38 LINE",
"225 38 LINE",
"255 5 OFFCURVE",
"322 -13 OFFCURVE",
"404 -13 CURVE SMOOTH",
"611 -13 OFFCURVE",
"733 96 OFFCURVE",
"733 281 CURVE SMOOTH",
"733 439 OFFCURVE",
"620 532 OFFCURVE",
"429 532 CURVE SMOOTH",
"362 532 OFFCURVE",
"300 517 OFFCURVE",
"262 497 CURVE",
"260 497 LINE",
"268 547 LINE",
"269 555 LINE SMOOTH",
"272 582 OFFCURVE",
"294 600 OFFCURVE",
"318 600 CURVE SMOOTH",
"326 600 OFFCURVE",
"340 596 OFFCURVE",
"340 596 CURVE",
"350 744 LINE",
"328 746 OFFCURVE",
"294 748 OFFCURVE",
"268 748 CURVE SMOOTH",
"151 748 OFFCURVE",
"79 676 OFFCURVE",
"71 552 CURVE SMOOTH"
);
},
{
closed = 1;
nodes = (
"247 341 OFFCURVE",
"304 400 OFFCURVE",
"400 400 CURVE SMOOTH",
"479 400 OFFCURVE",
"525 356 OFFCURVE",
"525 281 CURVE SMOOTH",
"525 180 OFFCURVE",
"468 121 OFFCURVE",
"372 121 CURVE SMOOTH",
"293 121 OFFCURVE",
"247 166 OFFCURVE",
"247 241 CURVE SMOOTH"
);
}
);
width = 763;
}
);
leftKerningGroup = h;
leftMetricsKey = b;
rightKerningGroup = o;
rightMetricsKey = o;
unicode = 0253;
},
{
glyphname = c;
lastChange = "2026-04-25 18:55:43 +0000";
layers = (
{
anchors = (
{
name = Bottom;
position = "{248, 0}";
},
{
name = Top;
position = "{285, 532}";
}
);
layerId = "FD4D3FDD-DE85-408F-A52A-FF600B1C6101";
paths = (
{
closed = 1;
nodes = (
"398 155 LINE",
"383 79 OFFCURVE",
"324 29 OFFCURVE",
"250 29 CURVE SMOOTH",
"158 29 OFFCURVE",
"97 109 OFFCURVE",
"97 230 CURVE SMOOTH",
"97 386 OFFCURVE",
"171 490 OFFCURVE",
"282 490 CURVE SMOOTH",
"360 490 OFFCURVE",
"416 438 OFFCURVE",
"421 361 CURVE",
"469 361 LINE",
"465 464 OFFCURVE",
"391 532 OFFCURVE",
"285 532 CURVE SMOOTH",
"143 532 OFFCURVE",
"49 410 OFFCURVE",
"49 227 CURVE SMOOTH",
"49 83 OFFCURVE",
"128 -13 OFFCURVE",
"247 -13 CURVE SMOOTH",
"349 -13 OFFCURVE",
"429 54 OFFCURVE",
"446 155 CURVE"
);
}
);
width = 512;
},
{
anchors = (
{
name = Bottom;
position = "{288, 0}";
},
{
name = Top;
position = "{330, 532}";
}
);
layerId = m002;
paths = (
{
closed = 1;
nodes = (
"362 210 LINE",
"355 173 OFFCURVE",
"332 149 OFFCURVE",
"303 149 CURVE SMOOTH",
"263 149 OFFCURVE",
"237 186 OFFCURVE",
"237 242 CURVE SMOOTH",
"237 319 OFFCURVE",
"270 370 OFFCURVE",
"319 370 CURVE SMOOTH",
"352 370 OFFCURVE",
"375 344 OFFCURVE",
"377 306 CURVE",
"585 306 LINE",
"579 442 OFFCURVE",
"477 532 OFFCURVE",
"330 532 CURVE SMOOTH",
"149 532 OFFCURVE",
"29 412 OFFCURVE",
"29 231 CURVE SMOOTH",
"29 85 OFFCURVE",
"132 -13 OFFCURVE",
"287 -13 CURVE SMOOTH",
"434 -13 OFFCURVE",
"547 76 OFFCURVE",
"570 210 CURVE"
);
}
);
width = 612;
},
{
anchors = (
{
name = Bottom;
position = "{318, 0}";
},
{
name = Top;
position = "{355, 532}";
}
);
layerId = "2AA43DF3-F741-4269-8311-3A3BEA5B2F2C";
paths = (
{
closed = 1;
nodes = (
"538 155 LINE",
"523 79 OFFCURVE",
"436 29 OFFCURVE",
"320 29 CURVE SMOOTH",
"186 29 OFFCURVE",
"97 113 OFFCURVE",
"97 238 CURVE SMOOTH",
"97 389 OFFCURVE",
"199 490 OFFCURVE",
"352 490 CURVE SMOOTH",
"471 490 OFFCURVE",
"555 438 OFFCURVE",
"561 361 CURVE",
"609 361 LINE",
"605 464 OFFCURVE",
"503 532 OFFCURVE",
"355 532 CURVE SMOOTH",
"171 532 OFFCURVE",
"49 413 OFFCURVE",
"49 234 CURVE SMOOTH",
"49 86 OFFCURVE",
"156 -13 OFFCURVE",
"317 -13 CURVE SMOOTH",
"461 -13 OFFCURVE",
"569 54 OFFCURVE",
"586 155 CURVE"
);
}
);
width = 652;
},
{
anchors = (
{
name = Bottom;
position = "{352, 0}";
},
{
name = Top;
position = "{392, 532}";
}
);
layerId = "2B8C56A3-DCBD-4946-B3F7-595679620A89";
paths = (
{
closed = 1;
nodes = (
"488 210 LINE",
"479 167 OFFCURVE",
"430 139 OFFCURVE",
"365 139 CURVE SMOOTH",
"289 139 OFFCURVE",
"238 183 OFFCURVE",
"238 249 CURVE SMOOTH",
"238 328 OFFCURVE",
"296 380 OFFCURVE",
"384 380 CURVE SMOOTH",
"452 380 OFFCURVE",
"500 350 OFFCURVE",
"503 306 CURVE",
"711 306 LINE",
"706 442 OFFCURVE",
"579 532 OFFCURVE",
"393 532 CURVE SMOOTH",
"175 532 OFFCURVE",
"29 414 OFFCURVE",
"29 238 CURVE SMOOTH",
"29 87 OFFCURVE",
"157 -13 OFFCURVE",
"350 -13 CURVE SMOOTH",
"535 -13 OFFCURVE",
"673 76 OFFCURVE",
"696 210 CURVE"
);
}
);
width = 738;
}
);
leftKerningGroup = o;
leftMetricsKey = o;
rightKerningGroup = c;
rightMetricsKey = o;
unicode = 0063;
},
{
glyphname = "chi-latin";
lastChange = "2026-04-25 18:55:43 +0000";
layers = (
{
layerId = "FD4D3FDD-DE85-408F-A52A-FF600B1C6101";
paths = (
{
closed = 1;
nodes = (
"385 153 LINE",
"609 520 LINE",
"554 520 LINE",
"363 207 LINE",
"286 393 LINE SMOOTH",
"249 486 OFFCURVE",
"202 532 OFFCURVE",
"127 532 CURVE SMOOTH",
"111 532 OFFCURVE",
"93 529 OFFCURVE",
"78 524 CURVE",
"76 476 LINE",
"87 482 OFFCURVE",
"110 485 OFFCURVE",
"129 485 CURVE SMOOTH",
"177 485 OFFCURVE",
"209 452 OFFCURVE",
"232 395 CURVE SMOOTH",
"330 153 LINE",
"104 -217 LINE",
"159 -217 LINE",
"352 98 LINE",
"431 -94 LINE SMOOTH",
"468 -186 OFFCURVE",
"510 -233 OFFCURVE",
"585 -233 CURVE SMOOTH",
"601 -233 OFFCURVE",
"620 -230 OFFCURVE",
"634 -225 CURVE",
"636 -177 LINE",
"625 -183 OFFCURVE",
"602 -186 OFFCURVE",
"583 -186 CURVE SMOOTH",
"535 -186 OFFCURVE",
"508 -153 OFFCURVE",
"485 -96 CURVE SMOOTH"
);
}
);
width = 728;
},
{
layerId = m002;
paths = (
{
closed = 1;
nodes = (
"504 156 LINE",
"756 520 LINE",
"530 520 LINE",
"395 323 LINE",
"367 361 LINE SMOOTH",
"301 462 OFFCURVE",
"254 532 OFFCURVE",
"144 532 CURVE SMOOTH",
"123 532 OFFCURVE",
"89 528 OFFCURVE",
"68 522 CURVE",
"60 360 LINE",
"74 363 OFFCURVE",
"89 365 OFFCURVE",
"106 365 CURVE SMOOTH",
"124 365 OFFCURVE",
"137 358 OFFCURVE",
"171 307 CURVE SMOOTH",
"272 147 LINE",
"20 -217 LINE",
"246 -217 LINE",
"382 -20 LINE",
"412 -62 LINE SMOOTH",
"478 -163 OFFCURVE",
"525 -233 OFFCURVE",
"635 -233 CURVE SMOOTH",
"656 -233 OFFCURVE",
"690 -229 OFFCURVE",
"711 -223 CURVE",
"718 -61 LINE",
"704 -64 OFFCURVE",
"690 -66 OFFCURVE",
"673 -66 CURVE SMOOTH",
"655 -66 OFFCURVE",
"642 -59 OFFCURVE",
"608 -8 CURVE SMOOTH"
);
}
);
width = 795;
},
{
layerId = "2AA43DF3-F741-4269-8311-3A3BEA5B2F2C";
paths = (
{
closed = 1;
nodes = (
"425 152 LINE",
"689 520 LINE",
"634 520 LINE",
"401 195 LINE",
"286 393 LINE SMOOTH",
"238 478 OFFCURVE",
"202 532 OFFCURVE",
"127 532 CURVE SMOOTH",
"111 532 OFFCURVE",
"93 529 OFFCURVE",
"78 524 CURVE",
"76 476 LINE",
"87 482 OFFCURVE",
"110 485 OFFCURVE",
"129 485 CURVE SMOOTH",
"177 485 OFFCURVE",
"201 449 OFFCURVE",
"232 395 CURVE SMOOTH",
"370 152 LINE",
"104 -217 LINE",
"159 -217 LINE",
"394 109 LINE",
"511 -94 LINE SMOOTH",
"559 -178 OFFCURVE",
"590 -233 OFFCURVE",
"665 -233 CURVE SMOOTH",
"681 -233 OFFCURVE",
"700 -230 OFFCURVE",
"714 -225 CURVE",
"716 -177 LINE",
"705 -183 OFFCURVE",
"682 -186 OFFCURVE",
"663 -186 CURVE SMOOTH",
"615 -186 OFFCURVE",
"596 -150 OFFCURVE",
"565 -96 CURVE SMOOTH"
);
}
);
width = 808;
},
{
layerId = "2B8C56A3-DCBD-4946-B3F7-595679620A89";
paths = (
{
closed = 1;
nodes = (
"546 158 LINE",
"836 520 LINE",
"610 520 LINE",
"429 294 LINE",
"367 361 LINE SMOOTH",
"275 467 OFFCURVE",
"188 532 OFFCURVE",
"134 532 CURVE SMOOTH",
"111 532 OFFCURVE",
"87 529 OFFCURVE",
"68 522 CURVE",
"60 360 LINE",
"66 363 OFFCURVE",
"78 365 OFFCURVE",
"92 365 CURVE SMOOTH",
"109 365 OFFCURVE",
"138 345 OFFCURVE",
"171 307 CURVE SMOOTH",
"309 144 LINE",
"20 -217 LINE",
"246 -217 LINE",
"427 9 LINE",
"492 -62 LINE SMOOTH",
"584 -168 OFFCURVE",
"672 -233 OFFCURVE",
"729 -233 CURVE SMOOTH",
"754 -233 OFFCURVE",
"776 -230 OFFCURVE",
"790 -223 CURVE",
"798 -61 LINE",
"794 -64 OFFCURVE",
"782 -66 OFFCURVE",
"767 -66 CURVE SMOOTH",
"750 -66 OFFCURVE",
"721 -46 OFFCURVE",
"688 -8 CURVE SMOOTH"
);
}
);
width = 874;
}
);
leftKerningGroup = x;
leftMetricsKey = x;
rightKerningGroup = x;
rightMetricsKey = x;
unicode = AB53;
},
{
glyphname = cstroke;
lastChange = "2026-04-25 18:55:43 +0000";
layers = (
{
layerId = "FD4D3FDD-DE85-408F-A52A-FF600B1C6101";
paths = (
{
closed = 1;
nodes = (
"419 558 LINE",
"378 558 LINE",
"114 -50 LINE",
"155 -50 LINE"
);
},
{
closed = 1;
nodes = (
"398 155 LINE",
"383 79 OFFCURVE",
"324 29 OFFCURVE",
"250 29 CURVE SMOOTH",
"158 29 OFFCURVE",
"97 109 OFFCURVE",
"97 230 CURVE SMOOTH",
"97 386 OFFCURVE",
"171 490 OFFCURVE",
"282 490 CURVE SMOOTH",
"360 490 OFFCURVE",
"416 438 OFFCURVE",
"421 361 CURVE",
"469 361 LINE",
"465 464 OFFCURVE",
"391 532 OFFCURVE",
"285 532 CURVE SMOOTH",
"143 532 OFFCURVE",
"49 410 OFFCURVE",
"49 227 CURVE SMOOTH",
"49 83 OFFCURVE",
"128 -13 OFFCURVE",
"247 -13 CURVE SMOOTH",
"349 -13 OFFCURVE",
"429 54 OFFCURVE",
"446 155 CURVE"
);
}
);
width = 512;
},
{
layerId = m002;
paths = (
{
closed = 1;
nodes = (
"461 558 LINE",
"410 558 LINE",
"146 -50 LINE",
"197 -50 LINE"
);
},
{
closed = 1;
nodes = (
"362 210 LINE",
"355 173 OFFCURVE",
"332 149 OFFCURVE",
"303 149 CURVE SMOOTH",
"263 149 OFFCURVE",
"237 186 OFFCURVE",
"237 242 CURVE SMOOTH",
"237 319 OFFCURVE",
"270 370 OFFCURVE",
"319 370 CURVE SMOOTH",
"352 370 OFFCURVE",
"375 344 OFFCURVE",
"377 306 CURVE",
"585 306 LINE",
"579 442 OFFCURVE",
"477 532 OFFCURVE",
"330 532 CURVE SMOOTH",
"149 532 OFFCURVE",
"29 412 OFFCURVE",
"29 231 CURVE SMOOTH",
"29 85 OFFCURVE",
"132 -13 OFFCURVE",
"287 -13 CURVE SMOOTH",
"434 -13 OFFCURVE",
"547 76 OFFCURVE",
"570 210 CURVE"
);
}
);
width = 612;
},
{
layerId = "2AA43DF3-F741-4269-8311-3A3BEA5B2F2C";
paths = (
{
closed = 1;
nodes = (
"489 558 LINE",
"448 558 LINE",
"184 -50 LINE",
"225 -50 LINE"
);
},
{
closed = 1;
nodes = (
"538 155 LINE",
"523 79 OFFCURVE",
"436 29 OFFCURVE",
"320 29 CURVE SMOOTH",
"186 29 OFFCURVE",
"97 113 OFFCURVE",
"97 238 CURVE SMOOTH",
"97 389 OFFCURVE",
"199 490 OFFCURVE",
"352 490 CURVE SMOOTH",
"471 490 OFFCURVE",
"555 438 OFFCURVE",
"561 361 CURVE",
"609 361 LINE",
"605 464 OFFCURVE",
"503 532 OFFCURVE",
"355 532 CURVE SMOOTH",
"171 532 OFFCURVE",
"49 413 OFFCURVE",
"49 234 CURVE SMOOTH",
"49 86 OFFCURVE",
"156 -13 OFFCURVE",
"317 -13 CURVE SMOOTH",
"461 -13 OFFCURVE",
"569 54 OFFCURVE",
"586 155 CURVE"
);
}
);
width = 652;
},
{
layerId = "2B8C56A3-DCBD-4946-B3F7-595679620A89";
paths = (
{
closed = 1;
nodes = (
"531 558 LINE",
"480 558 LINE",
"216 -50 LINE",
"267 -50 LINE"
);
},
{
closed = 1;
nodes = (
"488 210 LINE",
"479 167 OFFCURVE",
"430 139 OFFCURVE",
"365 139 CURVE SMOOTH",
"289 139 OFFCURVE",
"238 183 OFFCURVE",
"238 249 CURVE SMOOTH",
"238 328 OFFCURVE",
"296 380 OFFCURVE",
"384 380 CURVE SMOOTH",
"452 380 OFFCURVE",
"500 350 OFFCURVE",
"503 306 CURVE",
"711 306 LINE",
"706 442 OFFCURVE",
"579 532 OFFCURVE",
"393 532 CURVE SMOOTH",
"175 532 OFFCURVE",
"29 414 OFFCURVE",
"29 238 CURVE SMOOTH",
"29 87 OFFCURVE",
"157 -13 OFFCURVE",
"350 -13 CURVE SMOOTH",
"535 -13 OFFCURVE",
"673 76 OFFCURVE",
"696 210 CURVE"
);
}
);
width = 738;
}
);
leftKerningGroup = o;
leftMetricsKey = c;
rightKerningGroup = c;
rightMetricsKey = c;
unicode = 023C;
},
{
glyphname = d;
lastChange = "2026-04-25 18:55:43 +0000";
layers = (
{
anchors = (
{
name = Bottom;
position = "{258, 0}";
},
{
name = Top;
position = "{289, 532}";
},
{
name = Top_EC;
position = "{564, 532}";
}
);
layerId = "FD4D3FDD-DE85-408F-A52A-FF600B1C6101";
paths = (
{
closed = 1;
nodes = (
"328 -13 OFFCURVE",
"396 23 OFFCURVE",
"425 77 CURVE",
"427 78 LINE",
"407 0 LINE",
"470 0 LINE",
"521 736 LINE",
"473 736 LINE",
"458 520 LINE",
"457 427 LINE",
"454 426 LINE",
"430 490 OFFCURVE",
"360 532 OFFCURVE",
"278 532 CURVE SMOOTH",
"141 532 OFFCURVE",
"49 410 OFFCURVE",
"49 228 CURVE SMOOTH",
"49 83 OFFCURVE",
"132 -13 OFFCURVE",
"257 -13 CURVE SMOOTH"
);
},
{
closed = 1;
nodes = (
"97 386 OFFCURVE",
"171 490 OFFCURVE",
"283 490 CURVE SMOOTH",
"378 490 OFFCURVE",
"441 411 OFFCURVE",
"441 293 CURVE SMOOTH",
"441 135 OFFCURVE",
"367 29 OFFCURVE",
"257 29 CURVE SMOOTH",
"161 29 OFFCURVE",
"97 109 OFFCURVE",
"97 229 CURVE SMOOTH"
);
}
);
width = 548;
},
{
anchors = (
{
name = Bottom;
position = "{359, 0}";
},
{
name = Top;
position = "{371, 532}";
},
{
name = Top_EC;
position = "{719, 500}";
}
);
layerId = m002;
paths = (
{
closed = 1;
nodes = (
"331 -13 OFFCURVE",
"383 6 OFFCURVE",
"405 35 CURVE",
"408 35 LINE",
"385 0 LINE",
"590 0 LINE",
"641 736 LINE",
"443 736 LINE",
"430 549 LINE",
"432 497 LINE",
"429 497 LINE",
"403 518 OFFCURVE",
"355 532 OFFCURVE",
"309 532 CURVE SMOOTH",
"141 532 OFFCURVE",
"29 414 OFFCURVE",
"29 236 CURVE SMOOTH",
"29 87 OFFCURVE",
"128 -13 OFFCURVE",
"276 -13 CURVE SMOOTH"
);
},
{
closed = 1;
nodes = (
"237 333 OFFCURVE",
"277 400 OFFCURVE",
"338 400 CURVE SMOOTH",
"382 400 OFFCURVE",
"411 356 OFFCURVE",
"411 289 CURVE SMOOTH",
"411 188 OFFCURVE",
"371 121 OFFCURVE",
"310 121 CURVE SMOOTH",
"266 121 OFFCURVE",
"237 166 OFFCURVE",
"237 233 CURVE SMOOTH"
);
}
);
width = 658;
},
{
anchors = (
{
name = Bottom;
position = "{338, 0}";
},
{
name = Top;
position = "{363, 532}";
},
{
name = Top_EC;
position = "{705, 532}";
}
);
layerId = "2AA43DF3-F741-4269-8311-3A3BEA5B2F2C";
paths = (
{
closed = 1;
nodes = (
"418 -13 OFFCURVE",
"513 31 OFFCURVE",
"566 97 CURVE",
"569 97 LINE",
"547 0 LINE",
"610 0 LINE",
"661 736 LINE",
"613 736 LINE",
"598 520 LINE",
"595 411 LINE",
"592 411 LINE",
"553 484 OFFCURVE",
"456 532 OFFCURVE",
"348 532 CURVE SMOOTH",
"169 532 OFFCURVE",
"49 414 OFFCURVE",
"49 238 CURVE SMOOTH",
"49 87 OFFCURVE",
"160 -13 OFFCURVE",
"327 -13 CURVE SMOOTH"
);
},
{
closed = 1;
nodes = (
"97 390 OFFCURVE",
"199 490 OFFCURVE",
"353 490 CURVE SMOOTH",
"490 490 OFFCURVE",
"581 407 OFFCURVE",
"581 282 CURVE SMOOTH",
"581 130 OFFCURVE",
"479 29 OFFCURVE",
"327 29 CURVE SMOOTH",
"189 29 OFFCURVE",
"97 113 OFFCURVE",
"97 240 CURVE SMOOTH"
);
}
);
width = 688;
},
{
anchors = (
{
name = Bottom;
position = "{384, 0}";
},
{
name = Top;
position = "{396, 532}";
},
{
name = Top_EC;
position = "{824, 500}";
}
);
layerId = "2B8C56A3-DCBD-4946-B3F7-595679620A89";
paths = (
{
closed = 1;
nodes = (
"407 -13 OFFCURVE",
"478 7 OFFCURVE",
"508 37 CURVE",
"511 37 LINE",
"488 0 LINE",
"695 0 LINE",
"746 736 LINE",
"548 736 LINE",
"535 549 LINE",
"536 486 LINE",
"533 486 LINE",
"497 514 OFFCURVE",
"431 532 OFFCURVE",
"369 532 CURVE SMOOTH",
"166 532 OFFCURVE",
"30 417 OFFCURVE",
"30 245 CURVE SMOOTH",
"30 90 OFFCURVE",
"150 -13 OFFCURVE",
"329 -13 CURVE SMOOTH"
);
},
{
closed = 1;
nodes = (
"239 337 OFFCURVE",
"300 400 OFFCURVE",
"391 400 CURVE SMOOTH",
"465 400 OFFCURVE",
"515 352 OFFCURVE",
"515 279 CURVE SMOOTH",
"515 184 OFFCURVE",
"454 121 OFFCURVE",
"363 121 CURVE SMOOTH",
"289 121 OFFCURVE",
"239 170 OFFCURVE",
"239 243 CURVE SMOOTH"
);
}
);
width = 763;
}
);
leftKerningGroup = o;
leftMetricsKey = o;
rightKerningGroup = n;
rightMetricsKey = n;
unicode = 0064;
},
{
glyphname = dcroat;
lastChange = "2026-04-25 18:55:43 +0000";
layers = (
{
layerId = "FD4D3FDD-DE85-408F-A52A-FF600B1C6101";
paths = (
{
closed = 1;
nodes = (
"606 619 LINE",
"610 664 LINE",
"334 661 LINE",
"331 619 LINE"
);
},
{
closed = 1;
nodes = (
"328 -13 OFFCURVE",
"396 23 OFFCURVE",
"425 77 CURVE",
"427 78 LINE",
"407 0 LINE",
"470 0 LINE",
"521 736 LINE",
"473 736 LINE",
"458 520 LINE",
"457 427 LINE",
"454 426 LINE",
"430 490 OFFCURVE",
"360 532 OFFCURVE",
"278 532 CURVE SMOOTH",
"141 532 OFFCURVE",
"49 410 OFFCURVE",
"49 228 CURVE SMOOTH",
"49 83 OFFCURVE",
"132 -13 OFFCURVE",
"257 -13 CURVE SMOOTH"
);
},
{
closed = 1;
nodes = (
"97 386 OFFCURVE",
"171 490 OFFCURVE",
"283 490 CURVE SMOOTH",
"378 490 OFFCURVE",
"441 411 OFFCURVE",
"441 293 CURVE SMOOTH",
"441 135 OFFCURVE",
"367 29 OFFCURVE",
"257 29 CURVE SMOOTH",
"161 29 OFFCURVE",
"97 109 OFFCURVE",
"97 229 CURVE SMOOTH"
);
}
);
width = 642;
},
{
layerId = m002;
paths = (
{
closed = 1;
nodes = (
"704 587 LINE",
"711 690 LINE",
"366 687 LINE",
"359 587 LINE"
);
},
{
closed = 1;
nodes = (
"331 -13 OFFCURVE",
"383 6 OFFCURVE",
"405 35 CURVE",
"408 35 LINE",
"385 0 LINE",
"590 0 LINE",
"641 736 LINE",
"443 736 LINE",
"430 549 LINE",
"432 497 LINE",
"429 497 LINE",
"403 518 OFFCURVE",
"355 532 OFFCURVE",
"309 532 CURVE SMOOTH",
"141 532 OFFCURVE",
"29 414 OFFCURVE",
"29 236 CURVE SMOOTH",
"29 87 OFFCURVE",
"128 -13 OFFCURVE",
"276 -13 CURVE SMOOTH"
);
},
{
closed = 1;
nodes = (
"237 333 OFFCURVE",
"277 400 OFFCURVE",
"338 400 CURVE SMOOTH",
"382 400 OFFCURVE",
"411 356 OFFCURVE",
"411 289 CURVE SMOOTH",
"411 188 OFFCURVE",
"371 121 OFFCURVE",
"310 121 CURVE SMOOTH",
"266 121 OFFCURVE",
"237 166 OFFCURVE",
"237 233 CURVE SMOOTH"
);
}
);
width = 731;
},
{
layerId = "2AA43DF3-F741-4269-8311-3A3BEA5B2F2C";
paths = (
{
closed = 1;
nodes = (
"746 619 LINE",
"750 664 LINE",
"474 661 LINE",
"471 619 LINE"
);
},
{
closed = 1;
nodes = (
"418 -13 OFFCURVE",
"513 31 OFFCURVE",
"566 97 CURVE",
"569 97 LINE",
"547 0 LINE",
"610 0 LINE",
"661 736 LINE",
"613 736 LINE",
"598 520 LINE",
"595 411 LINE",
"592 411 LINE",
"553 484 OFFCURVE",
"456 532 OFFCURVE",
"348 532 CURVE SMOOTH",
"169 532 OFFCURVE",
"49 414 OFFCURVE",
"49 238 CURVE SMOOTH",
"49 87 OFFCURVE",
"160 -13 OFFCURVE",
"327 -13 CURVE SMOOTH"
);
},
{
closed = 1;
nodes = (
"97 390 OFFCURVE",
"199 490 OFFCURVE",
"353 490 CURVE SMOOTH",
"490 490 OFFCURVE",
"581 407 OFFCURVE",
"581 282 CURVE SMOOTH",
"581 130 OFFCURVE",
"479 29 OFFCURVE",
"327 29 CURVE SMOOTH",
"189 29 OFFCURVE",
"97 113 OFFCURVE",
"97 240 CURVE SMOOTH"
);
}
);
width = 782;
},
{
layerId = "2B8C56A3-DCBD-4946-B3F7-595679620A89";
paths = (
{
closed = 1;
nodes = (
"809 587 LINE",
"816 690 LINE",
"471 687 LINE",
"464 587 LINE"
);
},
{
closed = 1;
nodes = (
"407 -13 OFFCURVE",
"478 7 OFFCURVE",
"508 37 CURVE",
"511 37 LINE",
"488 0 LINE",
"695 0 LINE",
"746 736 LINE",
"548 736 LINE",
"535 549 LINE",
"536 486 LINE",
"533 486 LINE",
"497 514 OFFCURVE",
"431 532 OFFCURVE",
"369 532 CURVE SMOOTH",
"166 532 OFFCURVE",
"30 417 OFFCURVE",
"30 245 CURVE SMOOTH",
"30 90 OFFCURVE",
"150 -13 OFFCURVE",
"329 -13 CURVE SMOOTH"
);
},
{
closed = 1;
nodes = (
"239 337 OFFCURVE",
"300 400 OFFCURVE",
"391 400 CURVE SMOOTH",
"465 400 OFFCURVE",
"515 352 OFFCURVE",
"515 279 CURVE SMOOTH",
"515 184 OFFCURVE",
"454 121 OFFCURVE",
"363 121 CURVE SMOOTH",
"289 121 OFFCURVE",
"239 170 OFFCURVE",
"239 243 CURVE SMOOTH"
);
}
);
width = 836;
}
);
leftKerningGroup = o;
leftMetricsKey = o;
rightKerningGroup = n;
rightMetricsKey = n;
unicode = 0111;
},
